<svg xmlns="http://www.w3.org/2000/svg" width="737" height="114" viewBox="0 0 737 114">
    <g fill="#FFF" fill-rule="evenodd">
        <path d="M207.894 31.414c3.997-3.335 8.238-5.714 13.312-6.624 13.046-2.339 21.822 4.705 21.925 17.893.077 9.796.065 19.595-.025 29.392-.018 1.89.524 2.568 2.448 2.78 4.842.536 4.874.64 5.06 5.395.1 2.558.018 5.123.018 7.852h-28.817c0-3.845-.102-7.637.106-11.411.032-.583 1.427-1.424 2.286-1.563 2.05-.332 2.604-1.265 2.572-3.319-.133-8.467-.048-16.937-.06-25.406-.005-4.91-2.244-7.537-7.082-7.196-2.938.208-5.813 1.633-8.644 2.703-.524.197-.987 1.309-.991 2.001-.064 9.631-.022 19.263-.067 28.894-.007 1.414.618 1.951 1.899 2.022 2.776.151 3.483 1.792 3.364 4.304-.142 2.963-.033 5.938-.033 9.019h-26.39c0-3.907-.102-7.701.109-11.479.032-.586 1.44-1.416 2.313-1.571 1.896-.336 2.547-1.123 2.518-3.118-.121-8.55-.034-17.104-.057-25.656-.015-5.44-2.934-7.887-8.324-7.047-.657.102-1.326.148-1.973.292-5.804 1.294-6.5 2.162-6.5 8.044 0 8.22.036 16.44-.03 24.659-.012 1.596.334 2.551 2.106 2.583 2.733.049 3.316 1.781 3.265 4.11-.068 3.036-.017 6.075-.017 9.206H153.12c0-3.751-.086-7.446.085-11.128.028-.607 1.115-1.551 1.83-1.679 5.64-1.003 5.649-.954 5.649-6.762 0-8.801-.067-17.604.05-26.403.028-2.114-.707-2.762-2.695-2.747-1.65.012-3.3-.298-5.192-.49 0-3.758-.04-7.394.048-11.025.012-.474.642-1.305 1.045-1.343 7.504-.712 15.017-1.329 22.766-1.986v7.707c4.757-4.439 9.648-7.539 15.845-7.844 6.25-.308 11.766 1.047 15.342 6.941M403.342 88.978c-2.99 0-5.982-.058-8.969.042-.705.024-1.696.385-2.04.92-2.573 4.01-.52 9.637 4.176 10.198 4.788.571 9.71.051 14.572-.064.618-.015 1.244-.432 1.836-.726 2.804-1.393 4.236-4.669 3.402-7.788-.806-3.013-3.344-2.48-5.5-2.562-2.49-.094-4.985-.022-7.477-.02m7.354-43.34c-.143-.98-.239-2.306-.542-3.584-.878-3.715-3.235-5.433-7.457-5.555-4.446-.129-7.073 1.408-8.163 4.982-1.014 3.325-1.075 6.745.243 9.967.551 1.35 1.692 2.758 2.947 3.471 5.401 3.074 11.593.078 12.673-5.974.174-.97.183-1.97.3-3.308m20.822-19.906c-.274 4-.526 7.705-.788 11.557l-7.355.841c2.612 4.411 2.857 9.04 2.053 13.656-1.693 9.716-8.87 15.735-19.006 16.046-3.057.093-6.154-.115-9.182-.54-1.59-.226-2.33.154-2.78 1.542-.279.861-.7 1.694-.85 2.574-.427 2.488.311 3.363 2.888 3.38 5.911.037 11.823-.063 17.732.055 2.223.044 4.485.337 6.646.858 6.74 1.626 10.256 5.921 10.768 12.853.998 13.525-4.746 21.47-18.037 24.374-8.57 1.873-17.229 1.652-25.67-.795-9.798-2.84-14.274-11.832-10.289-20.555 1.037-2.27 2.937-4.147 4.544-6.345-.873-1.824-1.797-3.95-2.894-5.986-1.04-1.93-.982-3.808-.09-5.704 1.727-3.674 3.5-7.326 5.397-11.284-3.492-2.954-5.517-6.975-6.267-11.738-1.558-9.885 2.327-19.019 10.225-23.29 4.992-2.7 10.538-3.456 15.994-2.618 8.297 1.275 16.593.872 24.897 1.011.571.01 1.141.06 2.064.108M470.797 66.646h15.048c.286 2.051.443 3.858.833 5.615.148.668.806 1.72 1.274 1.742 4.197.21 8.508.844 12.58.152 5.29-.899 7.253-7.142 3.812-11.31-1.536-1.86-3.693-3.343-5.819-4.556-3.454-1.969-7.134-3.539-10.68-5.35-1.996-1.018-3.963-2.108-5.864-3.29-8.204-5.097-12.039-12.386-10.846-22.062 1.14-9.24 6.463-15.342 14.97-18.556 11.755-4.444 23.693-2.858 35.724-.626v19.707H506.64l-1.147-7.057c-3.33 0-6.56-.212-9.75.065-2.73.237-4.77 1.783-5.63 4.578-.894 2.91-.48 5.61 2.032 7.383 2.83 1.998 5.925 3.63 8.966 5.314 4.28 2.37 8.778 4.384 12.89 7.006 8.317 5.301 11.76 13.037 10.35 22.801-1.48 10.246-7.655 16.65-17.325 19.405-11.625 3.313-23.214 2.017-34.549-1.816-.702-.238-1.59-1.283-1.607-1.97-.13-5.553-.073-11.11-.073-17.175M301.252 38.953c0-3.755-.039-7.39.05-11.02.011-.474.644-1.3 1.05-1.339 7.502-.71 15.013-1.328 22.758-1.984v7.581c1.16-.942 1.971-1.582 2.762-2.249 6.182-5.216 13.324-6.56 21.047-4.855 7.11 1.568 11.67 7.762 11.792 15.921.153 10.207.164 20.418.103 30.626-.014 2.122.441 3.032 2.768 3.275 4.664.485 4.65.655 4.655 5.36.004 2.556 0 5.112 0 7.833H339.08c0-3.836-.06-7.62.073-11.399.018-.495.967-1.208 1.607-1.386 3.795-1.058 3.806-1.015 3.806-5.004 0-7.554.011-15.109-.002-22.663-.013-6.707-3.083-9.444-9.739-8.38-2.672.427-5.306 1.301-7.834 2.288-.786.308-1.64 1.653-1.65 2.533-.119 9.463-.035 18.927-.112 28.39-.014 1.62.566 2.096 2.074 2.375 3.863.716 3.868.803 3.881 4.732.007 2.322.04 4.653-.165 6.96-.054.611-.93 1.642-1.439 1.647-9.23.1-18.462.073-28.052.073 0-3.86-.086-7.558.086-11.244.03-.6 1.127-1.533 1.847-1.66 5.62-.988 5.63-.938 5.63-6.53 0-8.799-.097-17.6.061-26.397.042-2.387-.805-3.028-2.97-2.994-1.563.025-3.13-.298-4.93-.49M736.659 88.17h-28.817c0-3.861-.086-7.64.092-11.406.028-.551 1.278-1.431 2.015-1.492 2.882-.241 3.516-1.688 3.449-4.402-.192-7.8-.07-15.606-.068-23.41 0-5.84-1.607-8.648-9.445-8.283-.91.043-1.82.2-2.717.373-6.415 1.228-7.14 2.094-7.14 8.466 0 8.052.053 16.105-.04 24.156-.019 1.757.471 2.426 2.263 2.727 3.682.617 3.672.749 3.7 4.629.02 2.8.004 5.6.004 8.569h-29.636c0-3.734-.072-7.502.082-11.26.022-.533 1.08-1.355 1.762-1.477 5.683-1.015 5.69-.975 5.69-6.715 0-8.882-.052-17.766.042-26.647.02-1.861-.594-2.504-2.391-2.525-1.736-.02-3.469-.298-5.493-.49 0-3.746-.05-7.371.057-10.991.014-.507.763-1.382 1.234-1.427 7.424-.706 14.861-1.303 22.536-1.945v7.627c1.176-.968 1.971-1.608 2.752-2.267 6.251-5.287 13.476-6.656 21.274-4.84 7.048 1.642 11.483 7.755 11.607 15.808.16 10.29.173 20.584.1 30.876-.015 2.115.57 2.834 2.714 3.069 4.73.519 4.726.662 4.71 5.566-.006 2.323-.063 4.646-.107 6.969-.003.155-.091.309-.23.742M56.934 65.38h15.262c.058.792.154 1.502.156 2.213.014 4.564-.142 9.136.07 13.69.106 2.273-.61 3.455-2.72 4.233-12.24 4.51-24.618 5.596-37.026 1.04-9.714-3.565-15.427-11.05-18.131-20.735-3.325-11.91-3.485-24.002.07-35.858C19.199 14.676 31.398 6.209 47.89 6.27c7.266.029 14.398.963 21.317 3.32 1.663.566 2.309 1.368 2.27 3.199-.128 6.117-.05 12.238-.05 18.656-4.89 0-9.518.049-14.143-.077-.455-.012-1.138-1.038-1.27-1.684-.332-1.618-.543-3.287-.55-4.936-.007-1.72-.693-2.402-2.381-2.793-10.998-2.545-18.475 1.755-20.932 12.673-2.007 8.912-1.951 17.94.197 26.874 3.02 12.56 13.66 13.94 22.537 12.175.572-.114 1.205-1.238 1.339-1.977.364-2.02.477-4.082.709-6.32M618.44 57.198l.353.039c.078 1.737.065 3.484.26 5.208.196 1.72.47 3.454.934 5.12 1.479 5.335 4.518 7.666 9.857 7.723 5.617.06 9.136-2.304 10.513-7.62 1.86-7.183 1.81-14.478.012-21.664-1.277-5.098-4.764-7.495-10.082-7.502-5.27-.006-8.89 2.409-10.147 7.443-.916 3.664-1.157 7.496-1.7 11.253m-17.265-.016c.193-5.831 1.003-11.48 3.408-16.781 4.592-10.132 12.712-15.293 23.685-15.843 3.605-.18 7.332.223 10.87.979 8.255 1.764 14.018 6.806 16.886 14.693 3.934 10.819 4.197 21.844-.117 32.583-4.305 10.713-12.764 16.02-24.223 16.448-3.21.119-6.515-.101-9.652-.761-11.138-2.343-17.191-9.751-19.463-20.49-.751-3.55-.944-7.215-1.394-10.828M124.892 57.035c-.513-3.74-.718-7.32-1.541-10.752-1.294-5.4-4.61-7.761-10.074-7.78-5.42-.017-9.034 2.57-10.342 7.88-1.73 7.026-1.72 14.144-.017 21.175 1.252 5.168 4.5 7.616 9.619 7.729 5.708.125 9.313-2.145 10.666-7.37.923-3.57 1.16-7.32 1.689-10.882m16.974-2.17c-.106 7.726-.826 13.543-3.39 18.987-4.656 9.888-12.638 14.935-23.436 15.38-3.69.154-7.502-.21-11.108-1.012-8.13-1.811-13.817-6.848-16.68-14.623-4.012-10.904-4.252-22.006.19-32.81 4.352-10.58 12.835-15.804 24.137-16.23 3.768-.142 7.69.25 11.337 1.19 10.434 2.689 15.758 10.198 17.826 20.284.712 3.475.907 7.056 1.124 8.835M551.678 56.531c.561 4.02.788 7.683 1.629 11.201 1.192 4.988 4.533 7.423 9.504 7.555 5.624.15 9.188-2.008 10.648-7.076 2.178-7.565 2.153-15.26-.004-22.827-1.33-4.67-4.749-6.849-9.785-6.881-5.16-.032-8.715 2.158-10.024 6.892-1.028 3.715-1.371 7.618-1.968 11.136m40.585.06c-.125 7.617-1.362 14.91-5.731 21.34-4.977 7.325-12.132 11.008-20.855 11.28-4.095.128-8.333-.297-12.312-1.266-7.919-1.93-13.237-7.157-15.942-14.76-3.711-10.43-3.903-21.025-.048-31.44 4.029-10.885 13.577-17.197 25.239-17.288 6.878-.053 13.423 1.007 19.058 5.311 6.153 4.701 8.741 11.317 9.845 18.656.405 2.698.507 5.443.746 8.167M291.706 88.17H260.19c0-3.844-.06-7.615.072-11.38.017-.504.935-1.241 1.561-1.411 1.827-.495 4.588-.153 5.367-1.265.995-1.42.487-3.94.494-5.985.03-9.367.012-18.735.012-28.298l-7.79-.893c0-3.742-.052-7.361.058-10.975.014-.501.785-1.365 1.266-1.41 7.586-.711 15.182-1.314 22.86-1.95 0 5.362.015 10.134-.005 14.906-.048 11.114-.138 22.228-.109 33.343 0 .615.912 1.237 1.427 1.83.082.094.32.05.484.076 5.822.9 5.822.9 5.819 6.687-.002 2.212 0 4.425 0 6.726M275.392 18.15c-5.722-.071-9.096-3.563-8.964-9.276.126-5.507 3.794-8.933 9.496-8.873 5.688.06 8.929 3.585 8.863 9.638-.06 5.412-3.56 8.583-9.395 8.51"/>
    </g>
</svg>
