<svg xmlns="http://www.w3.org/2000/svg" xmlns:xlink="http://www.w3.org/1999/xlink" width="221" height="98" viewBox="0 0 221 98">
    <defs>
        <path id="prefix__a" d="M0 0L220.418 0 220.418 97.801 0 97.801z"/>
    </defs>
    <g fill="none" fill-rule="evenodd" opacity=".8">
        <mask id="prefix__b" fill="#fff">
            <use xlink:href="#prefix__a"/>
        </mask>
        <path fill="#111" d="M10.421 8.377h3.864V7h-3.864v1.376zm4.369-5.058h-.302c.384.445.748.91 1.072 1.396l-2.044.425c-.344-.77-.404-.87-.951-1.821h-1.416c-.485.769-.891 1.275-1.518 2.002l-1.659-.97c.304-.223.951-.648 1.781-2.024.505-.81.667-1.315.89-2.306l1.922.526c.162.04.324.08.324.283 0 .304-.283.344-.688.425-.101.263-.161.404-.284.648h2.894c.81 0 2.509-.04 3.298-.142v1.68c-1.396-.081-3.034-.122-3.319-.122zM8.6 9.854H3.663c-.101.628-.142.83-.284 1.436H8.6V9.854zm8.923 6.253c-.243.627-.668 1.537-3.399 1.658l-1.073-2.104c.89.1 1.416.16 1.781.16.789 0 1.132-.282 1.213-2.953H10.42v1.295c0 .466.162 3.885.203 4.39H8.377c.122-.788.223-3.722.223-4.43-.264.385-.972 1.437-2.246 2.388-1.255.91-2.671 1.558-4.148 2.023l-1.457-1.72c2.468-.707 4.735-1.558 6.636-3.946h-4.41c-.06.162-.425 1.255-.506 1.518L.466 13.86c.465-.912 1.356-2.571 1.416-5.524 1.012.02 1.154.02 2.59.02 1.437.02 1.599.02 2.388.02H8.6V7H6.577c-.264 0-3.298.08-5.059.283V5.342c2.347.183 3.399.162 4.978.162h5.119c.808 0 3.884-.141 4.491-.162-.021.344-.061 1.336-.061 1.659v1.376c0 .304.081 1.235.121 1.538-.647-.041-4.026-.061-4.126-.061h-1.62v1.436h3.521c1.174 0 2.61-.04 4.107-.141-.222 3.723-.242 4.229-.525 4.958zM6.738 3.319h-.384c.202.343.485.83.829 1.578L5.22 5.32c-.181-.727-.242-.89-.646-2.002h-.992c-.303.343-1.032 1.032-2.064 1.76L.061 3.966c.81-.506 1.376-.87 1.983-1.558C2.186 2.246 3.157 1.134 3.562 0l1.679.506c.263.08.364.142.364.345 0 .283-.202.344-.627.425-.142.222-.183.262-.404.647h2.164c.081 0 .709-.02 1.052-.041.243-.02.546-.02 1.173-.04V3.42c-.748-.06-1.476-.101-2.225-.101zM38.867 8.964h-1.66v3.479l.02 2.793c0 1.052 0 2.449.062 3.136h-2.084c.08-.728.1-5.281.1-6.272V8.964h-1.942l-2.792.02c-1.052 0-2.448 0-3.136.06v-1.86c.728.06 5.28.08 6.272.08h1.598v-1.76c0-2.57 0-2.914-.1-5.281l2.184.222c.203.02.708.08.708.365 0 .162-.02.162-.708.547-.04.404-.1 1.01-.121 2.205 0 .445-.06 2.488-.06 2.893v.809h2.003l2.792-.02c1.05 0 2.448 0 3.135-.06v1.86c-.727-.06-5.28-.08-6.271-.08M70.975 17.259c-1.497-1.052-3.945-2.913-5.2-6.858-.688-2.165-.809-4.047-.829-7.244-.405 0-1.335.06-1.7.1V1.114c.384.06 1.62.1 1.781.1h.587c.303 0 1.234-.08 1.598-.1-.162 1.052-.222 2.67-.222 3.764 0 4.168 1.517 8.195 5.765 10.662l-1.78 1.72zM61.546 3.48c.021.384.041.849.041 1.315 0 6.596-3.379 10.885-5.3 12.362l-2.207-1.213c.668-.406 2.51-1.518 4.006-4.412 1.518-2.954 1.518-5.544 1.518-6.656 0-1.113-.04-1.66-.12-2.873l2.224.728c.325.1.486.162.486.303 0 .264-.405.385-.648.446zM93.533 10.036h-.323v2.286c.425 0 1.517-.02 2.367-.162v1.821c-.688-.12-1.558-.12-2.266-.12h-2.246c-.728 0-1.578 0-2.246.12v-1.82c.91.161 2.165.161 2.246.161h.405v-2.286h-.425c-.425 0-1.618.04-2.49.101v-1.7c.83.061 1.963.102 2.49.102h.425c-.021-.506-.021-.668-.082-2.105l1.518.122c.729.06.81.081.81.324 0 .181-.04.202-.446.465l-.06 1.194h.323c.547 0 1.68-.04 2.489-.102v1.7c-.75-.06-1.983-.1-2.49-.1zM98.57 8.54c-.08 1.982-.08 2.205-.08 3.338v2.388c0 .951 0 1.092.142 4.026h-2.105c.02-.243.06-1.295.08-1.518H88.01c.02.385.06 1.093.1 1.437h-2.204c.16-2.043.182-3.56.182-3.804V12.16c0-1.922 0-2.509-.061-4.472l1.84.102c.486.02.689.06.689.324 0 .223-.141.283-.586.425-.021.364-.061 2.428-.061 2.873v3.723h8.76v-3.419c0-1.012-.04-2.53-.08-3.987l1.78.102c.486.02.728.02.728.303 0 .222-.262.324-.526.405zM85.663 4.371h10.784V2.448H85.663v1.923zm12.686-1.7v1.336c0 .081 0 1.193.04 1.922-1.032-.06-4.713-.102-5.806-.102h-6.88c-.161 3.784-.344 8.094-3.096 12.16l-2.003-.728c.486-.607 1.478-1.88 2.186-4.067.889-2.69 1.052-5.159 1.052-7.365 0-1.112-.04-2.145-.243-5.038.222 0 1.8.081 2.124.081.425.02 2.267.041 2.63.041h5.666c.748 0 3.662-.06 4.41-.102-.04.486-.08 1.093-.08 1.862z" mask="url(#prefix__b)"/>
        <path fill="#FFE61A" fill-opacity=".5" d="M.205 56.645L220.418 56.645 220.418 47.066.205 47.066zM.205 13.62L110.311 13.62 110.311 4.041.205 4.041zM.205 97.666L169.518 97.666 169.518 88.087.205 88.087z" mask="url(#prefix__b)"/>
        <path fill="#111" d="M4.593 58.214h7.952v-4.23H4.593v4.23zm7.891 2.549c.02-.142.04-.75.061-.87H4.593c0 .384.02.425.041.87H2.529c.121-1.721.142-2.206.142-3.016v-2.711c0-1.214-.061-1.901-.162-2.954.647.04 2.853.122 4.35.122h3.319c1.314 0 2.306-.061 4.37-.182-.021.647-.061 3.055-.061 3.176v2.408c0 .182.021 1.538.162 3.157h-2.165zm3.44-9.146c-.405-.688-.87-1.376-1.336-2.023-1.82.182-5.118.384-5.645.404-1.234.08-6.676.324-7.79.385-.222.344-.364.566-.647.566-.263 0-.304-.283-.304-.404L0 48.279c.77 0 2.206-.041 3.845-.061 1.719-2.428 2.59-4.613 3.054-5.948l2.267.768c.304.102.344.182.344.304 0 .304-.223.344-.891.425-.586 1.112-1.76 3.196-2.63 4.41 1.822-.02 2.367-.04 7.304-.182-.931-.951-2.104-1.72-2.813-2.185l1.701-1.375c2.104 1.618 3.924 3.56 5.361 5.806l-1.618 1.376zM43.055 50.423v5.099c0 1.72.08 3.42.183 5.139h-2.226c.142-1.011.223-2.711.223-5.361v-4.877h-1.842v1.255c0 .647-.061 3.035-.77 4.855-.83 2.084-2.224 3.158-3.115 3.804l-1.618-1.375c1.092-.628 3.379-1.942 3.702-5.281.02-.283.12-1.66.12-2.084v-5.018c0-.647-.08-2.691-.1-3.055.465.06.83.06 1.113.06.264 0 2.469-.02 3.824-.444.183-.062.95-.324 1.113-.364l1.254 1.314c.102.102.162.162.162.264 0 .302-.262.302-.384.302-.161 0-.243-.04-.425-.1-1.82.566-3.783.708-4.876.627v3.58h3.6c.73 0 1.499-.04 2.207-.16v1.982c-.688-.121-1.416-.162-2.145-.162zm-12.302-4.41l.85 2.873h1.134l.87-2.873h-2.854zm2.854 4.37h-.608v1.84h.446c1.01 0 2.043-.02 3.054-.16v1.86c-1.132-.141-2.427-.182-3.257-.161.284.304 1.437 1.457 2.813 2.246l-1.053 1.518c-.79-.506-1.274-.871-2.003-1.62v.546c0 .527.102 3.602.142 4.209h-2.064c.02-.526.142-2.833.162-3.318.02-.323.02-.587.02-.79v-.384c-.991 1.336-1.274 1.578-3.015 3.116l-1.578-1.376c.91-.506 1.599-.951 2.53-1.922.91-.951 1.355-1.68 1.679-2.246h-.405c-.647 0-2.023.06-3.015.183v-1.861c1.052.14 2.55.16 3.015.16h.789v-1.84h-.87c-1.072 0-2.165.06-3.237.182v-1.841c.87.1 1.84.14 2.73.162l-.87-2.793c-.727.02-.89.02-1.455.06v-1.74c.809.102 1.942.143 2.792.143h1.012c0-.202-.021-1.012-.061-2.044l2.124.182c.202.02.243.203.243.304 0 .182-.06.222-.466.486-.02.364-.02.424-.02 1.072h.728c.689 0 1.8-.041 2.57-.142v1.659c-.182 0-.991-.041-1.153-.06l-.911 2.852c.77 0 1.72-.06 2.49-.141v1.84c-1.417-.161-3.177-.181-3.298-.181zM66.482 58.456l.324-.445h-4.735c-.283.323-.729.85-.99 1.193 2.002-.04 3.438-.12 6.19-.283-.283-.182-.485-.283-.789-.465zm-.89-2.348h-3.844c-1.214 0-2.752.061-3.723.122v-1.517c.546.02 2.953.141 3.723.141h3.843c.71 0 2.45-.08 3.724-.14v1.516c-.445-.04-2.935-.122-3.724-.122zm-4.614-6.23h-3.5l.77.424c.08.04.181.101.181.243 0 .161-.202.182-.404.182-.183.243-.345.384-.567.566.243 0 1.052.02 1.376.02-.02-.303-.08-.749-.122-1.05l1.498.12c.263.02.586.06.586.283 0 .162-.283.323-.404.404 0 .081-.02.142-.02.223h.606v-1.416zm7.871 8.173c1.78 1.153 2.246 1.497 2.752 1.882l-1.194 1.254c-.283-.263-.567-.505-1.416-1.113-2.913.243-7.162.547-12.585.608-.162.343-.223.424-.344.424-.12 0-.142-.02-.243-.303l-.587-1.599c1.821.041 3.582.021 3.824.021.344-.385.891-1.073 1.012-1.214-2.813.06-3.177.081-5.442.141v-1.477c.404 0 4.694.122 5.948.122h6.11c1.113 0 3.845-.06 5.93-.122v1.477c-1.256-.04-2.51-.08-3.765-.1zm2.813-3.642c-1.255 0-2.226-1.639-2.226-3.743 0-.223.102-1.153.102-1.335l-1.093.02c-.102.77-.264 1.396-.547 2.064.647.465.891.627 1.275.91l-.728 1.316c-.264-.244-.547-.506-1.255-1.033-.425.546-.97 1.214-2.286 1.963l-1.255-1.113c.628-.202 1.437-.546 2.327-1.659-.385-.242-.627-.364-1.032-.567l.71-1.153c.464.243.666.344.99.547.162-.426.263-.77.323-1.215-.546.041-1.456.142-1.88.203l-.062-1.517c.223.02 1.457.081 2.064.06 0-.769-.02-1.093-.06-1.538h-1.72c.04-.263.141-1.012.141-1.274v-.325h-3.238c.021.325.102.831.142 1.195h-1.86c0-.08 0-.08.02-.122-.06.02-.06.041-.122.061 0 .121-.02.263-.02.405h.445c.525 0 1.841-.102 2.488-.142v1.457c-.364-.02-1.963-.142-2.488-.142h-.445v.951h.75c.707 0 2.608-.1 3.357-.142v1.477c-1.153-.06-1.963-.1-2.267-.12v.728c0 .263.061.344.325.344h.526c.444 0 .444-.202.444-.87l1.276.323c-.08 1.517-.567 1.64-1.518 1.64h-1.153v.566c-.385-.04-1.397-.142-1.74-.142v.73c1.517-.184 2.225-.285 3.035-.407l-.385 1.174c-1.86.324-4.39.688-7.183.87-.12.243-.202.425-.364.425-.14 0-.202-.162-.243-.324l-.404-1.395c.627 0 1.78 0 4.026-.183v-.89c-.445 0-.647 0-2.023.142v-.87c-.546.303-.97.445-1.335.546l-1.356-.952c1.275-.202 2.245-.566 2.711-1.456-.547.02-1.295.061-2.408.121v-1.477c.566.041 2.671.142 3.36.142h1.051v-.95h-.587c-.344 0-.91.04-2.488.141v-1.457c.506.04 1.982.142 2.488.142h.587c-.02-.223-.04-.486-.142-1.214l1.498.121c.101 0 .243.02.364.06.041-.222.041-.323.041-.506-1.316 0-3.966.082-5.969.142v-1.558c.708.021 4.653.142 5.988.142 0-.202-.06-.789-.14-1.355l1.557.141c.222.021.607.04.607.263 0 .182-.283.345-.405.425-.02.162-.04.303-.04.526h3.237c0-.202 0-.364-.142-1.355l1.56.141c.221.021.605.04.605.263 0 .182-.283.345-.404.425-.02.162-.04.303-.04.526 2.913-.06 3.277-.08 5.584-.142v1.558c-2.61-.08-3.137-.1-5.585-.142v.325c0 .202.041.404.101 1.011l1.255.162c.303.041.506.061.506.243 0 .081-.1.243-.324.343-.02.345-.02.426-.04 1.012l.384-.019c.162 0 1.517-.08 2.731-.304-.546 1.395-.708 2.043-.708 2.852 0 1.195.486 1.984.73 1.984.302 0 .342-1.295.342-1.559l1.276 1.093c-.122.647-.426 2.246-1.619 2.246zM98.45 49.816v6.778c0 .425.04 2.368 0 2.772-.122 1.416-1.275 1.416-3.197 1.396l-.83-2.084c.343.08 1.113.202 1.578.202.627 0 .627-.122.627-1.355v-7.73h-.344c-.688 0-1.376.061-2.064.182v-1.982c.708.121 1.741.162 2.064.162h2.023c.708 0 1.397-.04 2.084-.162v1.982c-.789-.16-1.719-.16-1.942-.16zm-5.262 7.324c-.16-2.59-.687-5.402-1.234-7.263l1.74-.365c.526 1.578 1.174 4.047 1.437 6.657l-1.943.971zm5.08-11.856h-1.72c-.587 0-1.174.04-1.74.162v-.567l-1.316 1.092c-.829-1.133-1.174-1.457-1.659-1.86l1.274-1.053c.81.526 1.538 1.497 1.7 1.801v-1.397c.587.122 1.456.163 1.741.163h1.72c.606 0 1.193-.04 1.76-.163v1.984c-.749-.162-1.7-.162-1.76-.162zM88.15 57.444l-1.86-.486c.93-1.84 1.173-4.37 1.173-6.19 0-.548-.02-.912-.02-1.216l1.78.243c.08 2.49-.162 5.767-1.073 7.65zm-1.234-13.15c-.1 0-.242-.022-.344-.063-.587.891-1.72 2.206-3.399 3.237l-1.598-1.214c1.78-.87 3.338-2.548 3.885-3.682l1.597.972c.122.081.264.222.264.404 0 .182-.162.345-.405.345zm4.634 3.6c0 .222-.02 1.112-.02 1.294v6.03c0 .971.121 4.614.161 5.624h-2.104c.041-.93.182-5.037.182-5.867v-7.082c-.99 0-1.882.081-2.306.143.081.08.181.181.181.343 0 .324-.302.324-.424.324s-.182-.02-.304-.04c-.344.546-.607.93-1.092 1.537.283.122.525.222.525.486 0 .161-.08.223-.464.526-.02.75-.06 2.448-.06 3.197v2.812c0 .182.141 3.217.16 3.621h-2.103c.04-.546.222-3.115.222-3.338v-5.34c-.526.505-.83.727-1.153.97l-1.559-1.072c2.206-1.436 4.007-4.067 4.432-5.14l1.437.971v-1.8c.748.121 1.82.161 2.488.161v-.87c0-.485-.02-2.427-.02-2.913l2.023.223c.303.04.466.142.466.323 0 .243-.142.304-.628.547 0 .465-.02 1.801-.02 2.69.83 0 1.841-.04 2.63-.162v1.984c-.85-.142-1.78-.183-2.65-.183zM121.655 44.515c.223.304.404.547.708 1.012.991-.465 1.376-.73 1.761-1.012h-2.469zm-1.599.122c-.222.12-.343.182-.667.384.203.243.505.587.951 1.356.424-.162.546-.203.728-.284-.283-.546-.566-.971-1.012-1.456zm-1.86.95c-.203.08-.405.162-.648.243l-.89-1.173v2.793c.485-.122 1.152-.264 2.347-.628-.163-.303-.325-.627-.81-1.234zm8.497 15.399c-3.056-.365-6.009-1.538-7.932-3.926-1.537 2.408-4.855 3.58-7.789 3.945l-1.275-1.66c3.137-.06 6.272-.99 7.324-2.851h-2.792c-1.193 0-3.479 0-4.552.06v-1.7c.89.06 3.521.06 4.552.06h3.4c.06-.363.081-.626.081-1.091 0-.567-.02-.911-.06-1.255l1.84.243c.445.06.647.162.647.344 0 .243-.303.303-.566.344 0 .486 0 .789-.102 1.416h2.328c-.425-.505-.729-.85-1.376-1.355l1.336-.891c.606.506 1.091 1.012 1.678 1.72l-.87.526h1.478c1.051 0 2.731 0 3.722-.06v1.699c-.95-.06-2.71-.06-3.722-.06h-3.42c1.761 2.043 4.815 2.69 7.405 2.792l-1.335 1.7zm-.91-11.594v.99c0 .163.02.91.02 1.073 0 1.033-.324 1.74-2.934 1.639l-.708-1.901c.263.08.87.222 1.476.222.223 0 .426-.041.426-.425v-1.598h-3.399c.445.485.79.91 1.174 1.537l-1.376.91c-.345-.687-.628-1.152-1.174-1.861l.83-.567c-.466 0-.85.02-1.255.04v-.93c-.627.182-.83.243-1.053.305l-1.152-1.316v2.165c0 1.275.04 2.367.06 3.278h-1.8c.06-.79.06-2.247.06-3.117v-.444h-1.922c-.1 1.78-.93 3.136-2.246 4.107l-1.417-1.092c.547-.344 1.943-1.174 2.024-3.015-.708.019-1.194.019-1.922.06v-1.578c.627.04 1.396.06 2.104.06h3.38v-1.638h-1.78c-.79 0-1.235.02-2.632.08.061-.727.061-1.091.061-1.537v-.93c0-.183-.02-.668-.06-1.093l1.638.162c.345.04.506.04.506.223 0 .18-.243.283-.405.323-.04.243-.06.466-.06.91v.486h2.731v-.971c0-1.052 0-1.173-.02-1.538l1.76.142c.082 0 .506.04.506.242 0 .223-.324.324-.486.385-.06.283-.08.566-.08.87v.465c1.476-.404 2.913-1.072 3.804-2.326l1.456.283c.203.04.607.12.607.283 0 .202-.445.243-.607.263-.02.04-.04.08-.202.264h2.448c.627 0 1.255 0 2.104-.062l.77.89c-2.854 2.166-5.16 3.238-6.738 3.926h3.763c0-.324-.02-.81-.08-1.194l1.82.12c.586.042.586.143.586.244 0 .223-.242.304-.587.425-.019.12-.019.263-.019.405 1.214 0 1.618-.02 2.103-.061v1.477c-.687-.041-1.09-.041-2.103-.06zM7.016 90.611c-.19.027-.501.054-.705.054-.203 0-.542-.027-.732-.054l-.095-.719H4.37v6.362l.909.135c.027.191.04.45.04.638 0 .19-.013.448-.04.638H1.753c-.013-.19-.027-.448-.027-.638 0-.189.014-.447.027-.638l.923-.135v-6.362h-1.1l-.175.773c-.435 0-.937-.04-1.384-.109.014-.433.08-1.37.163-2.034h6.836v2.09zM17.108 97.665h-3.432c-.013-.189-.027-.447-.027-.638 0-.189.014-.447.027-.637l.814-.136v-2.55h-3.473v2.55l.814.136c.013.19.027.448.027.637 0 .191-.014.45-.027.638H8.4c-.014-.189-.027-.447-.027-.638 0-.189.013-.447.027-.637l.923-.136v-6.32l-.923-.137c-.014-.19-.027-.447-.027-.637s.013-.448.027-.638h3.432c.013.19.027.448.027.638s-.014.447-.027.637l-.814.136v2.36h3.473v-2.36l-.814-.136c-.013-.19-.027-.447-.027-.637s.014-.448.027-.638h3.432c.014.19.027.448.027.638s-.013.447-.027.637l-.923.136v6.321l.923.136c.014.19.027.448.027.637 0 .191-.013.45-.027.638M25.49 97.665h-6.646c-.014-.189-.028-.447-.028-.638 0-.189.014-.447.028-.637l.922-.136v-6.32l-.922-.137c-.014-.19-.028-.447-.028-.637s.014-.448.028-.638h6.565v2.143c-.19.027-.516.041-.705.041-.204 0-.57-.014-.76-.04l-.122-.747h-2.36v2.36h2.848c0 .435-.04.978-.094 1.425h-2.754v2.577h2.441l.122-.827c.191-.027.557-.04.76-.04.19 0 .516.013.705.04v2.211zM36.614 97.665H31.08c-.027-.23-.04-.475-.04-.719s.013-.488.04-.732h2.36v-6.186l-2.13.284c-.094-.366-.162-.92-.162-1.329l2.401-.46h1.48v7.691h1.708c0 .42-.04 1.03-.122 1.451M40.656 89.689c-.705 0-1.099.435-1.099 1.086 0 .731.367 1.247 1.207 1.531.638-.257 1.018-.867 1.018-1.492 0-.718-.407-1.125-1.126-1.125m-.108 3.853c-.665.243-1.113.894-1.113 1.626 0 .816.34 1.317 1.221 1.317.896 0 1.262-.489 1.262-1.358 0-.785-.557-1.3-1.37-1.585m.053 4.258c-1.573 0-2.753-.718-2.753-2.481 0-.91.49-1.71 1.48-2.267-.897-.555-1.318-1.288-1.318-2.17 0-1.628 1.1-2.496 2.701-2.496 1.614 0 2.658.787 2.658 2.32 0 .84-.502 1.587-1.384 2.048 1.004.556 1.547 1.33 1.547 2.401 0 1.656-1.085 2.645-2.93 2.645M48.66 89.038c-.11.016-.293.032-.412.032-.118 0-.317-.016-.427-.032l-.056-.419h-.647v3.707l.53.08c.015.111.023.26.023.371 0 .111-.008.261-.024.371h-2.054c-.008-.11-.017-.26-.017-.37 0-.112.01-.26.017-.373l.537-.079V88.62h-.64l-.103.451c-.253 0-.545-.024-.806-.063.008-.253.047-.799.095-1.186h3.983v1.217zM54.542 93.148h-1.999c-.009-.11-.017-.26-.017-.37 0-.112.008-.262.017-.373l.474-.079v-1.485h-2.024v1.486l.475.079c.008.11.015.26.015.371 0 .11-.007.261-.015.371h-2c-.008-.11-.016-.26-.016-.37 0-.112.008-.262.016-.373l.537-.079v-3.682l-.537-.08c-.008-.11-.016-.26-.016-.371 0-.11.008-.261.016-.371h2c.008.11.015.26.015.37 0 .112-.007.262-.015.373l-.475.079v1.374h2.024v-1.374l-.474-.08c-.009-.11-.017-.26-.017-.371 0-.11.008-.261.017-.371h1.999c.008.11.016.26.016.37 0 .112-.008.262-.016.373l-.537.079v3.682l.537.08c.008.11.016.26.016.371 0 .11-.008.261-.016.371M66.103 90.611c-.188.027-.5.054-.704.054-.204 0-.543-.027-.733-.054l-.094-.719h-1.114v6.362l.91.135c.026.191.04.45.04.638 0 .19-.014.448-.04.638H60.84c-.014-.19-.028-.448-.028-.638 0-.189.014-.447.027-.638l.923-.135v-6.362h-1.099l-.175.773c-.435 0-.938-.04-1.384-.109.014-.433.08-1.37.163-2.034h6.835v2.09zM70.404 90.828c-.082-.285-.163-.624-.177-.827h-.122c-.013.203-.095.542-.177.827l-.854 2.835h2.184l-.854-2.835zm3.798 6.837h-2.808c-.013-.19-.027-.447-.027-.638 0-.189.014-.447.027-.637l.638-.109-.394-1.329h-2.944l-.393 1.33.624.108c.027.19.041.448.041.637 0 .191-.014.448-.04.638h-2.687c-.014-.19-.027-.447-.027-.638 0-.189.013-.447.027-.637l.488-.109c.76-2.618 1.587-5.168 2.51-7.759h1.994c.91 2.591 1.723 5.141 2.483 7.76l.488.108c.014.19.027.448.027.637 0 .191-.013.448-.027.638zM78.706 97.665h-3.541c-.014-.189-.027-.447-.027-.638 0-.189.013-.447.027-.637l.923-.136v-6.32l-.923-.137c-.014-.19-.027-.447-.027-.637s.013-.448.027-.638h3.541c.013.19.026.448.026.638s-.013.447-.026.637l-.923.136v6.321l.923.136c.013.19.026.448.026.637 0 .191-.013.45-.026.638M83.1 97.8c-.827 0-1.817-.121-2.603-.46V95.4c.203-.028.515-.04.705-.04.203 0 .529.012.718.04l.136.854c.285.096.705.15 1.167.15.936 0 1.357-.394 1.357-1.126 0-1.668-4.03-1.465-4.03-4.206 0-1.722 1.357-2.685 3.337-2.685.706 0 1.533.08 2.157.244v2.048c-.203.027-.53.055-.718.055-.204 0-.557-.028-.76-.055l-.11-.841c-.203-.027-.542-.054-.827-.054-.99 0-1.315.42-1.315 1.099 0 1.438 4.029 1.37 4.029 4.178 0 1.722-1.275 2.74-3.242 2.74M96.76 97.665H93.33c-.013-.189-.027-.447-.027-.638 0-.189.014-.447.027-.637l.814-.136v-2.55H90.67v2.55l.814.136c.013.19.027.448.027.637 0 .191-.014.45-.027.638h-3.432c-.014-.189-.027-.447-.027-.638 0-.189.013-.447.027-.637l.923-.136v-6.32l-.923-.137c-.014-.19-.027-.447-.027-.637s.013-.448.027-.638h3.432c.013.19.027.448.027.638s-.014.447-.027.637l-.814.136v2.36h3.473v-2.36l-.814-.136c-.013-.19-.027-.447-.027-.637s.014-.448.027-.638h3.432c.014.19.027.448.027.638s-.013.447-.027.637l-.923.136v6.321l.923.136c.014.19.027.448.027.637 0 .191-.013.45-.027.638M102.037 97.665h-3.54c-.015-.189-.028-.447-.028-.638 0-.189.013-.447.027-.637l.923-.136v-6.32l-.923-.137c-.014-.19-.027-.447-.027-.637s.013-.448.027-.638h3.541c.013.19.026.448.026.638s-.013.447-.026.637l-.923.136v6.321l.923.136c.013.19.026.448.026.637 0 .191-.013.45-.026.638M112.387 89.797l-.814.136v7.665c-.42.08-1.113.135-1.546.135l-3.365-5.846c-.15-.258-.326-.665-.407-.99h-.122c.04.325.068.758.068 1.044v4.313l.8.136c.014.19.028.448.028.637 0 .19-.014.449-.028.638h-3.228c-.014-.19-.028-.447-.028-.638 0-.19.014-.447.028-.637l.923-.136v-6.321l-.923-.136c-.014-.19-.028-.447-.028-.637s.014-.448.028-.637h2.645l3.174 5.493c.149.258.313.637.42.977h.109c-.041-.3-.054-.76-.054-1.045v-4.015l-.773-.136c-.013-.19-.027-.447-.027-.637s.014-.448.027-.637h3.093c.014.189.026.447.026.637s-.012.448-.026.637M121.014 90.828c-.082-.285-.163-.624-.177-.827h-.122c-.013.203-.095.542-.177.827l-.854 2.835h2.184l-.854-2.835zm3.798 6.837h-2.808c-.013-.19-.027-.447-.027-.638 0-.189.014-.447.027-.637l.638-.109-.394-1.329h-2.944l-.393 1.33.624.108c.027.19.04.448.04.637 0 .191-.013.448-.04.638h-2.686c-.014-.19-.027-.447-.027-.638 0-.189.013-.447.027-.637l.488-.109c.76-2.618 1.587-5.168 2.51-7.759h1.994c.909 2.591 1.723 5.141 2.483 7.76l.488.108c.014.19.027.448.027.637 0 .191-.013.448-.027.638zM129.342 89.784c-.217 0-.705.013-.99.026v2.985h.99c1.004 0 1.56-.475 1.56-1.574 0-.99-.501-1.437-1.56-1.437zm4.057 7.067c0 .637-.394.95-1.073.95-.677 0-1.126-.272-1.532-1.099l-1.33-2.632h-1.112v2.184l.787.135c.027.191.04.45.04.638 0 .191-.013.448-.04.638h-3.364c-.014-.19-.028-.447-.028-.638 0-.189.014-.447.028-.638l.922-.135v-6.322l-.922-.135c-.014-.19-.028-.448-.028-.637 0-.19.014-.448.028-.638 1.207-.054 2.468-.082 3.486-.082 2.225 0 3.364.855 3.364 2.74 0 1.1-.596 2.022-1.573 2.388l1.18 2.252c.203.38.38.475.746.475h.42v.556zM141.348 90.611c-.19.027-.502.054-.706.054-.203 0-.542-.027-.732-.054l-.095-.719h-1.113v6.362l.91.135c.026.191.04.45.04.638 0 .19-.014.448-.04.638h-3.528c-.013-.19-.027-.448-.027-.638 0-.189.014-.447.027-.638l.922-.135v-6.362h-1.098l-.176.773c-.435 0-.937-.04-1.384-.109.014-.433.08-1.37.163-2.034h6.837v2.09zM145.39 97.8c-.828 0-1.818-.121-2.604-.46V95.4c.203-.028.515-.04.705-.04.203 0 .529.012.718.04l.136.854c.285.096.705.15 1.167.15.936 0 1.357-.394 1.357-1.126 0-1.668-4.03-1.465-4.03-4.206 0-1.722 1.357-2.685 3.337-2.685.706 0 1.533.08 2.157.244v2.048c-.203.027-.53.055-.718.055-.204 0-.557-.028-.76-.055l-.11-.841c-.203-.027-.542-.054-.827-.054-.99 0-1.315.42-1.315 1.099 0 1.438 4.029 1.37 4.029 4.178 0 1.722-1.275 2.74-3.242 2.74M157.462 90.828c-.082-.285-.163-.624-.177-.827h-.122c-.013.203-.095.542-.177.827l-.854 2.835h2.184l-.854-2.835zm3.798 6.837h-2.808c-.013-.19-.027-.447-.027-.638 0-.189.014-.447.027-.637l.638-.109-.394-1.329h-2.944l-.393 1.33.624.108c.027.19.04.448.04.637 0 .191-.013.448-.04.638h-2.686c-.014-.19-.027-.447-.027-.638 0-.189.013-.447.027-.637l.488-.109c.76-2.618 1.588-5.168 2.51-7.759h1.994c.909 2.591 1.723 5.141 2.483 7.76l.488.108c.014.19.027.448.027.637 0 .191-.013.448-.027.638zM173.658 89.797l-.719.136c-.502 2.578-1.072 5.182-1.682 7.732h-1.79l-1.602-5.97c-.067-.243-.135-.676-.162-1.03h-.108c-.028.354-.096.774-.164 1.045l-1.56 5.955h-1.817c-.61-2.55-1.18-5.141-1.668-7.732l-.72-.136c-.027-.19-.04-.447-.04-.637s.013-.448.04-.637h3.053c.013.189.027.447.027.637s-.014.448-.027.637l-.707.136.91 4.53c.068.34.122.8.135 1.113h.122c.028-.3.11-.787.191-1.098l1.56-5.955h1.586l1.561 5.94c.081.326.162.814.19 1.113h.121c.014-.312.07-.814.123-1.098l.922-4.545-.706-.136c-.013-.19-.026-.447-.026-.637s.013-.448.026-.637h2.931c.026.189.04.447.04.637s-.014.448-.04.637M178.216 90.828c-.082-.285-.163-.624-.177-.827h-.122c-.013.203-.095.542-.177.827l-.854 2.835h2.184l-.854-2.835zm3.798 6.837h-2.808c-.013-.19-.027-.447-.027-.638 0-.189.014-.447.027-.637l.638-.109-.394-1.329h-2.944l-.393 1.33.624.108c.027.19.04.448.04.637 0 .191-.013.448-.04.638h-2.686c-.014-.19-.027-.447-.027-.638 0-.189.013-.447.027-.637l.488-.109c.76-2.618 1.588-5.168 2.51-7.759h1.994c.909 2.591 1.723 5.141 2.483 7.76l.488.108c.014.19.027.448.027.637 0 .191-.013.448-.027.638zM186.544 89.784c-.217 0-.705.013-.99.026v2.985h.99c1.004 0 1.56-.475 1.56-1.574 0-.99-.501-1.437-1.56-1.437zm4.057 7.067c0 .637-.394.95-1.073.95-.677 0-1.126-.272-1.532-1.099l-1.33-2.632h-1.112v2.184l.787.135c.027.191.04.45.04.638 0 .191-.013.448-.04.638h-3.364c-.014-.19-.028-.447-.028-.638 0-.189.014-.447.028-.638l.922-.135v-6.322l-.922-.135c-.014-.19-.028-.448-.028-.637 0-.19.014-.448.028-.638 1.207-.054 2.468-.082 3.486-.082 2.225 0 3.364.855 3.364 2.74 0 1.1-.596 2.022-1.573 2.388l1.18 2.252c.203.38.38.475.746.475h.42v.556zM195.755 89.865c-.394 0-.787 0-1.234.014v6.43c.42.013.813.013 1.22.013 1.656 0 2.429-.95 2.429-3.283 0-2.509-1.072-3.174-2.415-3.174m-.136 7.881c-.813 0-2.496-.027-3.717-.08-.013-.19-.027-.448-.027-.639 0-.189.014-.447.027-.638l.923-.135v-6.322l-.923-.135c-.013-.19-.027-.448-.027-.637 0-.19.014-.448.027-.638 1.316-.054 2.863-.082 3.745-.082 2.577 0 4.313 1.276 4.313 4.6 0 3.174-1.723 4.706-4.341 4.706" mask="url(#prefix__b)"/>
    </g>
</svg>
