<?xml version="1.0" encoding="utf-8"?>
<!-- Generator: Adobe Illustrator 23.0.1, SVG Export Plug-In . SVG Version: 6.00 Build 0)  -->
<svg version="1.1" id="Layer_1" xmlns="http://www.w3.org/2000/svg" xmlns:xlink="http://www.w3.org/1999/xlink" x="0px" y="0px"
	 viewBox="0 0 50 50" style="enable-background:new 0 0 50 50;" xml:space="preserve">
<style type="text/css">
	.st0{fill:#FFFFFF;}
	.st1{filter:url(#Adobe_OpacityMaskFilter);}
	.st2{fill-rule:evenodd;clip-rule:evenodd;fill:#FFFFFF;}
	.st3{mask:url(#prefix__b_1_);}
</style>
<g transform="translate(4 5)">
	<g>
		<path class="st0" d="M13.9,17.6c0.8,0,1.6,0.1,2.4,0.3L13.2,21c-1.4,0.2-2.6,0.8-3.6,1.7l-3.8,3.8C4.6,27.8,4,29.3,4,30.9
			c0,1.6,0.6,3.1,1.8,4.3c1.1,1.1,2.7,1.8,4.3,1.8c1.6,0,3.1-0.6,4.3-1.8l3.8-3.8c1-1,1.6-2.3,1.8-3.8l3-3c0.2,0.8,0.3,1.6,0.3,2.5
			c0,2.5-1,4.9-2.8,6.7l-3.8,3.8c-1.8,1.8-4.2,2.8-6.7,2.8s-4.9-1-6.7-2.8c-1.8-1.8-2.8-4.2-2.8-6.7s1-4.9,2.8-6.7l3.8-3.8
			C9,18.6,11.4,17.6,13.9,17.6L13.9,17.6z M26.3,12.3l2.4,2.4L15.3,28.1l-2.4-2.4C12.9,25.7,26.3,12.3,26.3,12.3z M31.5,0
			c2.5,0,4.9,1,6.7,2.8C40,4.5,41,6.9,41,9.4c0,2.5-1,4.9-2.8,6.7l-3.8,3.8c-1.8,1.8-4.2,2.8-6.7,2.8c-0.9,0-1.7-0.1-2.5-0.3l3-3
			c1.4-0.1,2.7-0.7,3.8-1.8l3.8-3.8c1.1-1.1,1.8-2.7,1.8-4.3S37,6.3,35.8,5.1c-1.1-1.1-2.7-1.8-4.3-1.8c-1.6,0-3.1,0.6-4.3,1.8
			L23.4,9c-1,1-1.6,2.2-1.7,3.6l-3.1,3.1c-0.2-0.8-0.3-1.6-0.3-2.4c0-2.5,1-4.9,2.8-6.7l3.8-3.8C26.6,1,29,0,31.5,0z"/>
	</g>
	<defs>
		<filter id="Adobe_OpacityMaskFilter" filterUnits="userSpaceOnUse" x="-4" y="-5" width="50" height="50">
			<feColorMatrix  type="matrix" values="1 0 0 0 0  0 1 0 0 0  0 0 1 0 0  0 0 0 1 0"/>
		</filter>
	</defs>
	<mask maskUnits="userSpaceOnUse" x="-4" y="-5" width="50" height="50" id="prefix__b_1_">
		<g class="st1">
			<path id="prefix__a_1_" class="st2" d="M13.9,17.6c0.8,0,1.6,0.1,2.4,0.3L13.2,21c-1.4,0.2-2.6,0.8-3.6,1.7l-3.8,3.8
				C4.6,27.8,4,29.3,4,30.9c0,1.6,0.6,3.1,1.8,4.3c1.1,1.1,2.7,1.8,4.3,1.8c1.6,0,3.1-0.6,4.3-1.8l3.8-3.8c1-1,1.6-2.3,1.8-3.8l3-3
				c0.2,0.8,0.3,1.6,0.3,2.5c0,2.5-1,4.9-2.8,6.7l-3.8,3.8c-1.8,1.8-4.2,2.8-6.7,2.8s-4.9-1-6.7-2.8c-1.8-1.8-2.8-4.2-2.8-6.7
				s1-4.9,2.8-6.7l3.8-3.8C9,18.6,11.4,17.6,13.9,17.6L13.9,17.6z M26.3,12.3l2.4,2.4L15.3,28.1l-2.4-2.4
				C12.9,25.7,26.3,12.3,26.3,12.3z M31.5,0c2.5,0,4.9,1,6.7,2.8C40,4.5,41,6.9,41,9.4c0,2.5-1,4.9-2.8,6.7l-3.8,3.8
				c-1.8,1.8-4.2,2.8-6.7,2.8c-0.9,0-1.7-0.1-2.5-0.3l3-3c1.4-0.1,2.7-0.7,3.8-1.8l3.8-3.8c1.1-1.1,1.8-2.7,1.8-4.3S37,6.3,35.8,5.1
				c-1.1-1.1-2.7-1.8-4.3-1.8c-1.6,0-3.1,0.6-4.3,1.8L23.4,9c-1,1-1.6,2.2-1.7,3.6l-3.1,3.1c-0.2-0.8-0.3-1.6-0.3-2.4
				c0-2.5,1-4.9,2.8-6.7l3.8-3.8C26.6,1,29,0,31.5,0z"/>
		</g>
	</mask>
	<g class="st3">
		<path class="st2" d="M-4-5h50v50H-4V-5z"/>
	</g>
</g>
</svg>
