<?xml version="1.0" encoding="utf-8"?>
<!-- Generator: Adobe Illustrator 23.1.0, SVG Export Plug-In . SVG Version: 6.00 Build 0)  -->
<svg version="1.1" id="Layer_1" xmlns="http://www.w3.org/2000/svg" xmlns:xlink="http://www.w3.org/1999/xlink" x="0px" y="0px"
	 viewBox="0 0 43 43" style="enable-background:new 0 0 43 43;" xml:space="preserve">
<style type="text/css">
	.st0{fill:#D5D4D6;}
</style>
<path class="st0" d="M21.5,0C33.4,0,43,9.6,43,21.5S33.4,43,21.5,43S0,33.4,0,21.5S9.6,0,21.5,0z M10.1,17.4H8.7H8.6
	c-0.2,0-0.3,0.2-0.3,0.4v8.3v0.1c0,0.1,0.1,0.1,0.1,0.2l0,0c0.1,0.1,0.2,0.1,0.3,0.1h5.4h0.1c0.2,0,0.3-0.2,0.3-0.4v-1.3v-0.1
	c0-0.2-0.2-0.3-0.4-0.3h-3.6v-6.6v-0.1C10.4,17.5,10.3,17.4,10.1,17.4z M34,17.4h-5.4h-0.1c-0.1,0-0.1,0-0.2,0.1l0,0v0.1
	c0,0,0,0.1-0.1,0.1v0.1v8.3v0.1c0,0.1,0,0.1,0.1,0.2l0,0h0.1c0,0,0.1,0,0.1,0.1h0.1H34h0.1c0.2,0,0.3-0.2,0.3-0.4v-1.3v-0.1
	c0-0.2-0.2-0.3-0.4-0.3h-3.6V23H34h0.1c0.2,0,0.3-0.2,0.3-0.4v-1.3v-0.1c0-0.2-0.2-0.3-0.4-0.3h-3.6v-1.4H34h0.1
	c0.2,0,0.3-0.2,0.3-0.4v-1.3v-0.1C34.3,17.5,34.1,17.4,34,17.4z M17.3,17.4H16h-0.1c-0.2,0-0.3,0.2-0.3,0.4v8.3v0.1
	c0,0.2,0.2,0.3,0.4,0.3h1.3h0.1c0.2,0,0.3-0.2,0.3-0.4v-8.3v-0.1C17.7,17.5,17.5,17.4,17.3,17.4z M20.7,17.4h-1.4h-0.1
	c-0.2,0-0.3,0.2-0.3,0.4v8.3v0.1c0,0.2,0.2,0.3,0.4,0.3h1.3h0.1c0.2,0,0.3-0.2,0.3-0.4v-4.9l3.8,5.2l0,0h0.1l0,0l0,0l0,0l0,0l0,0
	l0,0l0,0l0,0h1.3h0.1c0.2,0,0.3-0.2,0.3-0.4v-8.3v-0.1c0-0.2-0.2-0.3-0.4-0.3h-1.3h-0.1c-0.2,0-0.3,0.2-0.3,0.4v4.9L21,17.5l0,0l0,0
	l0,0l0,0l0,0l0,0l0,0l0,0l0,0l0,0L20.7,17.4L20.7,17.4L20.7,17.4L20.7,17.4L20.7,17.4C20.8,17.4,20.7,17.4,20.7,17.4z"/>
</svg>
