<svg xmlns="http://www.w3.org/2000/svg" xmlns:xlink="http://www.w3.org/1999/xlink" width="43" height="43" viewBox="0 0 43 43">
    <defs>
        <path id="prefix__a" d="M21.5 0C33.374 0 43 9.626 43 21.5S33.374 43 21.5 43 0 33.374 0 21.5 9.626 0 21.5 0zM10.073 17.374H8.732l-.075.007c-.17.035-.298.185-.298.365v8.33l.008.072c.014.071.05.136.101.19l.003.003c.07.066.16.106.26.106h5.358l.075-.007c.17-.035.296-.186.296-.365v-1.341l-.007-.075c-.035-.17-.185-.298-.364-.298h-3.644v-6.615l-.008-.075c-.034-.17-.184-.297-.364-.297zm23.882 0h-5.357l-.073.007c-.071.015-.135.05-.185.098l-.01.01-.043.055c-.026.038-.044.082-.053.13l-.007.072v8.33l.007.073c.014.07.048.134.097.184l.01.01.054.043c.04.026.083.044.13.054l.074.007h5.356l.075-.007c.17-.035.298-.185.298-.365v-1.341l-.008-.075c-.035-.17-.185-.298-.365-.298h-3.643v-1.408h3.643l.075-.007c.17-.035.298-.185.298-.365v-1.34l-.008-.076c-.035-.17-.185-.298-.365-.298h-3.643V19.46h3.643l.075-.008c.17-.034.298-.185.298-.364v-1.342l-.008-.075c-.035-.17-.185-.297-.365-.297zm-16.634 0H15.98l-.075.008c-.17.034-.298.184-.298.364v8.33l.008.074c.035.17.185.297.365.297h1.34l.076-.008c.17-.034.297-.184.297-.363v-8.33l-.007-.075c-.035-.17-.185-.297-.365-.297zm3.402 0h-1.354l-.075.008c-.17.034-.297.184-.297.364v8.33l.007.074c.035.17.185.297.365.297h1.34l.076-.008c.17-.034.298-.184.298-.363v-4.948l3.822 5.162.043.05.051.042.027.017.01.006.018.008.01.004c.012.006.016.007.02.008l.03.01.047.009.05.003h1.34l.075-.008c.17-.034.297-.184.297-.363v-8.33l-.007-.075c-.035-.17-.185-.297-.366-.297h-1.34l-.075.008c-.17.034-.298.184-.298.364v4.949l-3.817-5.156-.014-.019-.015-.018-.025-.026-.007-.006-.03-.024-.024-.017-.026-.014-.011-.006-.022-.01-.023-.007-.01-.004-.014-.003-.021-.004-.016-.003-.01-.001-.029-.003z"/>
    </defs>
    <g fill="none" fill-rule="evenodd">
        <mask id="prefix__b" fill="#fff">
            <use xlink:href="#prefix__a"/>
        </mask>
        <use fill="#111" fill-rule="nonzero" xlink:href="#prefix__a"/>
        <g fill="#D5D4D6" mask="url(#prefix__b)">
            <path d="M0 0H43V43H0z"/>
        </g>
    </g>
</svg>
