<?xml version="1.0" encoding="utf-8"?>
<!-- Generator: Adobe Illustrator 23.1.0, SVG Export Plug-In . SVG Version: 6.00 Build 0)  -->
<svg version="1.1" id="Layer_1" xmlns="http://www.w3.org/2000/svg" xmlns:xlink="http://www.w3.org/1999/xlink" x="0px" y="0px"
	 viewBox="0 0 43 43" style="enable-background:new 0 0 43 43;" xml:space="preserve">
<style type="text/css">
	.st0{display:none;}
	.st1{display:inline;fill:#111111;}
	.st2{filter:url(#Adobe_OpacityMaskFilter);}
	.st3{fill-rule:evenodd;clip-rule:evenodd;fill:#FFFFFF;}
	.st4{mask:url(#prefix__b_1_);}
	.st5{fill-rule:evenodd;clip-rule:evenodd;fill:#D5D4D6;}
</style>
<g>
	<g class="st0">
		<path class="st1" d="M21.5,0C33.4,0,43,9.6,43,21.5S33.4,43,21.5,43S0,33.4,0,21.5S9.6,0,21.5,0z M10.1,17.4H8.7l-0.1,0
			c-0.2,0-0.3,0.2-0.3,0.4v8.3l0,0.1c0,0.1,0.1,0.1,0.1,0.2l0,0c0.1,0.1,0.2,0.1,0.3,0.1h5.4l0.1,0c0.2,0,0.3-0.2,0.3-0.4v-1.3
			l0-0.1c0-0.2-0.2-0.3-0.4-0.3h-3.6v-6.6l0-0.1C10.4,17.5,10.3,17.4,10.1,17.4z M34,17.4h-5.4l-0.1,0c-0.1,0-0.1,0-0.2,0.1l0,0
			l0,0.1c0,0,0,0.1-0.1,0.1l0,0.1v8.3l0,0.1c0,0.1,0,0.1,0.1,0.2l0,0l0.1,0c0,0,0.1,0,0.1,0.1l0.1,0H34l0.1,0c0.2,0,0.3-0.2,0.3-0.4
			v-1.3l0-0.1c0-0.2-0.2-0.3-0.4-0.3h-3.6V23H34l0.1,0c0.2,0,0.3-0.2,0.3-0.4v-1.3l0-0.1c0-0.2-0.2-0.3-0.4-0.3h-3.6v-1.4H34l0.1,0
			c0.2,0,0.3-0.2,0.3-0.4v-1.3l0-0.1C34.3,17.5,34.1,17.4,34,17.4z M17.3,17.4H16l-0.1,0c-0.2,0-0.3,0.2-0.3,0.4v8.3l0,0.1
			c0,0.2,0.2,0.3,0.4,0.3h1.3l0.1,0c0.2,0,0.3-0.2,0.3-0.4v-8.3l0-0.1C17.7,17.5,17.5,17.4,17.3,17.4z M20.7,17.4h-1.4l-0.1,0
			c-0.2,0-0.3,0.2-0.3,0.4v8.3l0,0.1c0,0.2,0.2,0.3,0.4,0.3h1.3l0.1,0c0.2,0,0.3-0.2,0.3-0.4v-4.9l3.8,5.2l0,0l0.1,0l0,0l0,0l0,0
			l0,0c0,0,0,0,0,0l0,0l0,0l0,0h1.3l0.1,0c0.2,0,0.3-0.2,0.3-0.4v-8.3l0-0.1c0-0.2-0.2-0.3-0.4-0.3h-1.3l-0.1,0
			c-0.2,0-0.3,0.2-0.3,0.4v4.9L21,17.5l0,0l0,0l0,0l0,0l0,0l0,0l0,0l0,0l0,0l0,0L20.7,17.4L20.7,17.4L20.7,17.4L20.7,17.4L20.7,17.4
			C20.8,17.4,20.7,17.4,20.7,17.4z"/>
	</g>
	<defs>
		<filter id="Adobe_OpacityMaskFilter" filterUnits="userSpaceOnUse" x="0" y="0" width="43" height="43">
			<feColorMatrix  type="matrix" values="1 0 0 0 0  0 1 0 0 0  0 0 1 0 0  0 0 0 1 0"/>
		</filter>
	</defs>
	<mask maskUnits="userSpaceOnUse" x="0" y="0" width="43" height="43" id="prefix__b_1_">
		<g class="st2">
			<path id="prefix__a_1_" class="st3" d="M21.5,0C33.4,0,43,9.6,43,21.5S33.4,43,21.5,43S0,33.4,0,21.5S9.6,0,21.5,0z M10.1,17.4
				H8.7l-0.1,0c-0.2,0-0.3,0.2-0.3,0.4v8.3l0,0.1c0,0.1,0.1,0.1,0.1,0.2l0,0c0.1,0.1,0.2,0.1,0.3,0.1h5.4l0.1,0
				c0.2,0,0.3-0.2,0.3-0.4v-1.3l0-0.1c0-0.2-0.2-0.3-0.4-0.3h-3.6v-6.6l0-0.1C10.4,17.5,10.3,17.4,10.1,17.4z M34,17.4h-5.4l-0.1,0
				c-0.1,0-0.1,0-0.2,0.1l0,0l0,0.1c0,0,0,0.1-0.1,0.1l0,0.1v8.3l0,0.1c0,0.1,0,0.1,0.1,0.2l0,0l0.1,0c0,0,0.1,0,0.1,0.1l0.1,0H34
				l0.1,0c0.2,0,0.3-0.2,0.3-0.4v-1.3l0-0.1c0-0.2-0.2-0.3-0.4-0.3h-3.6V23H34l0.1,0c0.2,0,0.3-0.2,0.3-0.4v-1.3l0-0.1
				c0-0.2-0.2-0.3-0.4-0.3h-3.6v-1.4H34l0.1,0c0.2,0,0.3-0.2,0.3-0.4v-1.3l0-0.1C34.3,17.5,34.1,17.4,34,17.4z M17.3,17.4H16l-0.1,0
				c-0.2,0-0.3,0.2-0.3,0.4v8.3l0,0.1c0,0.2,0.2,0.3,0.4,0.3h1.3l0.1,0c0.2,0,0.3-0.2,0.3-0.4v-8.3l0-0.1
				C17.7,17.5,17.5,17.4,17.3,17.4z M20.7,17.4h-1.4l-0.1,0c-0.2,0-0.3,0.2-0.3,0.4v8.3l0,0.1c0,0.2,0.2,0.3,0.4,0.3h1.3l0.1,0
				c0.2,0,0.3-0.2,0.3-0.4v-4.9l3.8,5.2l0,0l0.1,0l0,0l0,0l0,0l0,0c0,0,0,0,0,0l0,0l0,0l0,0h1.3l0.1,0c0.2,0,0.3-0.2,0.3-0.4v-8.3
				l0-0.1c0-0.2-0.2-0.3-0.4-0.3h-1.3l-0.1,0c-0.2,0-0.3,0.2-0.3,0.4v4.9L21,17.5l0,0l0,0l0,0l0,0l0,0l0,0l0,0l0,0l0,0l0,0
				L20.7,17.4L20.7,17.4L20.7,17.4L20.7,17.4L20.7,17.4C20.8,17.4,20.7,17.4,20.7,17.4z"/>
		</g>
	</mask>
	<g class="st4">
		<path class="st5" d="M0,0h43v43H0V0z"/>
	</g>
</g>
</svg>
