<?xml version="1.0" encoding="utf-8"?>
<!-- Generator: Adobe Illustrator 23.0.1, SVG Export Plug-In . SVG Version: 6.00 Build 0)  -->
<svg version="1.1" id="Layer_1" xmlns="http://www.w3.org/2000/svg" xmlns:xlink="http://www.w3.org/1999/xlink" x="0px" y="0px"
	 viewBox="0 0 261 45" style="enable-background:new 0 0 261 45;" xml:space="preserve">
<style type="text/css">
	.st0{fill-rule:evenodd;clip-rule:evenodd;fill:#FFFFFF;}
	.st1{filter:url(#Adobe_OpacityMaskFilter);}
	.st2{mask:url(#prefix__b_1_);fill-rule:evenodd;clip-rule:evenodd;fill:#FFFFFF;}
	.st3{filter:url(#Adobe_OpacityMaskFilter_1_);}
	.st4{mask:url(#prefix__d_1_);fill-rule:evenodd;clip-rule:evenodd;fill:#FFFFFF;}
	.st5{filter:url(#Adobe_OpacityMaskFilter_2_);}
	.st6{mask:url(#prefix__d_2_);fill-rule:evenodd;clip-rule:evenodd;fill:#FFE61A;fill-opacity:0.5;}
</style>
<path class="st0" d="M9.9,5.1C9.7,5.1,9.3,5.1,9,5.1c-0.3,0-0.7,0-0.9-0.1L7.9,4.2H6.5v8.1l1.2,0.2c0,0.2,0.1,0.6,0.1,0.8
	c0,0.2,0,0.6-0.1,0.8H3.1c0-0.2,0-0.6,0-0.8c0-0.2,0-0.6,0-0.8l1.2-0.2V4.2H2.9l-0.2,1C2.1,5.1,1.5,5.1,0.9,5c0-0.6,0.1-1.7,0.2-2.6
	h8.9V5.1L9.9,5.1z M23,14h-4.4c0-0.2,0-0.6,0-0.8c0-0.2,0-0.6,0-0.8l1.1-0.2V9h-4.5v3.2l1.1,0.2c0,0.2,0,0.6,0,0.8
	c0,0.2,0,0.6,0,0.8h-4.4c0-0.2,0-0.6,0-0.8c0-0.2,0-0.6,0-0.8l1.2-0.2v-8L11.7,4c0-0.2,0-0.6,0-0.8c0-0.2,0-0.6,0-0.8h4.4
	c0,0.2,0,0.6,0,0.8c0,0.2,0,0.6,0,0.8l-1.1,0.2v3h4.5v-3L18.6,4c0-0.2,0-0.6,0-0.8c0-0.2,0-0.6,0-0.8H23c0,0.2,0,0.6,0,0.8
	c0,0.2,0,0.6,0,0.8l-1.2,0.2v8l1.2,0.2c0,0.2,0,0.6,0,0.8C23,13.5,23,13.8,23,14 M33.9,14h-8.6c0-0.2,0-0.6,0-0.8c0-0.2,0-0.6,0-0.8
	l1.2-0.2v-8L25.3,4c0-0.2,0-0.6,0-0.8c0-0.2,0-0.6,0-0.8h8.5v2.7c-0.2,0-0.7,0.1-0.9,0.1c-0.3,0-0.7,0-1-0.1l-0.2-0.9h-3.1v3h3.7
	c0,0.6-0.1,1.2-0.1,1.8h-3.6v3.3h3.2l0.2-1.1c0.2,0,0.7-0.1,1-0.1c0.2,0,0.7,0,0.9,0.1L33.9,14L33.9,14z M48.3,14h-7.2
	c0-0.3-0.1-0.6-0.1-0.9s0-0.6,0.1-0.9h3.1V4.3l-2.8,0.4c-0.1-0.5-0.2-1.2-0.2-1.7l3.1-0.6h1.9v9.8h2.2C48.4,12.7,48.4,13.5,48.3,14
	 M54.6,3.9c-0.9,0-1.4,0.6-1.4,1.4c0,0.9,0.5,1.6,1.6,1.9C55.5,6.9,56,6.1,56,5.3C56,4.4,55.5,3.9,54.6,3.9 M54.4,8.8
	C53.6,9.1,53,9.9,53,10.9c0,1,0.4,1.7,1.6,1.7c1.2,0,1.6-0.6,1.6-1.7C56.2,9.8,55.5,9.2,54.4,8.8 M54.5,14.2c-2,0-3.6-0.9-3.6-3.2
	c0-1.2,0.6-2.2,1.9-2.9c-1.2-0.7-1.7-1.6-1.7-2.8c0-2.1,1.4-3.2,3.5-3.2c2.1,0,3.4,1,3.4,2.9c0,1.1-0.7,2-1.8,2.6c1.3,0.7,2,1.7,2,3
	C58.3,12.9,56.9,14.2,54.5,14.2 M62.1,8.4c-1.2,0-1.7-0.5-1.7-1.7V4.1h-0.6v-1h0.6V2c0.3-0.1,0.8-0.2,1.2-0.2v1.3H63
	c0,0.3,0,0.7-0.1,1h-1.3v2.6c0,0.5,0.2,0.7,0.6,0.7c0.2,0,0.6-0.1,0.8-0.2c0.1,0.3,0.1,0.7,0.2,1C62.9,8.3,62.4,8.4,62.1,8.4"/>
<g transform="translate(63.762 .782)">
	<defs>
		<filter id="Adobe_OpacityMaskFilter" filterUnits="userSpaceOnUse" x="0.4" y="0.1" width="5.6" height="7.5">
			<feColorMatrix  type="matrix" values="1 0 0 0 0  0 1 0 0 0  0 0 1 0 0  0 0 0 1 0"/>
		</filter>
	</defs>
	<mask maskUnits="userSpaceOnUse" x="0.4" y="0.1" width="5.6" height="7.5" id="prefix__b_1_">
		<g class="st1">
			<path id="prefix__a_1_" class="st0" d="M0.4,0.1H6v7.5H0.4V0.1z"/>
		</g>
	</mask>
	<path class="st2" d="M6,7.5H3.7c0-0.1,0-0.3,0-0.5c0-0.1,0-0.3,0-0.4l0.5-0.1V3.9c0-0.4-0.2-0.7-0.8-0.7C3,3.2,2.6,3.3,2.2,3.6v3
		l0.5,0.1c0,0.1,0,0.3,0,0.4c0,0.1,0,0.3,0,0.5H0.4c0-0.1,0-0.3,0-0.5c0-0.1,0-0.3,0-0.4l0.7-0.1V1.1L0.4,1c0-0.1,0-0.3,0-0.4
		c0-0.1,0-0.3,0-0.4C1,0.1,1.7,0.1,2.3,0.1l0,1.1v1.7h0.1c0.5-0.4,0.9-0.6,1.5-0.6c0.9,0,1.5,0.5,1.5,1.6v2.8L6,6.6
		c0,0.1,0,0.3,0,0.4C6,7.2,6,7.4,6,7.5"/>
</g>
<path class="st0" d="M84.5,5.1c-0.2,0-0.7,0.1-0.9,0.1c-0.3,0-0.7,0-0.9-0.1l-0.1-0.9H81v8.1l1.2,0.2c0,0.2,0.1,0.6,0.1,0.8
	c0,0.2,0,0.6-0.1,0.8h-4.6c0-0.2,0-0.6,0-0.8c0-0.2,0-0.6,0-0.8l1.2-0.2V4.2h-1.4l-0.2,1c-0.6,0-1.2-0.1-1.8-0.1
	c0-0.6,0.1-1.7,0.2-2.6h8.9L84.5,5.1L84.5,5.1z M90.1,5.4C90,5,89.9,4.6,89.9,4.3h-0.2c0,0.3-0.1,0.7-0.2,1.1L88.4,9h2.8L90.1,5.4z
	 M95,14h-3.6c0-0.2,0-0.6,0-0.8c0-0.2,0-0.6,0-0.8l0.8-0.1l-0.5-1.7h-3.8l-0.5,1.7l0.8,0.1c0,0.2,0.1,0.6,0.1,0.8
	c0,0.2,0,0.6-0.1,0.8h-3.5c0-0.2,0-0.6,0-0.8c0-0.2,0-0.6,0-0.8l0.6-0.1c1-3.3,2.1-6.6,3.2-9.8h2.6c1.2,3.3,2.2,6.5,3.2,9.8l0.6,0.1
	c0,0.2,0,0.6,0,0.8C95,13.5,95,13.8,95,14z M101.4,14h-4.6c0-0.2,0-0.6,0-0.8c0-0.2,0-0.6,0-0.8l1.2-0.2v-8L96.8,4
	c0-0.2,0-0.6,0-0.8c0-0.2,0-0.6,0-0.8h4.6c0,0.2,0,0.6,0,0.8c0,0.2,0,0.6,0,0.8l-1.2,0.2v8l1.2,0.2c0,0.2,0,0.6,0,0.8
	C101.4,13.5,101.4,13.8,101.4,14 M107.4,14.2c-1.1,0-2.4-0.2-3.4-0.6v-2.5c0.3,0,0.7-0.1,0.9-0.1c0.3,0,0.7,0,0.9,0.1l0.2,1.1
	c0.4,0.1,0.9,0.2,1.5,0.2c1.2,0,1.8-0.5,1.8-1.4c0-2.1-5.2-1.9-5.2-5.3c0-2.2,1.8-3.4,4.3-3.4c0.9,0,2,0.1,2.8,0.3v2.6
	c-0.3,0-0.7,0.1-0.9,0.1c-0.3,0-0.7,0-1-0.1l-0.1-1.1c-0.3,0-0.7-0.1-1.1-0.1c-1.3,0-1.7,0.5-1.7,1.4c0,1.8,5.2,1.7,5.2,5.3
	C111.6,12.9,110,14.2,107.4,14.2 M125.1,14h-4.4c0-0.2,0-0.6,0-0.8c0-0.2,0-0.6,0-0.8l1.1-0.2V9h-4.5v3.2l1.1,0.2c0,0.2,0,0.6,0,0.8
	c0,0.2,0,0.6,0,0.8h-4.4c0-0.2,0-0.6,0-0.8c0-0.2,0-0.6,0-0.8l1.2-0.2v-8L113.9,4c0-0.2,0-0.6,0-0.8c0-0.2,0-0.6,0-0.8h4.4
	c0,0.2,0,0.6,0,0.8c0,0.2,0,0.6,0,0.8l-1.1,0.2v3h4.5v-3L120.7,4c0-0.2,0-0.6,0-0.8c0-0.2,0-0.6,0-0.8h4.4c0,0.2,0,0.6,0,0.8
	c0,0.2,0,0.6,0,0.8l-1.2,0.2v8l1.2,0.2c0,0.2,0,0.6,0,0.8C125.2,13.5,125.2,13.8,125.1,14 M132,14h-4.6c0-0.2,0-0.6,0-0.8
	c0-0.2,0-0.6,0-0.8l1.2-0.2v-8L127.4,4c0-0.2,0-0.6,0-0.8c0-0.2,0-0.6,0-0.8h4.6c0,0.2,0,0.6,0,0.8c0,0.2,0,0.6,0,0.8l-1.2,0.2v8
	l1.2,0.2c0,0.2,0,0.6,0,0.8C132,13.5,132,13.8,132,14 M145.4,4l-1.1,0.2v9.7c-0.5,0.1-1.4,0.2-2,0.2L138,6.7
	c-0.2-0.3-0.4-0.8-0.5-1.3h-0.2c0.1,0.4,0.1,1,0.1,1.3v5.5l1,0.2c0,0.2,0,0.6,0,0.8c0,0.2,0,0.6,0,0.8h-4.2c0-0.2,0-0.6,0-0.8
	c0-0.2,0-0.6,0-0.8l1.2-0.2v-8L134.2,4c0-0.2,0-0.6,0-0.8c0-0.2,0-0.6,0-0.8h3.4l4.1,7c0.2,0.3,0.4,0.8,0.5,1.2h0.1
	c-0.1-0.4-0.1-1-0.1-1.3V4.2l-1-0.2c0-0.2,0-0.6,0-0.8c0-0.2,0-0.6,0-0.8h4c0,0.2,0,0.6,0,0.8C145.4,3.5,145.4,3.8,145.4,4
	 M156.5,5.4c-0.1-0.4-0.2-0.8-0.2-1.1h-0.2c0,0.3-0.1,0.7-0.2,1.1L154.8,9h2.8L156.5,5.4L156.5,5.4z M161.5,14h-3.6
	c0-0.2,0-0.6,0-0.8c0-0.2,0-0.6,0-0.8l0.8-0.1l-0.5-1.7h-3.8l-0.5,1.7l0.8,0.1c0,0.2,0.1,0.6,0.1,0.8c0,0.2,0,0.6-0.1,0.8h-3.5
	c0-0.2,0-0.6,0-0.8c0-0.2,0-0.6,0-0.8l0.6-0.1c1-3.3,2.1-6.6,3.3-9.8h2.6c1.2,3.3,2.2,6.5,3.2,9.8l0.6,0.1c0,0.2,0,0.6,0,0.8
	C161.5,13.5,161.5,13.8,161.5,14L161.5,14z M167.3,4c-0.3,0-0.9,0-1.3,0v3.8h1.3c1.3,0,2-0.6,2-2C169.4,4.6,168.7,4,167.3,4z
	 M172.6,13c0,0.8-0.5,1.2-1.4,1.2s-1.5-0.3-2-1.4l-1.7-3.3h-1.4v2.8l1,0.2c0,0.2,0.1,0.6,0.1,0.8c0,0.2,0,0.6-0.1,0.8h-4.4
	c0-0.2,0-0.6,0-0.8c0-0.2,0-0.6,0-0.8l1.2-0.2v-8L162.7,4c0-0.2,0-0.6,0-0.8c0-0.2,0-0.6,0-0.8c1.6-0.1,3.2-0.1,4.5-0.1
	c2.9,0,4.4,1.1,4.4,3.5c0,1.4-0.8,2.6-2,3l1.5,2.9c0.3,0.5,0.5,0.6,1,0.6h0.5L172.6,13L172.6,13z M182.9,5.1c-0.2,0-0.6,0.1-0.9,0.1
	s-0.7,0-0.9-0.1l-0.1-0.9h-1.4v8.1l1.2,0.2c0,0.2,0.1,0.6,0.1,0.8c0,0.2,0,0.6-0.1,0.8h-4.6c0-0.2,0-0.6,0-0.8c0-0.2,0-0.6,0-0.8
	l1.2-0.2V4.2h-1.4l-0.2,1c-0.6,0-1.2-0.1-1.8-0.1c0-0.6,0.1-1.7,0.2-2.6h8.9L182.9,5.1L182.9,5.1z M188.1,14.2
	c-1.1,0-2.4-0.2-3.4-0.6v-2.5c0.3,0,0.7-0.1,0.9-0.1c0.3,0,0.7,0,0.9,0.1l0.2,1.1c0.4,0.1,0.9,0.2,1.5,0.2c1.2,0,1.8-0.5,1.8-1.4
	c0-2.1-5.2-1.9-5.2-5.3c0-2.2,1.8-3.4,4.3-3.4c0.9,0,2,0.1,2.8,0.3v2.6c-0.3,0-0.7,0.1-0.9,0.1c-0.3,0-0.7,0-1-0.1l-0.1-1.1
	c-0.3,0-0.7-0.1-1.1-0.1c-1.3,0-1.7,0.5-1.7,1.4c0,1.8,5.2,1.7,5.2,5.3C192.3,12.9,190.7,14.2,188.1,14.2 M203.7,5.4
	c-0.1-0.4-0.2-0.8-0.2-1.1h-0.2c0,0.3-0.1,0.7-0.2,1.1L202,9h2.8C204.9,9,203.7,5.4,203.7,5.4z M208.7,14H205c0-0.2,0-0.6,0-0.8
	c0-0.2,0-0.6,0-0.8l0.8-0.1l-0.5-1.7h-3.8l-0.5,1.7l0.8,0.1c0,0.2,0.1,0.6,0.1,0.8c0,0.2,0,0.6-0.1,0.8h-3.5c0-0.2,0-0.6,0-0.8
	c0-0.2,0-0.6,0-0.8l0.6-0.1c1-3.3,2.1-6.6,3.3-9.8h2.6c1.2,3.3,2.2,6.5,3.2,9.8l0.6,0.1c0,0.2,0,0.6,0,0.8
	C208.7,13.5,208.7,13.8,208.7,14L208.7,14z M224.7,4l-0.9,0.2c-0.6,3.3-1.4,6.6-2.2,9.8h-2.3l-2.1-7.6c-0.1-0.3-0.2-0.9-0.2-1.3
	h-0.1c0,0.4-0.1,1-0.2,1.3l-2,7.6h-2.4c-0.8-3.2-1.5-6.5-2.2-9.8L209.2,4c0-0.2-0.1-0.6-0.1-0.8c0-0.2,0-0.6,0.1-0.8h4
	c0,0.2,0,0.6,0,0.8c0,0.2,0,0.6,0,0.8l-0.9,0.2l1.2,5.8c0.1,0.4,0.2,1,0.2,1.4h0.2c0-0.4,0.1-1,0.2-1.4l2-7.6h2.1l2,7.5
	c0.1,0.4,0.2,1,0.2,1.4h0.2c0-0.4,0.1-1,0.2-1.4l1.2-5.8L220.9,4c0-0.2,0-0.6,0-0.8c0-0.2,0-0.6,0-0.8h3.8c0,0.2,0.1,0.6,0.1,0.8
	C224.8,3.5,224.8,3.8,224.7,4 M230.6,5.4c-0.1-0.4-0.2-0.8-0.2-1.1h-0.2c0,0.3-0.1,0.7-0.2,1.1L228.9,9h2.8L230.6,5.4L230.6,5.4z
	 M235.5,14h-3.6c0-0.2,0-0.6,0-0.8c0-0.2,0-0.6,0-0.8l0.8-0.1l-0.5-1.7h-3.8l-0.5,1.7l0.8,0.1c0,0.2,0.1,0.6,0.1,0.8
	c0,0.2,0,0.6-0.1,0.8h-3.5c0-0.2,0-0.6,0-0.8c0-0.2,0-0.6,0-0.8l0.6-0.1c1-3.3,2.1-6.6,3.2-9.8h2.6c1.2,3.3,2.2,6.5,3.2,9.8l0.6,0.1
	c0,0.2,0,0.6,0,0.8C235.6,13.5,235.6,13.8,235.5,14z M241.4,4c-0.3,0-0.9,0-1.3,0v3.8h1.3c1.3,0,2-0.6,2-2
	C243.4,4.6,242.8,4,241.4,4z M246.7,13c0,0.8-0.5,1.2-1.4,1.2s-1.5-0.3-2-1.4l-1.7-3.3h-1.4v2.8l1,0.2c0,0.2,0.1,0.6,0.1,0.8
	c0,0.2,0,0.6-0.1,0.8h-4.4c0-0.2,0-0.6,0-0.8c0-0.2,0-0.6,0-0.8l1.2-0.2v-8L236.8,4c0-0.2,0-0.6,0-0.8c0-0.2,0-0.6,0-0.8
	c1.6-0.1,3.2-0.1,4.5-0.1c2.9,0,4.4,1.1,4.4,3.5c0,1.4-0.8,2.6-2,3l1.5,2.9c0.3,0.5,0.5,0.6,1,0.6h0.5L246.7,13L246.7,13z
	 M253.7,4.1c-0.5,0-1,0-1.6,0v8.2c0.5,0,1.1,0,1.6,0c2.1,0,3.1-1.2,3.1-4.2C256.9,5,255.5,4.1,253.7,4.1 M253.6,14.1
	c-1.1,0-3.2,0-4.8-0.1c0-0.2,0-0.6,0-0.8c0-0.2,0-0.6,0-0.8l1.2-0.2v-8L248.7,4c0-0.2,0-0.6,0-0.8c0-0.2,0-0.6,0-0.8
	c1.7-0.1,3.7-0.1,4.8-0.1c3.3,0,5.6,1.6,5.6,5.8C259.2,12.2,256.9,14.1,253.6,14.1"/>
<defs>
	<filter id="Adobe_OpacityMaskFilter_1_" filterUnits="userSpaceOnUse" x="0.8" y="29.4" width="259.9" height="15.5">
		<feColorMatrix  type="matrix" values="1 0 0 0 0  0 1 0 0 0  0 0 1 0 0  0 0 0 1 0"/>
	</filter>
</defs>
<mask maskUnits="userSpaceOnUse" x="0.8" y="29.4" width="259.9" height="15.5" id="prefix__d_1_">
	<g class="st3">
		<path id="prefix__c_1_" class="st0" d="M0,44.9h260.7V0.8H0V44.9z"/>
	</g>
</mask>
<path class="st4" d="M123.3,42.5h6.6v-3.5h-6.6V42.5L123.3,42.5z M129.9,44.6c0-0.1,0-0.6,0.1-0.7h-6.6c0,0.3,0,0.3,0,0.7h-1.8
	c0.1-1.4,0.1-1.8,0.1-2.5v-2.2c0-1-0.1-1.6-0.1-2.4c0.5,0,2.4,0.1,3.6,0.1h2.8c1.1,0,1.9,0,3.6-0.2c0,0.5-0.1,2.5-0.1,2.6v2
	c0,0.2,0,1.3,0.1,2.6H129.9L129.9,44.6z M132.7,37.1c-0.3-0.6-0.7-1.1-1.1-1.7c-1.5,0.1-4.3,0.3-4.7,0.3c-1,0.1-5.6,0.3-6.5,0.3
	c-0.2,0.3-0.3,0.5-0.5,0.5c-0.2,0-0.3-0.2-0.3-0.3l-0.2-1.8c0.6,0,1.8,0,3.2,0c1.4-2,2.2-3.8,2.5-4.9l1.9,0.6
	c0.3,0.1,0.3,0.1,0.3,0.2c0,0.2-0.2,0.3-0.7,0.3c-0.5,0.9-1.5,2.6-2.2,3.6c1.5,0,2,0,6.1-0.1c-0.8-0.8-1.8-1.4-2.3-1.8l1.4-1.1
	c1.8,1.3,3.3,2.9,4.5,4.7L132.7,37.1L132.7,37.1z M155.3,36.2v4.2c0,1.4,0.1,2.8,0.2,4.2h-1.9c0.1-0.8,0.2-2.2,0.2-4.4v-4h-1.5v1
	c0,0.5-0.1,2.5-0.6,4c-0.7,1.7-1.9,2.6-2.6,3.1l-1.3-1.1c0.9-0.5,2.8-1.6,3.1-4.3c0-0.2,0.1-1.4,0.1-1.7V33c0-0.5-0.1-2.2-0.1-2.5
	c0.4,0,0.7,0,0.9,0c0.2,0,2.1,0,3.2-0.4c0.2,0,0.8-0.3,0.9-0.3l1,1.1c0.1,0.1,0.1,0.1,0.1,0.2c0,0.2-0.2,0.2-0.3,0.2
	c-0.1,0-0.2,0-0.4-0.1c-1.5,0.5-3.1,0.6-4.1,0.5v2.9h3c0.6,0,1.2,0,1.8-0.1v1.6C156.5,36.2,155.9,36.2,155.3,36.2L155.3,36.2z
	 M145.1,32.6l0.7,2.3h0.9l0.7-2.3L145.1,32.6L145.1,32.6z M147.5,36.1h-0.5v1.5h0.4c0.8,0,1.7,0,2.5-0.1V39c-0.9-0.1-2-0.2-2.7-0.1
	c0.2,0.2,1.2,1.2,2.3,1.8l-0.9,1.2c-0.7-0.4-1.1-0.7-1.7-1.3v0.4c0,0.4,0.1,2.9,0.1,3.4h-1.7c0-0.4,0.1-2.3,0.1-2.7
	c0-0.3,0-0.5,0-0.6v-0.3c-0.8,1.1-1.1,1.3-2.5,2.5l-1.3-1.1c0.8-0.4,1.3-0.8,2.1-1.6c0.8-0.8,1.1-1.4,1.4-1.8h-0.3
	c-0.5,0-1.7,0-2.5,0.2v-1.5c0.9,0.1,2.1,0.1,2.5,0.1h0.7v-1.5h-0.7c-0.9,0-1.8,0-2.7,0.1v-1.5c0.7,0.1,1.5,0.1,2.3,0.1l-0.7-2.3
	c-0.6,0-0.7,0-1.2,0v-1.4c0.7,0.1,1.6,0.1,2.3,0.1h0.8c0-0.2,0-0.8-0.1-1.7l1.8,0.1c0.2,0,0.2,0.2,0.2,0.2c0,0.1-0.1,0.2-0.4,0.4
	c0,0.3,0,0.3,0,0.9h0.6c0.6,0,1.5,0,2.1-0.1v1.4c-0.2,0-0.8,0-1,0l-0.8,2.3c0.6,0,1.4,0,2.1-0.1v1.5C149,36.1,147.6,36.1,147.5,36.1
	L147.5,36.1z M209.5,42.7l0.3-0.4h-3.9c-0.2,0.3-0.6,0.7-0.8,1c1.7,0,2.9-0.1,5.2-0.2C209.9,43,209.8,42.9,209.5,42.7L209.5,42.7z
	 M208.8,40.8h-3.2c-1,0-2.3,0-3.1,0.1v-1.2c0.5,0,2.5,0.1,3.1,0.1h3.2c0.6,0,2-0.1,3.1-0.1v1.2C211.5,40.9,209.4,40.8,208.8,40.8z
	 M204.9,35.7H202l0.6,0.3c0.1,0,0.2,0.1,0.2,0.2c0,0.1-0.2,0.1-0.3,0.1c-0.2,0.2-0.3,0.3-0.5,0.5c0.2,0,0.9,0,1.1,0
	c0-0.2-0.1-0.6-0.1-0.9l1.2,0.1c0.2,0,0.5,0,0.5,0.2c0,0.1-0.2,0.3-0.3,0.3c0,0.1,0,0.1,0,0.2h0.5L204.9,35.7L204.9,35.7z
	 M211.5,42.4c1.5,0.9,1.9,1.2,2.3,1.5l-1,1c-0.2-0.2-0.5-0.4-1.2-0.9c-2.4,0.2-6,0.4-10.5,0.5c-0.1,0.3-0.2,0.3-0.3,0.3
	c-0.1,0-0.1,0-0.2-0.2l-0.5-1.3c1.5,0,3,0,3.2,0c0.3-0.3,0.7-0.9,0.8-1c-2.3,0-2.6,0.1-4.5,0.1v-1.2c0.3,0,3.9,0.1,5,0.1h5.1
	c0.9,0,3.2,0,4.9-0.1v1.2C213.6,42.4,212.5,42.4,211.5,42.4z M213.8,39.4c-1,0-1.9-1.3-1.9-3.1c0-0.2,0.1-0.9,0.1-1.1l-0.9,0
	c-0.1,0.6-0.2,1.1-0.5,1.7c0.5,0.4,0.7,0.5,1.1,0.7l-0.6,1.1c-0.2-0.2-0.5-0.4-1-0.8c-0.4,0.4-0.8,1-1.9,1.6l-1-0.9
	c0.5-0.2,1.2-0.4,1.9-1.4c-0.3-0.2-0.5-0.3-0.9-0.5l0.6-0.9c0.4,0.2,0.6,0.3,0.8,0.4c0.1-0.3,0.2-0.6,0.3-1c-0.5,0-1.2,0.1-1.6,0.2
	l-0.1-1.2c0.2,0,1.2,0.1,1.7,0c0-0.6,0-0.9-0.1-1.3h-1.4c0-0.2,0.1-0.8,0.1-1v-0.3h-2.7c0,0.3,0.1,0.7,0.1,1h-1.6c0-0.1,0-0.1,0-0.1
	c-0.1,0-0.1,0-0.1,0c0,0.1,0,0.2,0,0.3h0.4c0.4,0,1.5-0.1,2.1-0.1v1.2c-0.3,0-1.6-0.1-2.1-0.1h-0.4v0.8h0.6c0.6,0,2.2-0.1,2.8-0.1
	v1.2c-1,0-1.6-0.1-1.9-0.1v0.6c0,0.2,0.1,0.3,0.3,0.3h0.4c0.4,0,0.4-0.2,0.4-0.7l1.1,0.3c-0.1,1.2-0.5,1.3-1.3,1.3h-1V38
	c-0.3,0-1.2-0.1-1.4-0.1v0.6c1.3-0.1,1.9-0.2,2.5-0.3l-0.3,1c-1.6,0.3-3.7,0.6-6,0.7c-0.1,0.2-0.2,0.3-0.3,0.3
	c-0.1,0-0.2-0.1-0.2-0.3l-0.3-1.1c0.5,0,1.5,0,3.4-0.1v-0.7c-0.4,0-0.5,0-1.7,0.1v-0.7c-0.5,0.2-0.8,0.4-1.1,0.4l-1.1-0.8
	c1.1-0.2,1.9-0.5,2.3-1.2c-0.5,0-1.1,0-2,0.1v-1.2c0.5,0,2.2,0.1,2.8,0.1h0.9V34h-0.5c-0.3,0-0.8,0-2.1,0.1v-1.2
	c0.4,0,1.7,0.1,2.1,0.1h0.5c0-0.2,0-0.4-0.1-1l1.2,0.1c0.1,0,0.2,0,0.3,0c0-0.2,0-0.3,0-0.4c-1.1,0-3.3,0.1-5,0.1v-1.3
	c0.6,0,3.9,0.1,5,0.1c0-0.2-0.1-0.6-0.1-1.1l1.3,0.1c0.2,0,0.5,0,0.5,0.2c0,0.1-0.2,0.3-0.3,0.3c0,0.1,0,0.2,0,0.4h2.7
	c0-0.2,0-0.3-0.1-1.1l1.3,0.1c0.2,0,0.5,0,0.5,0.2c0,0.1-0.2,0.3-0.3,0.3c0,0.1,0,0.2,0,0.4c2.4,0,2.7-0.1,4.7-0.1v1.3
	c-2.2-0.1-2.6-0.1-4.7-0.1V32c0,0.2,0,0.3,0.1,0.8l1,0.1c0.3,0,0.4,0,0.4,0.2c0,0.1-0.1,0.2-0.3,0.3c0,0.3,0,0.3,0,0.8l0.3,0
	c0.1,0,1.3-0.1,2.3-0.2c-0.5,1.1-0.6,1.7-0.6,2.3c0,1,0.4,1.6,0.6,1.6c0.3,0,0.3-1.1,0.3-1.3l1.1,0.9
	C215.1,38.1,214.8,39.4,213.8,39.4L213.8,39.4z M236.1,35.7v5.5c0,0.3,0,1.9,0,2.3c-0.1,1.2-1.1,1.2-2.7,1.1l-0.7-1.7
	c0.3,0.1,0.9,0.2,1.3,0.2c0.5,0,0.5-0.1,0.5-1.1v-6.3h-0.3c-0.6,0-1.1,0-1.7,0.1v-1.6c0.6,0.1,1.4,0.1,1.7,0.1h1.7
	c0.6,0,1.2,0,1.7-0.1v1.6C237.1,35.7,236.3,35.7,236.1,35.7L236.1,35.7z M231.7,41.6c-0.1-2.1-0.6-4.4-1-5.9l1.4-0.3
	c0.4,1.3,1,3.3,1.2,5.4L231.7,41.6L231.7,41.6z M236,32h-1.4c-0.5,0-1,0-1.4,0.1v-0.5l-1.1,0.9c-0.7-0.9-1-1.2-1.4-1.5l1.1-0.9
	c0.7,0.4,1.3,1.2,1.4,1.5v-1.1c0.5,0.1,1.2,0.1,1.4,0.1h1.4c0.5,0,1,0,1.5-0.1v1.6C236.8,32,236,32,236,32L236,32z M227.5,41.9
	l-1.6-0.4c0.8-1.5,1-3.6,1-5.1c0-0.4,0-0.7,0-1l1.5,0.2C228.5,37.7,228.3,40.4,227.5,41.9z M226.5,31.2c-0.1,0-0.2,0-0.3,0
	c-0.5,0.7-1.4,1.8-2.8,2.6l-1.3-1c1.5-0.7,2.8-2.1,3.2-3l1.3,0.8c0.1,0.1,0.2,0.2,0.2,0.3C226.9,31,226.7,31.2,226.5,31.2
	L226.5,31.2z M230.4,34.1c0,0.2,0,0.9,0,1.1v4.9c0,0.8,0.1,3.8,0.1,4.6h-1.8c0-0.8,0.2-4.1,0.2-4.8v-5.8c-0.8,0-1.6,0.1-1.9,0.1
	c0.1,0.1,0.2,0.1,0.2,0.3c0,0.3-0.3,0.3-0.4,0.3c-0.1,0-0.2,0-0.3,0c-0.3,0.4-0.5,0.8-0.9,1.3c0.2,0.1,0.4,0.2,0.4,0.4
	c0,0.1-0.1,0.2-0.4,0.4c0,0.6-0.1,2-0.1,2.6v2.3c0,0.2,0.1,2.6,0.1,3H224c0-0.4,0.2-2.5,0.2-2.7v-4.4c-0.4,0.4-0.7,0.6-1,0.8
	l-1.3-0.9c1.8-1.2,3.3-3.3,3.7-4.2l1.2,0.8v-1.5c0.6,0.1,1.5,0.1,2.1,0.1V32c0-0.4,0-2,0-2.4l1.7,0.2c0.3,0,0.4,0.1,0.4,0.3
	c0,0.2-0.1,0.2-0.5,0.4c0,0.4,0,1.5,0,2.2c0.7,0,1.5,0,2.2-0.1v1.6C231.9,34.1,231.1,34.1,230.4,34.1L230.4,34.1z M255.4,31.3
	c0.2,0.2,0.3,0.4,0.6,0.8c0.8-0.4,1.1-0.6,1.5-0.8L255.4,31.3L255.4,31.3z M254.1,31.4c-0.2,0.1-0.3,0.1-0.6,0.3
	c0.2,0.2,0.4,0.5,0.8,1.1c0.4-0.1,0.5-0.2,0.6-0.2C254.7,32.2,254.5,31.8,254.1,31.4L254.1,31.4z M252.6,32.2
	c-0.2,0.1-0.3,0.1-0.5,0.2l-0.7-1v2.3c0.4-0.1,1-0.2,2-0.5C253.1,33,253,32.7,252.6,32.2z M259.6,44.8c-2.5-0.3-5-1.3-6.6-3.2
	c-1.3,2-4,2.9-6.5,3.2l-1.1-1.4c2.6,0,5.2-0.8,6.1-2.3h-2.3c-1,0-2.9,0-3.8,0v-1.4c0.7,0,2.9,0,3.8,0h2.8c0.1-0.3,0.1-0.5,0.1-0.9
	c0-0.5,0-0.7-0.1-1l1.5,0.2c0.4,0,0.5,0.1,0.5,0.3c0,0.2-0.3,0.2-0.5,0.3c0,0.4,0,0.6-0.1,1.2h1.9c-0.4-0.4-0.6-0.7-1.1-1.1l1.1-0.7
	c0.5,0.4,0.9,0.8,1.4,1.4l-0.7,0.4h1.2c0.9,0,2.3,0,3.1,0v1.4c-0.8,0-2.3,0-3.1,0h-2.8c1.5,1.7,4,2.2,6.2,2.3L259.6,44.8L259.6,44.8
	z M258.9,35.3v0.8c0,0.1,0,0.7,0,0.9c0,0.8-0.3,1.4-2.4,1.3l-0.6-1.6c0.2,0.1,0.7,0.2,1.2,0.2c0.2,0,0.4,0,0.4-0.3v-1.3h-2.8
	c0.4,0.4,0.7,0.7,1,1.3l-1.1,0.7c-0.3-0.6-0.5-0.9-1-1.5l0.7-0.5c-0.4,0-0.7,0-1,0v-0.8c-0.5,0.1-0.7,0.2-0.9,0.2l-1-1.1v1.8
	c0,1,0,1.9,0.1,2.7h-1.5c0.1-0.6,0.1-1.8,0.1-2.5v-0.4h-1.6c-0.1,1.5-0.8,2.6-1.9,3.4l-1.2-0.9c0.5-0.3,1.6-1,1.7-2.5
	c-0.6,0-1,0-1.6,0v-1.3c0.5,0,1.2,0,1.8,0h2.8v-1.3h-1.5c-0.7,0-1,0-2.2,0.1c0.1-0.6,0.1-0.9,0.1-1.3v-0.8c0-0.1,0-0.5-0.1-0.9
	l1.4,0.1c0.3,0,0.4,0,0.4,0.2c0,0.1-0.2,0.2-0.3,0.3c0,0.2-0.1,0.4-0.1,0.7v0.4h2.3v-0.8c0-0.9,0-1,0-1.3l1.5,0.1
	c0.1,0,0.4,0,0.4,0.2c0,0.2-0.3,0.3-0.4,0.3c-0.1,0.2-0.1,0.5-0.1,0.7v0.4c1.2-0.3,2.4-0.9,3.2-1.9l1.2,0.2c0.2,0,0.5,0.1,0.5,0.2
	c0,0.2-0.4,0.2-0.5,0.2c0,0,0,0.1-0.2,0.2h2c0.5,0,1,0,1.8,0l0.6,0.7c-2.4,1.8-4.3,2.6-5.6,3.2h3.1c0-0.3,0-0.7-0.1-1l1.5,0.1
	c0.5,0,0.5,0.1,0.5,0.2c0,0.2-0.2,0.2-0.5,0.3c0,0.1,0,0.2,0,0.3c1,0,1.3,0,1.8,0v1.2C260.1,35.3,259.7,35.3,258.9,35.3L258.9,35.3z
	 M9.5,36.4h3.2v-1.1H9.5L9.5,36.4L9.5,36.4z M13.1,32.2h-0.3c0.3,0.4,0.6,0.7,0.9,1.1L12,33.7c-0.3-0.6-0.3-0.7-0.8-1.5h-1.2
	c-0.4,0.6-0.7,1-1.3,1.6l-1.4-0.8c0.3-0.2,0.8-0.5,1.5-1.7c0.4-0.7,0.6-1.1,0.7-1.9l1.6,0.4c0.1,0,0.3,0.1,0.3,0.2
	c0,0.2-0.2,0.3-0.6,0.3c-0.1,0.2-0.1,0.3-0.2,0.5h2.4c0.7,0,2.1,0,2.7-0.1v1.4C14.7,32.3,13.3,32.2,13.1,32.2z M7.9,37.6H3.8
	c-0.1,0.5-0.1,0.7-0.2,1.2h4.3C7.9,38.7,7.9,37.6,7.9,37.6z M15.4,42.7c-0.2,0.5-0.6,1.3-2.8,1.4l-0.9-1.7c0.7,0.1,1.2,0.1,1.5,0.1
	c0.7,0,0.9-0.2,1-2.4H9.5v1.1c0,0.4,0.1,3.2,0.2,3.6H7.8c0.1-0.6,0.2-3,0.2-3.6c-0.2,0.3-0.8,1.2-1.9,2c-1,0.7-2.2,1.3-3.5,1.7
	l-1.2-1.4C3.5,42.7,5.3,42,6.9,40H3.3c0,0.1-0.4,1-0.4,1.2l-1.7-0.4c0.4-0.7,1.1-2.1,1.2-4.5c0.8,0,1,0,2.2,0c1.2,0,1.3,0,2,0h1.4
	v-1.1H6.3c-0.2,0-2.7,0.1-4.2,0.2v-1.6C4,34,4.9,34,6.2,34h4.3c0.7,0,3.2-0.1,3.7-0.1c0,0.3-0.1,1.1-0.1,1.4v1.1
	c0,0.2,0.1,1,0.1,1.3c-0.5,0-3.4,0-3.4,0H9.5v1.2h2.9c1,0,2.2,0,3.4-0.1C15.6,41.7,15.6,42.1,15.4,42.7z M6.4,32.2H6.1
	c0.2,0.3,0.4,0.7,0.7,1.3l-1.6,0.3c-0.2-0.6-0.2-0.7-0.5-1.6H3.8c-0.3,0.3-0.9,0.8-1.7,1.4l-1.2-0.9C1.5,32.3,2,32,2.5,31.5
	c0.1-0.1,0.9-1,1.3-2l1.4,0.4c0.2,0.1,0.3,0.1,0.3,0.3c0,0.2-0.2,0.3-0.5,0.3c-0.1,0.2-0.2,0.2-0.3,0.5h1.8c0.1,0,0.6,0,0.9,0
	c0.2,0,0.5,0,1,0v1.3C7.6,32.3,7,32.2,6.4,32.2L6.4,32.2z M33.5,36.8h-1.4v2.8l0,2.3c0,0.9,0,2,0.1,2.6h-1.7
	c0.1-0.6,0.1-4.3,0.1-5.1v-2.6h-1.6l-2.3,0c-0.9,0-2,0-2.6,0v-1.5c0.6,0,4.4,0.1,5.2,0.1h1.3V34c0-2.1,0-2.4-0.1-4.3l1.8,0.2
	c0.2,0,0.6,0.1,0.6,0.3c0,0.1,0,0.1-0.6,0.4c0,0.3-0.1,0.8-0.1,1.8c0,0.4,0,2,0,2.4v0.7h1.7l2.3,0c0.9,0,2,0,2.6,0v1.5
	C38.1,36.9,34.3,36.8,33.5,36.8 M60.5,43.6c-1.2-0.9-3.3-2.4-4.3-5.6c-0.6-1.8-0.7-3.3-0.7-5.9c-0.3,0-1.1,0-1.4,0.1v-1.8
	c0.3,0,1.3,0.1,1.5,0.1h0.5c0.3,0,1-0.1,1.3-0.1c-0.1,0.9-0.2,2.2-0.2,3.1c0,3.4,1.3,6.7,4.8,8.7L60.5,43.6L60.5,43.6z M52.7,32.4
	c0,0.3,0,0.7,0,1.1c0,5.4-2.8,8.9-4.4,10.1l-1.8-1c0.6-0.3,2.1-1.2,3.3-3.6c1.3-2.4,1.3-4.5,1.3-5.4c0-0.9,0-1.4-0.1-2.3l1.9,0.6
	c0.3,0.1,0.4,0.1,0.4,0.2C53.2,32.2,52.9,32.3,52.7,32.4z M79.7,37.7h-0.3v1.9c0.4,0,1.3,0,2-0.1v1.5c-0.6-0.1-1.3-0.1-1.9-0.1h-1.9
	c-0.6,0-1.3,0-1.9,0.1v-1.5c0.8,0.1,1.8,0.1,1.9,0.1h0.3v-1.9h-0.4c-0.4,0-1.3,0-2.1,0.1v-1.4c0.7,0,1.6,0.1,2.1,0.1h0.4
	c0-0.4,0-0.5-0.1-1.7l1.3,0.1c0.6,0,0.7,0.1,0.7,0.3c0,0.1,0,0.2-0.4,0.4l-0.1,1h0.3c0.5,0,1.4,0,2.1-0.1v1.4
	C81.1,37.7,80.1,37.7,79.7,37.7z M83.9,36.5c-0.1,1.6-0.1,1.8-0.1,2.7v2c0,0.8,0,0.9,0.1,3.3h-1.8c0-0.2,0.1-1.1,0.1-1.2h-7.2
	c0,0.3,0.1,0.9,0.1,1.2h-1.8c0.1-1.7,0.2-2.9,0.2-3.1v-1.8c0-1.6,0-2-0.1-3.7l1.5,0.1c0.4,0,0.6,0,0.6,0.3c0,0.2-0.1,0.2-0.5,0.3
	c0,0.3-0.1,2-0.1,2.3v3h7.3v-2.8c0-0.8,0-2.1-0.1-3.3l1.5,0.1c0.4,0,0.6,0,0.6,0.2C84.3,36.3,84.1,36.4,83.9,36.5L83.9,36.5z
	 M73.1,33.1h9v-1.6h-9V33.1z M83.7,31.7v1.1c0,0.1,0,1,0,1.6c-0.9,0-3.9-0.1-4.8-0.1h-5.7c-0.1,3.1-0.3,6.6-2.6,9.9l-1.7-0.6
	c0.4-0.5,1.2-1.5,1.8-3.3c0.7-2.2,0.9-4.2,0.9-6c0-0.9,0-1.8-0.2-4.1c0.2,0,1.5,0.1,1.8,0.1c0.4,0,1.9,0,2.2,0h4.7
	c0.6,0,3,0,3.7-0.1C83.7,30.6,83.7,31.1,83.7,31.7L83.7,31.7z"/>
<defs>
	<filter id="Adobe_OpacityMaskFilter_2_" filterUnits="userSpaceOnUse" x="0" y="35.2" width="260.4" height="7.4">
		<feColorMatrix  type="matrix" values="1 0 0 0 0  0 1 0 0 0  0 0 1 0 0  0 0 0 1 0"/>
	</filter>
</defs>
<mask maskUnits="userSpaceOnUse" x="0" y="35.2" width="260.4" height="7.4" id="prefix__d_2_">
	<g class="st5">
		<path id="prefix__c_2_" class="st0" d="M0,44.9h260.7V0.8H0V44.9z"/>
	</g>
</mask>
<path class="st6" d="M0,42.6h260.4v-7.4H0V42.6z"/>
</svg>
