<svg xmlns="http://www.w3.org/2000/svg" xmlns:xlink="http://www.w3.org/1999/xlink" width="261" height="45" viewBox="0 0 261 45">
    <defs>
        <path id="prefix__a" d="M0.393 0.052L5.991 0.052 5.991 7.515 0.393 7.515z"/>
        <path id="prefix__c" d="M0 44.949L260.746 44.949 260.746 0.834 0 0.834z"/>
    </defs>
    <g fill="none" fill-rule="evenodd">
        <path fill="#111" d="M9.934 5.079c-.245.034-.649.07-.913.07-.263 0-.703-.036-.948-.07l-.124-.913H6.51v8.075l1.177.172c.036.24.053.568.053.81 0 .24-.017.568-.053.808H3.12c-.018-.24-.036-.567-.036-.809 0-.24.018-.568.036-.809l1.194-.172V4.166H2.891l-.228.982c-.563 0-1.212-.052-1.792-.138.018-.551.105-1.739.21-2.583h8.853V5.08zM23.004 14.032H18.56c-.018-.241-.035-.569-.035-.81 0-.24.017-.568.035-.809l1.053-.171V9.004h-4.496v3.238l1.054.171c.018.241.035.569.035.81 0 .24-.017.568-.035.809h-4.444c-.018-.241-.035-.569-.035-.81 0-.24.017-.568.035-.809l1.195-.171V4.218l-1.195-.172c-.018-.241-.035-.569-.035-.81 0-.24.017-.568.035-.809h4.444c.018.241.035.569.035.81 0 .24-.017.568-.035.809l-1.054.172v2.995h4.496V4.218l-1.053-.172c-.018-.241-.035-.569-.035-.81 0-.24.017-.568.035-.809h4.444c.018.241.035.569.035.81 0 .24-.017.568-.035.809l-1.195.172v8.024l1.195.171c.018.241.035.569.035.81 0 .24-.017.568-.035.809M33.86 14.032h-8.606c-.017-.241-.035-.569-.035-.81 0-.24.018-.568.035-.809l1.194-.171V4.218l-1.194-.172c-.017-.241-.035-.569-.035-.81 0-.24.018-.568.035-.809h8.501v2.72c-.245.035-.667.052-.913.052-.263 0-.738-.017-.984-.052l-.158-.946h-3.056v2.996h3.689c0 .55-.053 1.239-.123 1.807h-3.566v3.272h3.162l.158-1.051c.246-.034.72-.052.984-.052.245 0 .667.018.913.052v2.807zM48.265 14.032H41.1c-.035-.293-.052-.603-.052-.913 0-.31.017-.62.052-.93h3.057V4.34l-2.758.36c-.123-.464-.211-1.17-.211-1.687l3.109-.585h1.915v9.763h2.213c0 .533-.053 1.307-.159 1.842M54.555 3.908c-.913 0-1.422.55-1.422 1.377 0 .93.474 1.585 1.562 1.946.826-.327 1.318-1.101 1.318-1.894 0-.912-.527-1.43-1.458-1.43m-.14 4.89c-.86.31-1.44 1.137-1.44 2.067 0 1.032.438 1.67 1.58 1.67 1.16 0 1.634-.62 1.634-1.722 0-1-.721-1.652-1.774-2.014m.07 5.406c-2.038 0-3.566-.913-3.566-3.151 0-1.154.632-2.17 1.914-2.875-1.158-.706-1.703-1.636-1.703-2.755 0-2.066 1.423-3.168 3.496-3.168 2.09 0 3.442.999 3.442 2.944 0 1.068-.65 2.015-1.791 2.6 1.3.706 2.002 1.687 2.002 3.047 0 2.101-1.406 3.358-3.795 3.358M62.125 8.398c-1.187 0-1.668-.512-1.668-1.726V4.054h-.645V3.06h.645V1.978c.317-.09.767-.17 1.156-.2V3.06h1.351c0 .32-.03.662-.071.993h-1.28v2.618c0 .542.185.663.635.663.235 0 .594-.091.818-.191.073.3.134.692.164 1.023-.296.141-.788.231-1.105.231"/>
        <g transform="translate(63.762 .782)">
            <mask id="prefix__b" fill="#fff">
                <use xlink:href="#prefix__a"/>
            </mask>
            <path fill="#111" d="M5.97 7.515H3.689c-.01-.14-.02-.31-.02-.451 0-.14.01-.291.02-.432l.481-.1V3.924c0-.421-.173-.703-.778-.703-.409 0-.788.11-1.146.332v2.98l.532.1c.01.14.02.29.02.43 0 .142-.01.312-.02.452H.433c-.01-.14-.02-.31-.02-.451 0-.14.01-.291.02-.432l.655-.1V1.105l-.675-.06C.403.924.393.754.393.613c0-.14.01-.3.02-.422.563-.1 1.29-.14 1.883-.14l-.05 1.064V2.77h.06c.492-.421.942-.592 1.536-.592.88 0 1.494.472 1.494 1.605v2.75l.635.1c.01.14.02.29.02.43 0 .142-.01.312-.02.452" mask="url(#prefix__b)"/>
        </g>
        <path fill="#111" d="M84.469 5.079c-.246.034-.65.07-.913.07-.264 0-.703-.036-.949-.07l-.123-.913h-1.44v8.075l1.176.172c.036.24.053.568.053.81 0 .24-.017.568-.053.808h-4.566c-.018-.24-.036-.567-.036-.809 0-.24.018-.568.036-.809l1.195-.172V4.166h-1.424l-.227.982c-.563 0-1.213-.052-1.793-.138.018-.551.106-1.739.211-2.583h8.853V5.08zM90.09 5.354c-.105-.362-.21-.792-.228-1.05h-.157c-.018.258-.124.688-.229 1.05L88.37 8.952h2.829L90.09 5.354zm4.919 8.677h-3.636c-.017-.24-.035-.568-.035-.809 0-.24.018-.568.035-.809l.825-.137-.509-1.688h-3.811l-.51 1.688.808.137c.035.241.053.569.053.81 0 .24-.018.568-.053.808h-3.478c-.017-.24-.035-.568-.035-.809 0-.24.018-.568.035-.809l.633-.137c.983-3.324 2.055-6.56 3.249-9.849h2.582c1.177 3.289 2.23 6.525 3.214 9.849l.633.137c.018.241.035.569.035.81 0 .24-.017.568-.035.808zM101.369 14.032h-4.584c-.018-.241-.036-.569-.036-.81 0-.24.018-.568.036-.809l1.193-.171V4.218l-1.193-.172c-.018-.241-.036-.569-.036-.81 0-.24.018-.568.036-.809h4.584c.018.241.035.569.035.81 0 .24-.017.568-.035.809l-1.195.172v8.024l1.195.171c.018.241.035.569.035.81 0 .24-.017.568-.035.809M107.447 14.204c-1.071 0-2.353-.155-3.373-.586v-2.462c.264-.034.668-.052.914-.052.263 0 .685.018.931.052l.175 1.085c.37.121.914.19 1.511.19 1.212 0 1.756-.5 1.756-1.43 0-2.117-5.216-1.859-5.216-5.337 0-2.187 1.756-3.409 4.32-3.409.914 0 1.986.104 2.793.31v2.6c-.263.034-.685.069-.93.069-.264 0-.72-.035-.984-.07l-.14-1.066c-.264-.035-.703-.07-1.072-.07-1.282 0-1.704.534-1.704 1.395 0 1.825 5.217 1.739 5.217 5.303 0 2.187-1.651 3.478-4.198 3.478M125.136 14.032h-4.444c-.018-.241-.035-.569-.035-.81 0-.24.017-.568.035-.809l1.053-.171V9.004h-4.496v3.238l1.054.171c.018.241.035.569.035.81 0 .24-.017.568-.035.809h-4.444c-.018-.241-.035-.569-.035-.81 0-.24.017-.568.035-.809l1.195-.171V4.218l-1.195-.172c-.018-.241-.035-.569-.035-.81 0-.24.017-.568.035-.809h4.444c.018.241.035.569.035.81 0 .24-.017.568-.035.809l-1.054.172v2.995h4.496V4.218l-1.053-.172c-.018-.241-.035-.569-.035-.81 0-.24.017-.568.035-.809h4.444c.017.241.034.569.034.81 0 .24-.017.568-.034.809l-1.195.172v8.024l1.195.171c.017.241.034.569.034.81 0 .24-.017.568-.034.809M131.97 14.032h-4.584c-.018-.241-.036-.569-.036-.81 0-.24.018-.568.036-.809l1.194-.171V4.218l-1.194-.172c-.018-.241-.036-.569-.036-.81 0-.24.018-.568.036-.809h4.584c.018.241.035.569.035.81 0 .24-.017.568-.035.809l-1.194.172v8.024l1.194.171c.018.241.035.569.035.81 0 .24-.017.568-.035.809M145.373 4.046l-1.054.172v9.727c-.544.103-1.44.172-2.002.172l-4.357-7.42c-.193-.327-.421-.844-.527-1.257h-.158c.053.413.089.965.089 1.326v5.475l1.036.172c.017.241.035.569.035.81 0 .24-.018.568-.035.809h-4.18c-.018-.241-.036-.569-.036-.81 0-.24.018-.568.036-.809l1.193-.172V4.218l-1.193-.172c-.018-.242-.036-.569-.036-.81 0-.24.018-.568.036-.809h3.424l4.11 6.973c.194.327.404.81.545 1.24h.14c-.052-.38-.07-.964-.07-1.326V4.218l-1.001-.172c-.017-.242-.035-.569-.035-.81 0-.24.018-.568.035-.809h4.005c.018.241.035.569.035.81 0 .24-.017.567-.035.809M156.546 5.354c-.105-.362-.21-.792-.228-1.05h-.158c-.018.258-.123.688-.228 1.05l-1.107 3.598h2.828l-1.107-3.598zm4.918 8.677h-3.636c-.017-.24-.035-.568-.035-.809 0-.24.018-.568.035-.809l.826-.137-.51-1.688h-3.81l-.51 1.688.808.137c.035.241.052.569.052.81 0 .24-.017.568-.052.808h-3.478c-.017-.24-.035-.568-.035-.809 0-.24.018-.568.035-.809l.632-.137c.984-3.324 2.055-6.56 3.25-9.849h2.581c1.178 3.289 2.231 6.525 3.215 9.849l.632.137c.018.241.035.569.035.81 0 .24-.017.568-.035.808zM167.332 4.028c-.28 0-.913.018-1.282.035v3.788h1.282c1.3 0 2.02-.603 2.02-1.998 0-1.256-.65-1.825-2.02-1.825zm5.252 8.97c0 .81-.51 1.205-1.388 1.205-.878 0-1.457-.344-1.984-1.394l-1.721-3.34h-1.44v2.772l1.018.172c.035.241.053.569.053.81 0 .24-.018.568-.053.809h-4.356c-.017-.241-.035-.569-.035-.81 0-.24.018-.568.035-.809l1.194-.172V4.218l-1.194-.172c-.017-.242-.035-.569-.035-.81 0-.24.018-.568.035-.809 1.563-.069 3.197-.103 4.514-.103 2.88 0 4.356 1.084 4.356 3.478 0 1.395-.773 2.565-2.038 3.03l1.529 2.858c.264.482.491.602.966.602h.544v.706zM182.878 5.079c-.245.034-.65.07-.913.07s-.703-.036-.948-.07l-.124-.913h-1.44v8.075l1.177.172c.035.24.052.568.052.81 0 .24-.017.568-.052.808h-4.566c-.018-.24-.036-.567-.036-.809 0-.24.018-.568.036-.809l1.194-.172V4.166h-1.423l-.228.982c-.563 0-1.212-.052-1.792-.138.018-.551.105-1.739.21-2.583h8.853V5.08zM188.114 14.204c-1.071 0-2.353-.155-3.373-.586v-2.462c.264-.034.668-.052.914-.052.263 0 .685.018.931.052l.175 1.085c.37.121.914.19 1.511.19 1.212 0 1.756-.5 1.756-1.43 0-2.117-5.216-1.859-5.216-5.337 0-2.187 1.756-3.409 4.32-3.409.914 0 1.986.104 2.793.31v2.6c-.262.034-.685.069-.93.069-.264 0-.72-.035-.984-.07l-.14-1.066c-.264-.035-.703-.07-1.072-.07-1.282 0-1.704.534-1.704 1.395 0 1.825 5.217 1.739 5.217 5.303 0 2.187-1.651 3.478-4.198 3.478M203.748 5.354c-.105-.362-.21-.792-.229-1.05h-.157c-.018.258-.123.688-.229 1.05l-1.106 3.598h2.828l-1.107-3.598zm4.918 8.677h-3.636c-.017-.24-.035-.568-.035-.809 0-.24.018-.568.035-.809l.826-.137-.51-1.688h-3.81l-.51 1.688.808.137c.034.241.052.569.052.81 0 .24-.018.568-.052.808h-3.478c-.017-.24-.035-.568-.035-.809 0-.24.018-.568.035-.809l.632-.137c.984-3.324 2.055-6.56 3.25-9.849h2.581c1.178 3.289 2.231 6.525 3.215 9.849l.632.137c.018.241.035.569.035.81 0 .24-.017.568-.035.808zM224.722 4.046l-.93.172c-.65 3.271-1.388 6.577-2.179 9.814h-2.318l-2.073-7.576c-.088-.31-.176-.861-.211-1.309h-.14c-.036.448-.124.982-.211 1.326l-2.02 7.559h-2.353c-.791-3.237-1.529-6.525-2.161-9.814l-.931-.172c-.035-.242-.053-.569-.053-.81 0-.24.018-.568.053-.809h3.952c.018.241.035.569.035.81 0 .24-.017.567-.035.809l-.913.172 1.177 5.75c.087.431.158 1.016.175 1.412h.158c.036-.378.141-.998.246-1.394l2.02-7.559h2.055l2.02 7.541c.106.414.211 1.034.246 1.412h.158c.018-.396.088-1.033.158-1.394l1.195-5.768-.914-.172c-.017-.242-.035-.569-.035-.81 0-.24.018-.568.035-.809h3.794c.035.241.053.569.053.81 0 .24-.018.567-.053.809M230.626 5.354c-.106-.362-.211-.792-.23-1.05h-.157c-.017.258-.123.688-.228 1.05l-1.107 3.598h2.829l-1.107-3.598zm4.918 8.677h-3.636c-.017-.24-.035-.568-.035-.809 0-.24.018-.568.035-.809l.825-.137-.51-1.688h-3.81l-.51 1.688.808.137c.035.241.053.569.053.81 0 .24-.018.568-.053.808h-3.478c-.017-.24-.035-.568-.035-.809 0-.24.018-.568.035-.809l.633-.137c.983-3.324 2.054-6.56 3.249-9.849h2.582c1.177 3.289 2.23 6.525 3.214 9.849l.633.137c.018.241.035.569.035.81 0 .24-.017.568-.035.808zM241.412 4.028c-.281 0-.913.018-1.282.035v3.788h1.282c1.3 0 2.02-.603 2.02-1.998 0-1.256-.65-1.825-2.02-1.825zm5.252 8.97c0 .81-.51 1.205-1.388 1.205-.878 0-1.457-.344-1.984-1.394l-1.722-3.34h-1.44v2.772l1.019.172c.034.241.052.569.052.81 0 .24-.018.568-.052.809h-4.357c-.017-.241-.035-.569-.035-.81 0-.24.018-.568.035-.809l1.195-.172V4.218l-1.195-.172c-.017-.242-.035-.569-.035-.81 0-.24.018-.568.035-.809 1.564-.069 3.198-.103 4.515-.103 2.88 0 4.356 1.084 4.356 3.478 0 1.395-.773 2.565-2.038 3.03l1.529 2.858c.263.482.491.602.965.602h.545v.706zM253.726 4.132c-.51 0-1.018 0-1.598.017v8.161c.544.017 1.054.017 1.58.017 2.144 0 3.145-1.205 3.145-4.167 0-3.184-1.388-4.028-3.127-4.028m-.176 10.003c-1.053 0-3.231-.035-4.812-.103-.018-.241-.035-.569-.035-.81 0-.24.017-.568.035-.809l1.194-.172V4.218l-1.194-.172c-.018-.242-.035-.569-.035-.81 0-.24.017-.568.035-.808 1.703-.07 3.706-.104 4.848-.104 3.337 0 5.585 1.619 5.585 5.836 0 4.03-2.23 5.975-5.62 5.975"/>
        <mask id="prefix__d" fill="#fff">
            <use xlink:href="#prefix__c"/>
        </mask>
        <path fill="#111" d="M123.297 42.521h6.623V39.07h-6.623v3.452zm6.572 2.081c.017-.115.034-.61.051-.71h-6.623c0 .314.017.347.034.71h-1.753c.102-1.403.119-1.8.119-2.46v-2.214c0-.99-.05-1.553-.136-2.412.54.034 2.377.1 3.624.1h2.764c1.095 0 1.92-.05 3.64-.15-.018.53-.051 2.495-.051 2.594v1.965c0 .15.016 1.255.134 2.577h-1.803zm2.865-7.466c-.336-.561-.725-1.123-1.112-1.651-1.516.149-4.263.314-4.701.33-1.029.066-5.561.265-6.488.314-.186.28-.303.462-.54.462-.219 0-.252-.23-.252-.33l-.168-1.85c.64 0 1.836-.033 3.201-.05 1.432-1.981 2.157-3.766 2.545-4.856l1.887.628c.253.082.287.148.287.247 0 .249-.186.281-.743.348-.488.908-1.465 2.61-2.19 3.6 1.517-.016 1.972-.033 6.083-.148-.775-.777-1.752-1.404-2.342-1.785l1.416-1.122c1.752 1.32 3.269 2.907 4.465 4.74l-1.348 1.123zM155.323 36.162v4.163c0 1.404.067 2.791.151 4.195h-1.853c.118-.826.185-2.214.185-4.377v-3.98h-1.533v1.023c0 .529-.05 2.478-.64 3.964-.692 1.701-1.854 2.577-2.595 3.105l-1.348-1.123c.91-.512 2.814-1.586 3.083-4.31.017-.232.101-1.356.101-1.702v-4.096c0-.529-.067-2.197-.084-2.494.388.049.691.049.927.049.22 0 2.056-.017 3.184-.364.153-.049.793-.264.928-.297l1.044 1.074c.085.083.135.132.135.214 0 .249-.22.249-.32.249-.135 0-.202-.034-.354-.084-1.517.464-3.15.579-4.061.513v2.924h3c.606 0 1.246-.033 1.836-.133v1.619c-.573-.099-1.179-.132-1.786-.132zm-10.245-3.6l.707 2.344h.944l.724-2.345h-2.375zm2.375 3.567h-.505v1.503h.37c.843 0 1.703-.017 2.545-.132v1.52c-.943-.116-2.022-.15-2.712-.132.235.247 1.196 1.188 2.342 1.832l-.877 1.24c-.657-.414-1.062-.711-1.668-1.322v.447c0 .429.084 2.94.118 3.435h-1.719c.017-.43.119-2.313.135-2.709.017-.265.017-.479.017-.645v-.313c-.826 1.09-1.061 1.288-2.51 2.544l-1.315-1.124c.758-.413 1.331-.776 2.106-1.568.758-.777 1.129-1.371 1.399-1.835h-.338c-.539 0-1.685.05-2.51.15V37.5c.876.115 2.123.132 2.51.132h.658V36.13h-.725c-.892 0-1.803.05-2.696.149v-1.503c.725.082 1.533.115 2.275.131l-.725-2.279c-.606.017-.741.017-1.213.05v-1.42c.674.082 1.618.114 2.325.114h.843c0-.165-.017-.825-.05-1.667l1.769.148c.168.017.202.165.202.248 0 .149-.05.181-.387.396-.017.298-.017.347-.017.875h.607c.573 0 1.5-.032 2.14-.115v1.354c-.152 0-.826-.032-.961-.049l-.759 2.33c.641 0 1.433-.05 2.073-.116v1.503c-1.18-.133-2.646-.15-2.747-.15zM209.502 42.719l.27-.363h-3.944c-.236.264-.607.693-.825.974 1.668-.033 2.864-.099 5.156-.231-.235-.148-.405-.23-.657-.38zm-.741-1.916h-3.202c-1.011 0-2.292.05-3.1.1v-1.24c.454.017 2.46.116 3.1.116h3.202c.59 0 2.038-.066 3.1-.116v1.24c-.37-.034-2.443-.1-3.1-.1zm-3.842-5.087h-2.916l.64.346c.068.034.152.083.152.199 0 .132-.168.148-.337.148-.152.2-.286.314-.472.462.203 0 .876.017 1.146.017-.017-.247-.068-.61-.1-.858l1.246.098c.219.017.488.05.488.232 0 .131-.235.264-.336.33 0 .066-.017.116-.017.181h.506v-1.155zm6.554 6.673c1.483.94 1.87 1.222 2.292 1.536l-.994 1.024c-.236-.215-.472-.413-1.18-.908-2.426.198-5.965.445-10.481.495-.135.281-.185.347-.287.347-.1 0-.118-.017-.202-.248l-.489-1.305c1.517.033 2.983.016 3.186.016.286-.313.741-.875.842-.99-2.343.05-2.645.066-4.533.115v-1.205c.337 0 3.91.099 4.954.099h5.09c.926 0 3.2-.05 4.937-.1v1.206c-1.045-.033-2.09-.065-3.135-.082zm2.343-2.973c-1.045 0-1.854-1.339-1.854-3.056 0-.182.084-.942.084-1.09l-.91.016c-.084.628-.219 1.14-.455 1.685.54.38.742.512 1.062.743l-.606 1.074c-.22-.198-.456-.413-1.045-.842-.354.445-.81.99-1.904 1.601l-1.045-.908c.523-.165 1.196-.446 1.937-1.354-.32-.199-.522-.298-.858-.463l.589-.941c.387.198.556.28.826.446.134-.347.219-.628.27-.991-.456.033-1.214.115-1.568.165l-.05-1.239c.185.017 1.213.066 1.719.05 0-.628-.017-.892-.051-1.256h-1.433c.034-.215.118-.825.118-1.04v-.265h-2.695c.017.265.084.677.118.975h-1.551c0-.066 0-.066.017-.1-.051.017-.051.034-.101.05 0 .1-.017.215-.017.33h.37c.438 0 1.534-.082 2.073-.115v1.19c-.303-.017-1.635-.116-2.073-.116h-.37v.776h.623c.59 0 2.174-.082 2.798-.115v1.205c-.96-.05-1.635-.082-1.887-.099v.595c0 .214.05.281.269.281h.438c.37 0 .37-.166.37-.71l1.062.263c-.067 1.24-.471 1.339-1.264 1.339h-.96v.462c-.32-.033-1.163-.116-1.45-.116v.595c1.264-.149 1.854-.231 2.528-.33l-.32.958c-1.55.264-3.657.56-5.982.71-.101.198-.168.347-.303.347-.118 0-.169-.133-.203-.265l-.336-1.139c.522 0 1.482 0 3.353-.149v-.727c-.371 0-.54 0-1.685.116v-.71c-.455.248-.809.363-1.112.446l-1.13-.777c1.062-.165 1.87-.462 2.259-1.189-.455.017-1.078.05-2.006.1v-1.206c.472.033 2.225.115 2.798.115h.876v-.776h-.488c-.287 0-.759.033-2.073.116v-1.19c.42.033 1.651.115 2.073.115h.488c-.017-.181-.034-.395-.118-.99l1.247.099c.085 0 .202.016.303.049.034-.182.034-.264.034-.413-1.096 0-3.303.066-4.97.116v-1.272c.588.016 3.874.116 4.987.116 0-.165-.05-.645-.118-1.107l1.297.116c.186.016.506.032.506.215 0 .148-.236.28-.337.346-.016.132-.033.248-.033.43h2.695c0-.165 0-.298-.118-1.107l1.298.116c.186.016.505.032.505.215 0 .148-.235.28-.336.346-.017.132-.034.248-.034.43 2.426-.05 2.73-.066 4.651-.116v1.272c-2.174-.066-2.612-.083-4.651-.116v.265c0 .165.034.33.084.825l1.045.133c.252.032.421.05.421.197 0 .067-.084.199-.27.281-.016.281-.016.348-.033.827l.32-.017c.135 0 1.264-.066 2.275-.248-.455 1.14-.59 1.668-.59 2.33 0 .974.404 1.618.607 1.618.253 0 .286-1.057.286-1.271l1.062.891c-.101.529-.354 1.834-1.348 1.834zM236.118 35.666V41.2c0 .347.034 1.933 0 2.263-.1 1.157-1.062 1.157-2.662 1.14l-.69-1.7c.286.065.926.164 1.314.164.522 0 .522-.1.522-1.107v-6.31h-.287c-.573 0-1.146.05-1.719.149v-1.619c.59.1 1.45.133 1.72.133H236c.59 0 1.163-.033 1.736-.133v1.619c-.657-.132-1.432-.132-1.618-.132zm-4.381 5.98c-.135-2.115-.573-4.41-1.028-5.93l1.45-.297c.437 1.288.977 3.303 1.195 5.434l-1.617.792zm4.23-9.68h-1.433c-.488 0-.977.033-1.45.133v-.463l-1.094.892c-.691-.925-.978-1.19-1.382-1.52l1.061-.86c.675.43 1.282 1.223 1.416 1.471v-1.14c.489.1 1.213.133 1.45.133h1.432c.505 0 .994-.033 1.466-.133v1.62c-.624-.133-1.416-.133-1.466-.133zm-8.426 9.928l-1.55-.397c.775-1.503.977-3.568.977-5.054 0-.447-.017-.744-.017-.992l1.484.198c.067 2.032-.136 4.708-.894 6.245zm-1.028-10.737c-.084 0-.202-.017-.286-.05-.49.727-1.433 1.8-2.831 2.643l-1.332-.991c1.483-.71 2.781-2.081 3.236-3.006l1.331.792c.101.067.219.182.219.331 0 .148-.135.28-.337.28zm3.859 2.94c0 .182-.017.908-.017 1.057v4.922c0 .793.101 3.767.135 4.592h-1.753c.034-.76.152-4.113.152-4.79v-5.781c-.825 0-1.567.066-1.921.116.067.066.152.148.152.28 0 .265-.253.265-.354.265-.102 0-.152-.017-.253-.034-.286.446-.506.76-.91 1.255.236.1.438.183.438.397 0 .133-.067.182-.387.43-.017.61-.05 1.998-.05 2.61v2.295c0 .15.118 2.627.134 2.957h-1.752c.034-.446.185-2.544.185-2.725v-4.361c-.439.412-.691.595-.96.792l-1.298-.875c1.836-1.172 3.336-3.32 3.69-4.195l1.197.793v-1.47c.623.1 1.516.132 2.072.132v-.71c0-.397-.017-1.983-.017-2.379l1.685.182c.254.033.388.116.388.264 0 .198-.118.248-.522.446 0 .38-.017 1.47-.017 2.197.69 0 1.534-.033 2.19-.132v1.618c-.707-.115-1.483-.148-2.207-.148zM255.438 31.338c.185.248.337.446.59.826.825-.38 1.146-.595 1.466-.826h-2.056zm-1.331.1c-.186.099-.287.148-.556.314.168.197.421.478.792 1.106.354-.132.455-.166.606-.231-.235-.446-.472-.793-.842-1.19zm-1.55.776c-.17.066-.338.132-.54.198l-.742-.958v2.28c.405-.1.961-.215 1.956-.512-.135-.249-.27-.513-.674-1.008zm7.077 12.57c-2.544-.297-5.005-1.256-6.605-3.205-1.282 1.966-4.046 2.923-6.489 3.22l-1.06-1.353c2.61-.05 5.222-.81 6.099-2.33h-2.325c-.995 0-2.9 0-3.792.05v-1.387c.741.05 2.932.05 3.792.05h2.83c.051-.297.068-.512.068-.892 0-.463-.017-.744-.051-1.025l1.534.199c.37.049.539.131.539.28 0 .199-.253.248-.472.281 0 .396 0 .645-.084 1.156h1.938c-.354-.412-.607-.694-1.146-1.106l1.112-.727c.506.412.91.826 1.399 1.404l-.725.43h1.23c.877 0 2.275 0 3.101-.05v1.387c-.792-.05-2.258-.05-3.1-.05h-2.849c1.467 1.669 4.011 2.198 6.168 2.28l-1.112 1.388zm-.758-9.465v.81c0 .132.016.743.016.875 0 .843-.27 1.42-2.443 1.338l-.59-1.553c.22.066.725.182 1.23.182.186 0 .354-.034.354-.347V35.32h-2.831c.371.397.658.743.977 1.255l-1.145.743c-.286-.561-.523-.941-.978-1.519l.692-.462c-.388 0-.709.016-1.045.032v-.759c-.523.148-.691.198-.877.248l-.96-1.074v1.768c0 1.04.034 1.932.05 2.676h-1.5c.051-.645.051-1.835.051-2.545v-.363h-1.6c-.085 1.453-.776 2.56-1.871 3.353l-1.18-.892c.455-.28 1.618-.958 1.685-2.46-.59.016-.994.016-1.6.048v-1.287c.522.032 1.162.049 1.752.049h2.814v-1.338h-1.483c-.657 0-1.028.016-2.19.066.05-.595.05-.892.05-1.256v-.76c0-.148-.017-.545-.05-.891l1.365.132c.286.033.42.033.42.182 0 .148-.202.23-.336.264-.034.198-.051.38-.051.743v.396h2.275v-.792c0-.859 0-.959-.017-1.256l1.467.117c.067 0 .42.032.42.197 0 .182-.27.264-.403.314-.052.231-.069.463-.069.71v.38c1.23-.33 2.427-.875 3.17-1.899l1.212.23c.169.034.505.1.505.233 0 .165-.37.198-.505.214-.017.033-.034.066-.168.215h2.039c.522 0 1.044 0 1.752-.05l.64.727c-2.375 1.768-4.297 2.643-5.611 3.204h3.134c0-.264-.017-.66-.067-.975l1.516.1c.489.033.489.115.489.198 0 .182-.202.248-.489.347-.016.099-.016.215-.016.33 1.01 0 1.347-.016 1.752-.049v1.205c-.573-.032-.91-.032-1.752-.049zM9.454 36.36h3.219v-1.124h-3.22v1.124zm3.64-4.13h-.252c.32.364.623.744.892 1.14l-1.702.347c-.286-.628-.336-.71-.792-1.487h-1.18c-.404.628-.74 1.041-1.263 1.635l-1.382-.792c.253-.182.792-.528 1.483-1.652.421-.66.556-1.074.741-1.883l1.601.43c.135.032.27.066.27.23 0 .248-.236.282-.573.347-.084.215-.135.331-.236.53h2.41c.674 0 2.09-.034 2.746-.116v1.37c-1.162-.066-2.527-.099-2.763-.099zm-5.157 5.335H3.826c-.084.512-.118.678-.236 1.173h4.347v-1.173zm7.432 5.105c-.202.511-.556 1.255-2.83 1.354l-.894-1.718c.741.083 1.18.132 1.482.132.658 0 .945-.23 1.012-2.412H9.454v1.058c0 .38.135 3.17.169 3.584H7.752c.101-.644.185-3.04.185-3.618-.218.315-.808 1.173-1.87 1.95-1.044.743-2.224 1.271-3.454 1.651l-1.214-1.404c2.056-.577 3.943-1.27 5.527-3.22H3.253c-.05.132-.354 1.023-.421 1.238l-1.669-.429c.388-.743 1.13-2.098 1.18-4.509.843.016.96.016 2.157.016 1.196.017 1.331.017 1.988.017h1.45v-1.124H6.252c-.22 0-2.747.067-4.213.232v-1.586c1.954.148 2.83.132 4.145.132h4.264c.674 0 3.235-.115 3.74-.132-.017.28-.05 1.09-.05 1.354v1.124c0 .248.067 1.007.101 1.255-.54-.033-3.354-.05-3.438-.05H9.454v1.173h2.932c.978 0 2.174-.033 3.421-.115-.185 3.04-.202 3.452-.438 4.047zM6.387 32.23h-.32c.169.281.404.678.69 1.289l-1.634.346c-.151-.594-.201-.726-.539-1.635H3.76c-.253.281-.86.843-1.72 1.437L.827 32.76c.675-.414 1.146-.71 1.652-1.272.118-.132.927-1.04 1.264-1.966l1.398.414c.22.065.304.115.304.28 0 .231-.169.281-.522.347-.119.182-.153.215-.338.528h1.803c.067 0 .59-.015.877-.032.202-.017.455-.017.977-.033v1.288c-.624-.05-1.23-.083-1.854-.083zM33.476 36.839h-1.382v2.84l.016 2.28c0 .859 0 1.999.051 2.56h-1.736c.067-.594.084-4.311.084-5.12v-2.56h-1.617l-2.326.016c-.875 0-2.038 0-2.611.05v-1.52c.606.05 4.398.066 5.224.066h1.33v-1.437c0-2.098 0-2.379-.084-4.311l1.82.182c.169.016.59.065.59.297 0 .132-.017.132-.59.446-.034.33-.084.826-.1 1.8 0 .364-.05 2.032-.05 2.362v.661h1.667l2.325-.016c.877 0 2.039 0 2.613-.05v1.52c-.607-.05-4.399-.066-5.224-.066M60.547 43.61c-1.247-.858-3.286-2.377-4.331-5.598-.573-1.768-.674-3.304-.691-5.914-.337 0-1.112.05-1.416.083V30.43c.32.05 1.349.082 1.484.082h.488c.253 0 1.029-.065 1.331-.082-.134.858-.185 2.18-.185 3.072 0 3.403 1.264 6.69 4.802 8.705l-1.482 1.404zm-7.853-11.248c.017.314.034.694.034 1.075 0 5.384-2.814 8.886-4.415 10.091l-1.837-.99c.556-.331 2.09-1.24 3.337-3.601 1.264-2.412 1.264-4.526 1.264-5.434 0-.91-.034-1.355-.102-2.346l1.854.595c.27.082.405.131.405.247 0 .215-.338.314-.54.363zM79.664 37.714h-.27v1.867c.355 0 1.264-.017 1.972-.132v1.486c-.573-.099-1.297-.099-1.887-.099h-1.87c-.607 0-1.315 0-1.87.099v-1.486c.757.132 1.802.132 1.87.132h.336v-1.867h-.353c-.354 0-1.349.033-2.073.083v-1.388c.691.05 1.635.083 2.073.083h.353c-.017-.413-.017-.545-.067-1.718l1.264.1c.607.048.674.065.674.263 0 .149-.033.165-.37.38l-.051.974h.27c.454 0 1.398-.032 2.072-.082v1.388c-.623-.05-1.652-.083-2.073-.083zm4.196-1.222c-.067 1.619-.067 1.8-.067 2.725v1.95c0 .775 0 .891.118 3.286h-1.753c.017-.198.051-1.056.068-1.238h-7.162c.017.313.05.891.084 1.172h-1.837c.135-1.668.152-2.906.152-3.105V39.45c0-1.57 0-2.048-.05-3.65l1.533.082c.405.016.573.049.573.264 0 .181-.118.231-.489.346-.017.298-.05 1.983-.05 2.346v3.04h7.296v-2.791c0-.827-.034-2.066-.067-3.255l1.483.083c.404.016.607.016.607.247 0 .182-.22.265-.439.33zm-10.751-3.403h8.982v-1.57h-8.982v1.57zm10.566-1.387v1.09c0 .066 0 .974.034 1.57-.86-.05-3.926-.084-4.837-.084h-5.73c-.133 3.09-.286 6.608-2.578 9.928l-1.668-.595c.405-.495 1.23-1.536 1.82-3.32.742-2.197.877-4.212.877-6.013 0-.908-.034-1.75-.202-4.112.185 0 1.5.066 1.769.066.353.016 1.887.033 2.19.033h4.72c.622 0 3.049-.05 3.673-.083-.034.396-.068.892-.068 1.52z" mask="url(#prefix__d)"/>
        <path fill="#FFE61A" fill-opacity=".5" d="M0 42.593L260.401 42.593 260.401 35.204 0 35.204z" mask="url(#prefix__d)"/>
    </g>
</svg>
