<svg xmlns="http://www.w3.org/2000/svg" width="243" height="272" viewBox="0 0 243 272">
    <g fill="none" fill-rule="evenodd">
        <path fill="#FFF" d="M242.186 135.898c0 18.72-4.936 37.114-14.275 53.194-6.625 11.412-15.234 21.378-25.586 29.62-10.44 8.312-22.183 14.49-34.896 18.364-.773.21-1.566.465-2.42.777-20.163 7.356-33.634 17.694-43.63 33.472-9.994-15.778-23.468-26.116-43.63-33.472-.854-.312-1.646-.567-2.412-.774-12.72-3.876-24.463-10.055-34.903-18.367-10.352-8.242-18.961-18.208-25.586-29.621C5.55 173.085.62 154.785.577 136.153h.237v-.051c0-18.72 4.937-37.114 14.276-53.194 6.626-11.413 15.233-21.378 25.585-29.62 10.441-8.312 22.184-14.492 34.896-18.364.773-.211 1.566-.465 2.42-.777 20.163-7.357 33.635-17.696 43.63-33.472 9.996 15.776 23.468 26.115 43.63 33.472.856.312 1.647.566 2.413.774 12.72 3.875 24.464 10.055 34.904 18.367 10.352 8.242 18.96 18.207 25.584 29.62 9.298 16.006 14.227 34.306 14.272 52.939h-.238v.051zm.814.204c0-18.822-4.963-37.317-14.353-53.483-6.661-11.475-15.317-21.495-25.724-29.782-10.496-8.356-22.304-14.569-35.101-18.468-.759-.207-1.535-.455-2.375-.761C145.252 26.238 131.81 15.873 121.864 0l-.243.153L121.38 0c-9.948 15.873-23.389 26.238-43.584 33.608-.84.306-1.617.554-2.383.763-12.789 3.897-24.596 10.11-35.093 18.466-10.408 8.287-19.063 18.307-25.724 29.782C5.248 98.712.291 117.113.246 135.847H0v.051c0 18.821 4.963 37.316 14.353 53.482 6.661 11.475 15.317 21.495 25.725 29.782 10.496 8.356 22.304 14.57 35.101 18.469.759.206 1.536.455 2.374.762 20.195 7.368 33.637 17.732 43.584 33.607l.243-.153.241.153c9.947-15.875 23.39-26.239 43.583-33.607.84-.307 1.617-.556 2.383-.765 12.79-3.896 24.597-10.11 35.093-18.466 10.409-8.287 19.064-18.307 25.725-29.782 9.347-16.093 14.304-34.494 14.349-53.227H243v-.051z"/>
    </g>
</svg>
