<svg xmlns="http://www.w3.org/2000/svg" viewBox="0 0 130.39 145.37"><title>Asset 1</title><g id="Layer_2" data-name="Layer 2"><g id="Layer_1-2" data-name="Layer 1"><path d="M130.39,72.9A56.86,56.86,0,0,0,90.18,18.43c-.41-.12-.83-.25-1.27-.41-10.84-4-18-9.51-23.35-18l-.14.08L65.3,0C59.91,8.5,52.71,14,41.87,17.92c-.45.16-.87.29-1.29.4A56.8,56.8,0,0,0,.13,72.47H0a56.87,56.87,0,0,0,40.22,54.47c.41.11.83.25,1.27.4,10.84,4,18,9.52,23.35,18l.13-.07.13.08c5.39-8.5,12.59-14,23.43-17.92.45-.16.86-.29,1.27-.4A56.78,56.78,0,0,0,130.28,73l.1-.06Zm-.44-.12a56.56,56.56,0,0,1-40.24,54c-.41.1-.83.24-1.29.4C77.59,131.1,70.35,136.61,65,145c-5.35-8.45-12.56-14-23.37-17.94a10.67,10.67,0,0,0-1.27-.4,56.44,56.44,0,0,1-40-54H.45a56.55,56.55,0,0,1,40.22-54c.42-.11.84-.25,1.31-.41C52.81,14.29,60.05,8.79,65.43.37,70.77,8.82,78,14.36,88.8,18.31a12.24,12.24,0,0,0,1.28.4,56.43,56.43,0,0,1,40,54.06H130Z" style="fill:#111110"/></g></g></svg>