<svg xmlns="http://www.w3.org/2000/svg" viewBox="0 0 7760 80" width="7760" height="80"><g fill="#ffffff"><path d="M65.92 21.35c.005-.06.005-.12 0-.18-.007-.136-.03-.27-.07-.4-.004-.016-.004-.034 0-.05 0-.06-.06-.1-.08-.16-.05-.112-.11-.219-.18-.32-.044-.068-.095-.131-.15-.19l-.24-.23c-.069-.056-.143-.106-.22-.15l-.15-.1h-.14l-.25-.08c-.111-.032-.225-.049-.34-.05-.046-.006-.094-.006-.14 0H32.42c-.411.003-.811.128-1.15.36L14.55 31.41c-.142.114-.273.241-.39.38l-.06.07c-.103.149-.187.31-.25.48v.11c-.051.166-.081.337-.09.51-.001.017-.001.033 0 .05V66.5c0 .53.211 1.039.586 1.414s.884.586 1.414.586h33.39c.126.015.254.015.38 0h.17l.2-.06c.06-.024.117-.054.17-.09l.17-.09.16-.12.12-.1L65.29 54c.198-.186.356-.411.464-.66.109-.249.165-.518.166-.79v-31.2zm-32.87 2h25.11l-9.71 7.68h-26.4zm-15.36 11.7h29.46V64.5H17.69zm33.46 26.8V34l10.77-8.5v26.15z"/><path d="M47.94 28.1l-15.33-.15 7.82-19.6 15.33.16-7.82 19.59z"/></g><g fill="#ffffff"><path d="M145.92 21.35c.005-.06.005-.12 0-.18-.007-.136-.03-.27-.07-.4-.004-.016-.004-.034 0-.05 0-.06-.06-.1-.08-.16-.05-.112-.11-.219-.18-.32-.044-.068-.095-.131-.15-.19l-.24-.23c-.069-.056-.143-.106-.22-.15l-.15-.1h-.14l-.25-.08c-.111-.032-.225-.049-.34-.05-.046-.006-.094-.006-.14 0h-31.54c-.411.003-.811.128-1.15.36L94.55 31.41c-.142.114-.273.241-.39.38l-.06.07c-.103.149-.187.31-.25.48v.11c-.051.166-.081.337-.09.51-.001.017-.001.033 0 .05V66.5c0 .53.211 1.039.586 1.414s.884.586 1.414.586h33.39c.126.015.254.015.38 0h.17l.2-.06c.06-.024.117-.054.17-.09l.17-.09.16-.12.12-.1L145.29 54c.198-.186.356-.411.464-.66.109-.249.165-.518.166-.79v-31.2zm-32.87 2h25.11l-9.71 7.68h-26.4zm-15.36 11.7h29.46V64.5H97.69zm33.46 26.8V34l10.77-8.5v26.15z"/><path d="M127.948 28.099l-15.346-.148 7.415-19.381 15.347.158-7.416 19.371z"/></g><g fill="#ffffff"><path d="M225.92 21.35c.005-.06.005-.12 0-.18-.007-.136-.03-.27-.07-.4-.004-.016-.004-.034 0-.05 0-.06-.06-.1-.08-.16-.05-.112-.11-.219-.18-.32-.044-.068-.095-.131-.15-.19l-.24-.23c-.069-.056-.143-.106-.22-.15l-.15-.1h-.14l-.25-.08c-.111-.032-.225-.049-.34-.05-.046-.006-.094-.006-.14 0h-31.54c-.411.003-.811.128-1.15.36l-16.72 11.61c-.142.114-.273.241-.39.38l-.06.07c-.103.149-.187.31-.25.48v.11c-.051.166-.081.337-.09.51-.001.017-.001.033 0 .05V66.5c0 .53.211 1.039.586 1.414s.884.586 1.414.586h33.39c.126.015.254.015.38 0h.17l.2-.06c.06-.024.117-.054.17-.09l.17-.09.16-.12.12-.1L225.29 54c.198-.186.356-.411.464-.66.109-.249.165-.518.166-.79v-31.2zm-32.87 2h25.11l-9.71 7.68h-26.4zm-15.36 11.7h29.46V64.5h-29.46zm33.46 26.8V34l10.77-8.5v26.15z"/><path d="M207.984 28.096l-15.418-.142 5.625-18.412 15.422.152-5.629 18.402z"/></g><g fill="#ffffff"><path d="M305.92 21.35c.005-.06.005-.12 0-.18-.007-.136-.03-.27-.07-.4-.004-.016-.004-.034 0-.05 0-.06-.06-.1-.08-.16-.05-.112-.11-.219-.18-.32-.044-.068-.095-.131-.15-.19l-.24-.23c-.069-.056-.143-.106-.22-.15l-.15-.1h-.14l-.25-.08c-.111-.032-.225-.049-.34-.05-.046-.006-.094-.006-.14 0h-31.54c-.411.003-.811.128-1.15.36l-16.72 11.61c-.142.114-.273.241-.39.38l-.06.07c-.103.149-.187.31-.25.48v.11c-.051.166-.081.337-.09.51-.001.017-.001.033 0 .05V66.5c0 .53.211 1.039.586 1.414s.884.586 1.414.586h33.39c.126.015.254.015.38 0h.17l.2-.06c.06-.024.117-.054.17-.09l.17-.09.16-.12.12-.1L305.29 54c.198-.186.356-.411.464-.66.109-.249.165-.518.166-.79v-31.2zm-32.87 2h25.11l-9.71 7.68h-26.4zm-15.36 11.7h29.46V64.5h-29.46zm33.46 26.8V34l10.77-8.5v26.15z"/><path d="M288.016 28.092l-15.482-.134 4.013-17.541 15.49.145-4.021 17.53z"/></g><g fill="#ffffff"><path d="M385.92 21.35c.005-.06.005-.12 0-.18-.007-.136-.03-.27-.07-.4-.004-.016-.004-.034 0-.05 0-.06-.06-.1-.08-.16-.05-.112-.11-.219-.18-.32-.044-.068-.095-.131-.15-.19l-.24-.23c-.069-.056-.143-.106-.22-.15l-.15-.1h-.14l-.25-.08c-.111-.032-.225-.049-.34-.05-.046-.006-.094-.006-.14 0h-31.54c-.411.003-.811.128-1.15.36l-16.72 11.61c-.142.114-.273.241-.39.38l-.06.07c-.103.149-.187.31-.25.48v.11c-.051.166-.081.337-.09.51-.001.017-.001.033 0 .05V66.5c0 .53.211 1.039.586 1.414s.884.586 1.414.586h33.39c.126.015.254.015.38 0h.17l.2-.06c.06-.024.117-.054.17-.09l.17-.09.16-.12.12-.1L385.29 54c.198-.186.356-.411.464-.66.109-.249.165-.518.166-.79v-31.2zm-32.87 2h25.11l-9.71 7.68h-26.4zm-15.36 11.7h29.46V64.5h-29.46zm33.46 26.8V34l10.77-8.5v26.15z"/><path d="M368.031 28.091l-15.512-.132 3.263-17.135 15.522.142-3.273 17.125z"/></g><g fill="#ffffff"><path d="M465.92 21.35c.005-.06.005-.12 0-.18-.007-.136-.03-.27-.07-.4-.004-.016-.004-.034 0-.05 0-.06-.06-.1-.08-.16-.05-.112-.11-.219-.18-.32-.044-.068-.095-.131-.15-.19l-.24-.23c-.069-.056-.143-.106-.22-.15l-.15-.1h-.14l-.25-.08c-.111-.032-.225-.049-.34-.05-.046-.006-.094-.006-.14 0h-31.54c-.411.003-.811.128-1.15.36l-16.72 11.61c-.142.114-.273.241-.39.38l-.06.07c-.103.149-.187.31-.25.48v.11c-.051.166-.081.337-.09.51-.001.017-.001.033 0 .05V66.5c0 .53.211 1.039.586 1.414s.884.586 1.414.586h33.39c.126.015.254.015.38 0h.17l.2-.06c.06-.024.117-.054.17-.09l.17-.09.16-.12.12-.1L465.29 54c.198-.186.356-.411.464-.66.109-.249.165-.518.166-.79v-31.2zm-32.87 2h25.11l-9.71 7.68h-26.4zm-15.36 11.7h29.46V64.5h-29.46zm33.46 26.8V34l10.77-8.5v26.15z"/><path d="M448.038 28.09l-15.526-.13 2.932-16.955 15.535.14-2.941 16.945z"/></g><g fill="#ffffff"><path d="M545.92 21.35c.005-.06.005-.12 0-.18-.007-.136-.03-.27-.07-.4-.004-.016-.004-.034 0-.05 0-.06-.06-.1-.08-.16-.05-.112-.11-.219-.18-.32-.044-.068-.095-.131-.15-.19l-.24-.23c-.069-.056-.143-.106-.22-.15l-.15-.1h-.14l-.25-.08c-.111-.032-.225-.049-.34-.05-.046-.006-.094-.006-.14 0h-31.54c-.411.003-.811.128-1.15.36l-16.72 11.61c-.142.114-.273.241-.39.38l-.06.07c-.103.149-.187.31-.25.48v.11c-.051.166-.081.337-.09.51-.001.017-.001.033 0 .05V66.5c0 .53.211 1.039.586 1.414s.884.586 1.414.586h33.39c.126.015.254.015.38 0h.17l.2-.06c.06-.024.117-.054.17-.09l.17-.09.16-.12.12-.1L545.29 54c.198-.186.356-.411.464-.66.109-.249.165-.518.166-.79v-31.2zm-32.87 2h25.11l-9.71 7.68h-26.4zm-15.36 11.7h29.46V64.5h-29.46zm33.46 26.8V34l10.77-8.5v26.15z"/><path d="M528.04 28.09l-15.53-.13 2.831-16.901 15.54.14-2.841 16.891z"/></g><g fill="#ffffff"><path d="M625.92 21.35c.005-.06.005-.12 0-.18-.007-.136-.03-.27-.07-.4-.004-.016-.004-.034 0-.05 0-.06-.06-.1-.08-.16-.05-.112-.11-.219-.18-.32-.044-.068-.095-.131-.15-.19l-.24-.23c-.069-.056-.143-.106-.22-.15l-.15-.1h-.14l-.25-.08c-.111-.032-.225-.049-.34-.05-.046-.006-.094-.006-.14 0h-31.54c-.411.003-.811.128-1.15.36l-16.72 11.61c-.142.114-.273.241-.39.38l-.06.07c-.103.149-.187.31-.25.48v.11c-.051.166-.081.337-.09.51-.001.017-.001.033 0 .05V66.5c0 .53.211 1.039.586 1.414s.884.586 1.414.586h33.39c.126.015.254.015.38 0h.17l.2-.06c.06-.024.117-.054.17-.09l.17-.09.16-.12.12-.1L625.29 54c.198-.186.356-.411.464-.66.109-.249.165-.518.166-.79v-31.2zm-32.87 2h25.11l-9.71 7.68h-26.4zm-15.36 11.7h29.46V64.5h-29.46zm33.46 26.8V34l10.77-8.5v26.15z"/><path d="M608.034 28.091l-15.519-.132 2.992-17.053 15.529.141-3.002 17.044z"/></g><g fill="#ffffff"><path d="M705.92 21.35c.005-.06.005-.12 0-.18-.007-.136-.03-.27-.07-.4-.004-.016-.004-.034 0-.05 0-.06-.06-.1-.08-.16-.05-.112-.11-.219-.18-.32-.044-.068-.095-.131-.15-.19l-.24-.23c-.069-.056-.143-.106-.22-.15l-.15-.1h-.14l-.25-.08c-.111-.032-.225-.049-.34-.05-.046-.006-.094-.006-.14 0h-31.54c-.411.003-.811.128-1.15.36l-16.72 11.61c-.142.114-.273.241-.39.38l-.06.07c-.103.149-.187.31-.25.48v.11c-.051.166-.081.337-.09.51-.001.017-.001.033 0 .05V66.5c0 .53.211 1.039.586 1.414s.884.586 1.414.586h33.39c.126.015.254.015.38 0h.17l.2-.06c.06-.024.117-.054.17-.09l.17-.09.16-.12.12-.1L705.29 54c.198-.186.356-.411.464-.66.109-.249.165-.518.166-.79v-31.2zm-32.87 2h25.11l-9.71 7.68h-26.4zm-15.36 11.7h29.46V64.5h-29.46zm33.46 26.8V34l10.77-8.5v26.15z"/><path d="M688.003 28.094l-15.46-.138 3.883-17.901 15.47.148-3.893 17.891z"/></g><g fill="#ffffff"><path d="M785.92 21.35c.005-.06.005-.12 0-.18-.007-.136-.03-.27-.07-.4-.004-.016-.004-.034 0-.05 0-.06-.06-.1-.08-.16-.05-.112-.11-.219-.18-.32-.044-.068-.095-.131-.15-.19l-.24-.23c-.069-.056-.143-.106-.22-.15l-.15-.1h-.14l-.25-.08c-.111-.032-.225-.049-.34-.05-.046-.006-.094-.006-.14 0h-31.54c-.411.003-.811.128-1.15.36l-16.72 11.61c-.142.114-.273.241-.39.38l-.06.07c-.103.149-.187.31-.25.48v.11c-.051.166-.081.337-.09.51-.001.017-.001.033 0 .05V66.5c0 .53.211 1.039.586 1.414s.884.586 1.414.586h33.39c.126.015.254.015.38 0h.17l.2-.06c.06-.024.117-.054.17-.09l.17-.09.16-.12.12-.1L785.29 54c.198-.186.356-.411.464-.66.109-.249.165-.518.166-.79v-31.2zm-32.87 2h25.11l-9.71 7.68h-26.4zm-15.36 11.7h29.46V64.5h-29.46zm33.46 26.8V34l10.77-8.5v26.15z"/><path d="M767.968 28.097l-15.393-.144 4.881-18.85 15.403.154-4.891 18.84z"/></g><g fill="#ffffff"><path d="M865.92 21.35c.005-.06.005-.12 0-.18-.007-.136-.03-.27-.07-.4-.004-.016-.004-.034 0-.05 0-.06-.06-.1-.08-.16-.05-.112-.11-.219-.18-.32-.044-.068-.095-.131-.15-.19l-.24-.23c-.069-.056-.143-.106-.22-.15l-.15-.1h-.14l-.25-.08c-.111-.032-.225-.049-.34-.05-.046-.006-.094-.006-.14 0h-31.54c-.411.003-.811.128-1.15.36l-16.72 11.61c-.142.114-.273.241-.39.38l-.06.07c-.103.149-.187.31-.25.48v.11c-.051.166-.081.337-.09.51-.001.017-.001.033 0 .05V66.5c0 .53.211 1.039.586 1.414s.884.586 1.414.586h33.39c.126.015.254.015.38 0h.17l.2-.06c.06-.024.117-.054.17-.09l.17-.09.16-.12.12-.1L865.29 54c.198-.186.356-.411.464-.66.109-.249.165-.518.166-.79v-31.2zm-32.87 2h25.11l-9.71 7.68h-26.4zm-15.36 11.7h29.46V64.5h-29.46zm33.46 26.8V34l10.77-8.5v26.15z"/><path d="M847.951 28.099l-15.361-.148 5.364-19.309 15.371.158-5.374 19.299z"/></g><g fill="#ffffff"><path d="M945.92 21.35c.005-.06.005-.12 0-.18-.007-.136-.03-.27-.07-.4-.004-.016-.004-.034 0-.05 0-.06-.06-.1-.08-.16-.05-.112-.11-.219-.18-.32-.044-.068-.095-.131-.15-.19l-.24-.23c-.069-.056-.143-.106-.22-.15l-.15-.1h-.14l-.25-.08c-.111-.032-.225-.049-.34-.05-.046-.006-.094-.006-.14 0h-31.54c-.411.003-.811.128-1.15.36l-16.72 11.61c-.142.114-.273.241-.39.38l-.06.07c-.103.149-.187.31-.25.48v.11c-.051.166-.081.337-.09.51-.001.017-.001.033 0 .05V66.5c0 .53.211 1.039.586 1.414s.884.586 1.414.586h33.39c.126.015.254.015.38 0h.17l.2-.06c.06-.024.117-.054.17-.09l.17-.09.16-.12.12-.1L945.29 54c.198-.186.356-.411.464-.66.109-.249.165-.518.166-.79v-31.2zm-32.87 2h25.11l-9.71 7.68h-26.4zm-15.36 11.7h29.46V64.5h-29.46zm33.46 26.8V34l10.77-8.5v26.15z"/><path d="M927.943 28.1l-15.346-.15 5.585-19.519 15.356.159-5.595 19.51z"/></g><g fill="#ffffff"><path d="M1025.92 21.35c.005-.06.005-.12 0-.18-.007-.136-.03-.27-.07-.4-.004-.016-.004-.034 0-.05 0-.06-.06-.1-.08-.16-.05-.112-.11-.219-.18-.32-.044-.068-.095-.131-.15-.19l-.24-.23c-.069-.056-.143-.106-.22-.15l-.15-.1h-.14l-.25-.08c-.111-.032-.225-.049-.34-.05-.046-.006-.094-.006-.14 0h-31.54c-.411.003-.811.128-1.15.36l-16.72 11.61c-.142.114-.273.241-.39.38l-.06.07c-.103.149-.187.31-.25.48v.11c-.051.166-.081.337-.09.51-.001.017-.001.033 0 .05V66.5c0 .53.211 1.039.586 1.414s.884.586 1.414.586h33.39c.126.015.254.015.38 0h.17l.2-.06c.06-.024.117-.054.17-.09l.17-.09.16-.12.12-.1L1025.29 54c.198-.186.356-.411.464-.66.109-.249.165-.518.166-.79v-31.2zm-32.87 2h25.11l-9.71 7.68h-26.4zm-15.36 11.7h29.46V64.5h-29.46zm33.46 26.8V34l10.77-8.5v26.15z"/><path d="M1007.94 28.1l-15.34-.15 5.665-19.595 15.35.16-5.675 19.585z"/></g><g fill="#ffffff"><path d="M1105.92 21.35c.005-.06.005-.12 0-.18-.007-.136-.03-.27-.07-.4-.004-.016-.004-.034 0-.05 0-.06-.06-.1-.08-.16-.05-.112-.11-.219-.18-.32-.044-.068-.095-.131-.15-.19l-.24-.23c-.069-.056-.143-.106-.22-.15l-.15-.1h-.14l-.25-.08c-.111-.032-.225-.049-.34-.05-.046-.006-.094-.006-.14 0h-31.54c-.411.003-.811.128-1.15.36l-16.72 11.61c-.142.114-.273.241-.39.38l-.06.07c-.103.149-.187.31-.25.48v.11c-.051.166-.081.337-.09.51-.001.017-.001.033 0 .05V66.5c0 .53.211 1.039.586 1.414s.884.586 1.414.586h33.39c.126.015.254.015.38 0h.17l.2-.06c.06-.024.117-.054.17-.09l.17-.09.16-.12.12-.1L1105.29 54c.198-.186.356-.411.464-.66.109-.249.165-.518.166-.79v-31.2zm-32.87 2h25.11l-9.71 7.68h-26.4zm-15.36 11.7h29.46V64.5h-29.46zm33.46 26.8V34l10.77-8.5v26.15z"/><path d="M1087.943 28.1l-15.346-.15 5.551-19.479 15.356.159-5.561 19.47z"/></g><g fill="#ffffff"><path d="M1185.92 21.35c.005-.06.005-.12 0-.18-.007-.136-.03-.27-.07-.4-.004-.016-.004-.034 0-.05 0-.06-.06-.1-.08-.16-.05-.112-.11-.219-.18-.32-.044-.068-.095-.131-.15-.19l-.24-.23c-.069-.056-.143-.106-.22-.15l-.15-.1h-.14l-.25-.08c-.111-.032-.225-.049-.34-.05-.046-.006-.094-.006-.14 0h-31.54c-.411.003-.811.128-1.15.36l-16.72 11.61c-.142.114-.273.241-.39.38l-.06.07c-.103.149-.187.31-.25.48v.11c-.051.166-.081.337-.09.51-.001.017-.001.033 0 .05V66.5c0 .53.211 1.039.586 1.414s.884.586 1.414.586h33.39c.126.015.254.015.38 0h.17l.2-.06c.06-.024.117-.054.17-.09l.17-.09.16-.12.12-.1L1185.29 54c.198-.186.356-.411.464-.66.109-.249.165-.518.166-.79v-31.2zm-32.87 2h25.11l-9.71 7.68h-26.4zm-15.36 11.7h29.46V64.5h-29.46zm33.46 26.8V34l10.77-8.5v26.15z"/><path d="M1167.967 28.097l-15.392-.144 4.5-18.416 15.402.154-4.51 18.406z"/></g><g fill="#ffffff"><path d="M1265.92 21.35c.005-.06.005-.12 0-.18-.007-.136-.03-.27-.07-.4-.004-.016-.004-.034 0-.05 0-.06-.06-.1-.08-.16-.05-.112-.11-.219-.18-.32-.044-.068-.095-.131-.15-.19l-.24-.23c-.069-.056-.143-.106-.22-.15l-.15-.1h-.14l-.25-.08c-.111-.032-.225-.049-.34-.05-.046-.006-.094-.006-.14 0h-31.54c-.411.003-.811.128-1.15.36l-16.72 11.61c-.142.114-.273.241-.39.38l-.06.07c-.103.149-.187.31-.25.48v.11c-.051.166-.081.337-.09.51-.001.017-.001.033 0 .05V66.5c0 .53.211 1.039.586 1.414s.884.586 1.414.586h33.39c.126.015.254.015.38 0h.17l.2-.06c.06-.024.117-.054.17-.09l.17-.09.16-.12.12-.1L1265.29 54c.198-.186.356-.411.464-.66.109-.249.165-.518.166-.79v-31.2zm-32.87 2h25.11l-9.71 7.68h-26.4zm-15.36 11.7h29.46V64.5h-29.46zm33.46 26.8V34l10.77-8.5v26.15z"/><path d="M1248.007 28.093l-15.467-.136 2.835-16.732 15.476.147-2.844 16.721z"/></g><g fill="#ffffff"><path d="M1345.92 21.35c.005-.06.005-.12 0-.18-.007-.136-.03-.27-.07-.4-.004-.016-.004-.034 0-.05 0-.06-.06-.1-.08-.16-.05-.112-.11-.219-.18-.32-.044-.068-.095-.131-.15-.19l-.24-.23c-.069-.056-.143-.106-.22-.15l-.15-.1h-.14l-.25-.08c-.111-.032-.225-.049-.34-.05-.046-.006-.094-.006-.14 0h-31.54c-.411.003-.811.128-1.15.36l-16.72 11.61c-.142.114-.273.241-.39.38l-.06.07c-.103.149-.187.31-.25.48v.11c-.051.166-.081.337-.09.51-.001.017-.001.033 0 .05V66.5c0 .53.211 1.039.586 1.414s.884.586 1.414.586h33.39c.126.015.254.015.38 0h.17l.2-.06c.06-.024.117-.054.17-.09l.17-.09.16-.12.12-.1L1345.29 54c.198-.186.356-.411.464-.66.109-.249.165-.518.166-.79v-31.2zm-32.87 2h25.11l-9.71 7.68h-26.4zm-15.36 11.7h29.46V64.5h-29.46zm33.46 26.8V34l10.77-8.5v26.15z"/><path d="M1328.027 28.091l-15.505-.132 1.976-15.863 15.515.143-1.986 15.852z"/></g><g fill="#ffffff"><path d="M1425.92 21.35c.005-.06.005-.12 0-.18-.007-.136-.03-.27-.07-.4-.004-.016-.004-.034 0-.05 0-.06-.06-.1-.08-.16-.05-.112-.11-.219-.18-.32-.044-.068-.095-.131-.15-.19l-.24-.23c-.069-.056-.143-.106-.22-.15l-.15-.1h-.14l-.25-.08c-.111-.032-.225-.049-.34-.05-.046-.006-.094-.006-.14 0h-31.54c-.411.003-.811.128-1.15.36l-16.72 11.61c-.142.114-.273.241-.39.38l-.06.07c-.103.149-.187.31-.25.48v.11c-.051.166-.081.337-.09.51-.001.017-.001.033 0 .05V66.5c0 .53.211 1.039.586 1.414s.884.586 1.414.586h33.39c.126.015.254.015.38 0h.17l.2-.06c.06-.024.117-.054.17-.09l.17-.09.16-.12.12-.1L1425.29 54c.198-.186.356-.411.464-.66.109-.249.165-.518.166-.79v-31.2zm-32.87 2h25.11l-9.71 7.68h-26.4zm-15.36 11.7h29.46V64.5h-29.46zm33.46 26.8V34l10.77-8.5v26.15z"/><path d="M1408.036 28.09l-15.522-.13 1.581-15.464 15.533.141-1.592 15.453z"/></g><g fill="#ffffff"><path d="M1505.92 21.35c.005-.06.005-.12 0-.18-.007-.136-.03-.27-.07-.4-.004-.016-.004-.034 0-.05 0-.06-.06-.1-.08-.16-.05-.112-.11-.219-.18-.32-.044-.068-.095-.131-.15-.19l-.24-.23c-.069-.056-.143-.106-.22-.15l-.15-.1h-.14l-.25-.08c-.111-.032-.225-.049-.34-.05-.046-.006-.094-.006-.14 0h-31.54c-.411.003-.811.128-1.15.36l-16.72 11.61c-.142.114-.273.241-.39.38l-.06.07c-.103.149-.187.31-.25.48v.11c-.051.166-.081.337-.09.51-.001.017-.001.033 0 .05V66.5c0 .53.211 1.039.586 1.414s.884.586 1.414.586h33.39c.126.015.254.015.38 0h.17l.2-.06c.06-.024.117-.054.17-.09l.17-.09.16-.12.12-.1L1505.29 54c.198-.186.356-.411.464-.66.109-.249.165-.518.166-.79v-31.2zm-32.87 2h25.11l-9.71 7.68h-26.4zm-15.36 11.7h29.46V64.5h-29.46zm33.46 26.8V34l10.77-8.5v26.15z"/><path d="M1488.04 28.09l-15.53-.13 1.429-15.308 15.539.14-1.438 15.298z"/></g><g fill="#ffffff"><path d="M1585.92 21.35c.005-.06.005-.12 0-.18-.007-.136-.03-.27-.07-.4-.004-.016-.004-.034 0-.05 0-.06-.06-.1-.08-.16-.05-.112-.11-.219-.18-.32-.044-.068-.095-.131-.15-.19l-.24-.23c-.069-.056-.143-.106-.22-.15l-.15-.1h-.14l-.25-.08c-.111-.032-.225-.049-.34-.05-.046-.006-.094-.006-.14 0h-31.54c-.411.003-.811.128-1.15.36l-16.72 11.61c-.142.114-.273.241-.39.38l-.06.07c-.103.149-.187.31-.25.48v.11c-.051.166-.081.337-.09.51-.001.017-.001.033 0 .05V66.5c0 .53.211 1.039.586 1.414s.884.586 1.414.586h33.39c.126.015.254.015.38 0h.17l.2-.06c.06-.024.117-.054.17-.09l.17-.09.16-.12.12-.1L1585.29 54c.198-.186.356-.411.464-.66.109-.249.165-.518.166-.79v-31.2zm-32.87 2h25.11l-9.71 7.68h-26.4zm-15.36 11.7h29.46V64.5h-29.46zm33.46 26.8V34l10.77-8.5v26.15z"/><path d="M1568.04 28.09l-15.53-.13 1.386-15.243 15.54.14-1.396 15.233z"/></g><g fill="#ffffff"><path d="M1665.92 21.35c.005-.06.005-.12 0-.18-.007-.136-.03-.27-.07-.4-.004-.016-.004-.034 0-.05 0-.06-.06-.1-.08-.16-.05-.112-.11-.219-.18-.32-.044-.068-.095-.131-.15-.19l-.24-.23c-.069-.056-.143-.106-.22-.15l-.15-.1h-.14l-.25-.08c-.111-.032-.225-.049-.34-.05-.046-.006-.094-.006-.14 0h-31.54c-.411.003-.811.128-1.15.36l-16.72 11.61c-.142.114-.273.241-.39.38l-.06.07c-.103.149-.187.31-.25.48v.11c-.051.166-.081.337-.09.51-.001.017-.001.033 0 .05V66.5c0 .53.211 1.039.586 1.414s.884.586 1.414.586h33.39c.126.015.254.015.38 0h.17l.2-.06c.06-.024.117-.054.17-.09l.17-.09.16-.12.12-.1L1665.29 54c.198-.186.356-.411.464-.66.109-.249.165-.518.166-.79v-31.2zm-32.87 2h25.11l-9.71 7.68h-26.4zm-15.36 11.7h29.46V64.5h-29.46zm33.46 26.8V34l10.77-8.5v26.15z"/><path d="M1648.04 28.09l-15.53-.13 1.052-14.586 15.538.14-1.06 14.576z"/></g><g fill="#ffffff"><path d="M1745.92 21.35c.005-.06.005-.12 0-.18-.007-.136-.03-.27-.07-.4-.004-.016-.004-.034 0-.05 0-.06-.06-.1-.08-.16-.05-.112-.11-.219-.18-.32-.044-.068-.095-.131-.15-.19l-.24-.23c-.069-.056-.143-.106-.22-.15l-.15-.1h-.14l-.25-.08c-.111-.032-.225-.049-.34-.05-.046-.006-.094-.006-.14 0h-31.54c-.411.003-.811.128-1.15.36l-16.72 11.61c-.142.114-.273.241-.39.38l-.06.07c-.103.149-.187.31-.25.48v.11c-.051.166-.081.337-.09.51-.001.017-.001.033 0 .05V66.5c0 .53.211 1.039.586 1.414s.884.586 1.414.586h33.39c.126.015.254.015.38 0h.17l.2-.06c.06-.024.117-.054.17-.09l.17-.09.16-.12.12-.1L1745.29 54c.198-.186.356-.411.464-.66.109-.249.165-.518.166-.79v-31.2zm-32.87 2h25.11l-9.71 7.68h-26.4zm-15.36 11.7h29.46V64.5h-29.46zm33.46 26.8V34l10.77-8.5v26.15z"/><path d="M1728.04 28.09l-15.53-.13.309-13.122 15.534.14-.313 13.112z"/></g><g fill="#ffffff"><path d="M1825.92 21.35c.005-.06.005-.12 0-.18-.007-.136-.03-.27-.07-.4-.004-.016-.004-.034 0-.05 0-.06-.06-.1-.08-.16-.05-.112-.11-.219-.18-.32-.044-.068-.095-.131-.15-.19l-.24-.23c-.069-.056-.143-.106-.22-.15l-.15-.1h-.14l-.25-.08c-.111-.032-.225-.049-.34-.05-.046-.006-.094-.006-.14 0h-31.54c-.411.003-.811.128-1.15.36l-16.72 11.61c-.142.114-.273.241-.39.38l-.06.07c-.103.149-.187.31-.25.48v.11c-.051.166-.081.337-.09.51-.001.017-.001.033 0 .05V66.5c0 .53.211 1.039.586 1.414s.884.586 1.414.586h33.39c.126.015.254.015.38 0h.17l.2-.06c.06-.024.117-.054.17-.09l.17-.09.16-.12.12-.1L1825.29 54c.198-.186.356-.411.464-.66.109-.249.165-.518.166-.79v-31.2zm-32.87 2h25.11l-9.71 7.68h-26.4zm-15.36 11.7h29.46V64.5h-29.46zm33.46 26.8V34l10.77-8.5v26.15z"/><path d="M1808.04 28.09l-15.53-.13-.142-12.235 15.532.14.14 12.225z"/></g><g fill="#ffffff"><path d="M1905.92 21.35c.005-.06.005-.12 0-.18-.007-.136-.03-.27-.07-.4-.004-.016-.004-.034 0-.05 0-.06-.06-.1-.08-.16-.05-.112-.11-.219-.18-.32-.044-.068-.095-.131-.15-.19l-.24-.23c-.069-.056-.143-.106-.22-.15l-.15-.1h-.14l-.25-.08c-.111-.032-.225-.049-.34-.05-.046-.006-.094-.006-.14 0h-31.54c-.411.003-.811.128-1.15.36l-16.72 11.61c-.142.114-.273.241-.39.38l-.06.07c-.103.149-.187.31-.25.48v.11c-.051.166-.081.337-.09.51-.001.017-.001.033 0 .05V66.5c0 .53.211 1.039.586 1.414s.884.586 1.414.586h33.39c.126.015.254.015.38 0h.17l.2-.06c.06-.024.117-.054.17-.09l.17-.09.16-.12.12-.1L1905.29 54c.198-.186.356-.411.464-.66.109-.249.165-.518.166-.79v-31.2zm-32.87 2h25.11l-9.71 7.68h-26.4zm-15.36 11.7h29.46V64.5h-29.46zm33.46 26.8V34l10.77-8.5v26.15z"/><path d="M1888.04 28.09l-15.53-.13-.355-11.816 15.531.14.354 11.806z"/></g><g fill="#ffffff"><path d="M1985.92 21.35c.005-.06.005-.12 0-.18-.007-.136-.03-.27-.07-.4-.004-.016-.004-.034 0-.05 0-.06-.06-.1-.08-.16-.05-.112-.11-.219-.18-.32-.044-.068-.095-.131-.15-.19l-.24-.23c-.069-.056-.143-.106-.22-.15l-.15-.1h-.14l-.25-.08c-.111-.032-.225-.049-.34-.05-.046-.006-.094-.006-.14 0h-31.54c-.411.003-.811.128-1.15.36l-16.72 11.61c-.142.114-.273.241-.39.38l-.06.07c-.103.149-.187.31-.25.48v.11c-.051.166-.081.337-.09.51-.001.017-.001.033 0 .05V66.5c0 .53.211 1.039.586 1.414s.884.586 1.414.586h33.39c.126.015.254.015.38 0h.17l.2-.06c.06-.024.117-.054.17-.09l.17-.09.16-.12.12-.1L1985.29 54c.198-.186.356-.411.464-.66.109-.249.165-.518.166-.79v-31.2zm-32.87 2h25.11l-9.71 7.68h-26.4zm-15.36 11.7h29.46V64.5h-29.46zm33.46 26.8V34l10.77-8.5v26.15z"/><path d="M1968.04 28.09l-15.53-.13-.448-11.633 15.53.14.448 11.623z"/></g><g fill="#ffffff"><path d="M2065.92 21.35c.005-.06.005-.12 0-.18-.007-.136-.03-.27-.07-.4-.004-.016-.004-.034 0-.05 0-.06-.06-.1-.08-.16-.05-.112-.11-.219-.18-.32-.044-.068-.095-.131-.15-.19l-.24-.23c-.069-.056-.143-.106-.22-.15l-.15-.1h-.14l-.25-.08c-.111-.032-.225-.049-.34-.05-.046-.006-.094-.006-.14 0h-31.54c-.411.003-.811.128-1.15.36l-16.72 11.61c-.142.114-.273.241-.39.38l-.06.07c-.103.149-.187.31-.25.48v.11c-.051.166-.081.337-.09.51-.001.017-.001.033 0 .05V66.5c0 .53.211 1.039.586 1.414s.884.586 1.414.586h33.39c.126.015.254.015.38 0h.17l.2-.06c.06-.024.117-.054.17-.09l.17-.09.16-.12.12-.1L2065.29 54c.198-.186.356-.411.464-.66.109-.249.165-.518.166-.79v-31.2zm-32.87 2h25.11l-9.71 7.68h-26.4zm-15.36 11.7h29.46V64.5h-29.46zm33.46 26.8V34l10.77-8.5v26.15z"/><path d="M2048.04 28.09l-15.53-.13-.469-11.589 15.53.14.469 11.579z"/></g><g fill="#ffffff"><path d="M2145.92 21.35c.005-.06.005-.12 0-.18-.007-.136-.03-.27-.07-.4-.004-.016-.004-.034 0-.05 0-.06-.06-.1-.08-.16-.05-.112-.11-.219-.18-.32-.044-.068-.095-.131-.15-.19l-.24-.23c-.069-.056-.143-.106-.22-.15l-.15-.1h-.14l-.25-.08c-.111-.032-.225-.049-.34-.05-.046-.006-.094-.006-.14 0h-31.54c-.411.003-.811.128-1.15.36l-16.72 11.61c-.142.114-.273.241-.39.38l-.06.07c-.103.149-.187.31-.25.48v.11c-.051.166-.081.337-.09.51-.001.017-.001.033 0 .05V66.5c0 .53.211 1.039.586 1.414s.884.586 1.414.586h33.39c.126.015.254.015.38 0h.17l.2-.06c.06-.024.117-.054.17-.09l.17-.09.16-.12.12-.1L2145.29 54c.198-.186.356-.411.464-.66.109-.249.165-.518.166-.79v-31.2zm-32.87 2h25.11l-9.71 7.68h-26.4zm-15.36 11.7h29.46V64.5h-29.46zm33.46 26.8V34l10.77-8.5v26.15z"/><path d="M2128.04 28.09l-15.53-.13-.304-11.431 15.53.14.304 11.421z"/></g><g fill="#ffffff"><path d="M2225.92 21.35c.005-.06.005-.12 0-.18-.007-.136-.03-.27-.07-.4-.004-.016-.004-.034 0-.05 0-.06-.06-.1-.08-.16-.05-.112-.11-.219-.18-.32-.044-.068-.095-.131-.15-.19l-.24-.23c-.069-.056-.143-.106-.22-.15l-.15-.1h-.14l-.25-.08c-.111-.032-.225-.049-.34-.05-.046-.006-.094-.006-.14 0h-31.54c-.411.003-.811.128-1.15.36l-16.72 11.61c-.142.114-.273.241-.39.38l-.06.07c-.103.149-.187.31-.25.48v.11c-.051.166-.081.337-.09.51-.001.017-.001.033 0 .05V66.5c0 .53.211 1.039.586 1.414s.884.586 1.414.586h33.39c.126.015.254.015.38 0h.17l.2-.06c.06-.024.117-.054.17-.09l.17-.09.16-.12.12-.1L2225.29 54c.198-.186.356-.411.464-.66.109-.249.165-.518.166-.79v-31.2zm-32.87 2h25.11l-9.71 7.68h-26.4zm-15.36 11.7h29.46V64.5h-29.46zm33.46 26.8V34l10.77-8.5v26.15z"/><path d="M2208.04 28.09l-15.53-.13.332-10.819 15.53.14-.332 10.809z"/></g><g fill="#ffffff"><path d="M2305.92 21.35c.005-.06.005-.12 0-.18-.007-.136-.03-.27-.07-.4-.004-.016-.004-.034 0-.05 0-.06-.06-.1-.08-.16-.05-.112-.11-.219-.18-.32-.044-.068-.095-.131-.15-.19l-.24-.23c-.069-.056-.143-.106-.22-.15l-.15-.1h-.14l-.25-.08c-.111-.032-.225-.049-.34-.05-.046-.006-.094-.006-.14 0h-31.54c-.411.003-.811.128-1.15.36l-16.72 11.61c-.142.114-.273.241-.39.38l-.06.07c-.103.149-.187.31-.25.48v.11c-.051.166-.081.337-.09.51-.001.017-.001.033 0 .05V66.5c0 .53.211 1.039.586 1.414s.884.586 1.414.586h33.39c.126.015.254.015.38 0h.17l.2-.06c.06-.024.117-.054.17-.09l.17-.09.16-.12.12-.1L2305.29 54c.198-.186.356-.411.464-.66.109-.249.165-.518.166-.79v-31.2zm-32.87 2h25.11l-9.71 7.68h-26.4zm-15.36 11.7h29.46V64.5h-29.46zm33.46 26.8V34l10.77-8.5v26.15z"/><path d="M2288.04 28.09l-15.53-.13.901-10.272 15.53.14-.901 10.262z"/></g><g fill="#ffffff"><path d="M2385.92 21.35c.005-.06.005-.12 0-.18-.007-.136-.03-.27-.07-.4-.004-.016-.004-.034 0-.05 0-.06-.06-.1-.08-.16-.05-.112-.11-.219-.18-.32-.044-.068-.095-.131-.15-.19l-.24-.23c-.069-.056-.143-.106-.22-.15l-.15-.1h-.14l-.25-.08c-.111-.032-.225-.049-.34-.05-.046-.006-.094-.006-.14 0h-31.54c-.411.003-.811.128-1.15.36l-16.72 11.61c-.142.114-.273.241-.39.38l-.06.07c-.103.149-.187.31-.25.48v.11c-.051.166-.081.337-.09.51-.001.017-.001.033 0 .05V66.5c0 .53.211 1.039.586 1.414s.884.586 1.414.586h33.39c.126.015.254.015.38 0h.17l.2-.06c.06-.024.117-.054.17-.09l.17-.09.16-.12.12-.1L2385.29 54c.198-.186.356-.411.464-.66.109-.249.165-.518.166-.79v-31.2zm-32.87 2h25.11l-9.71 7.68h-26.4zm-15.36 11.7h29.46V64.5h-29.46zm33.46 26.8V34l10.77-8.5v26.15z"/><path d="M2368.04 28.09l-15.53-.13 1.175-10.009 15.53.14-1.175 9.999z"/></g><g fill="#ffffff"><path d="M2465.92 21.35c.005-.06.005-.12 0-.18-.007-.136-.03-.27-.07-.4-.004-.016-.004-.034 0-.05 0-.06-.06-.1-.08-.16-.05-.112-.11-.219-.18-.32-.044-.068-.095-.131-.15-.19l-.24-.23c-.069-.056-.143-.106-.22-.15l-.15-.1h-.14l-.25-.08c-.111-.032-.225-.049-.34-.05-.046-.006-.094-.006-.14 0h-31.54c-.411.003-.811.128-1.15.36l-16.72 11.61c-.142.114-.273.241-.39.38l-.06.07c-.103.149-.187.31-.25.48v.11c-.051.166-.081.337-.09.51-.001.017-.001.033 0 .05V66.5c0 .53.211 1.039.586 1.414s.884.586 1.414.586h33.39c.126.015.254.015.38 0h.17l.2-.06c.06-.024.117-.054.17-.09l.17-.09.16-.12.12-.1L2465.29 54c.198-.186.356-.411.464-.66.109-.249.165-.518.166-.79v-31.2zm-32.87 2h25.11l-9.71 7.68h-26.4zm-15.36 11.7h29.46V64.5h-29.46zm33.46 26.8V34l10.77-8.5v26.15z"/><path d="M2448.04 28.09l-15.53-.13 1.302-9.886 15.53.14-1.302 9.876z"/></g><g fill="#ffffff"><path d="M2545.92 21.35c.005-.06.005-.12 0-.18-.007-.136-.03-.27-.07-.4-.004-.016-.004-.034 0-.05 0-.06-.06-.1-.08-.16-.05-.112-.11-.219-.18-.32-.044-.068-.095-.131-.15-.19l-.24-.23c-.069-.056-.143-.106-.22-.15l-.15-.1h-.14l-.25-.08c-.111-.032-.225-.049-.34-.05-.046-.006-.094-.006-.14 0h-31.54c-.411.003-.811.128-1.15.36l-16.72 11.61c-.142.114-.273.241-.39.38l-.06.07c-.103.149-.187.31-.25.48v.11c-.051.166-.081.337-.09.51-.001.017-.001.033 0 .05V66.5c0 .53.211 1.039.586 1.414s.884.586 1.414.586h33.39c.126.015.254.015.38 0h.17l.2-.06c.06-.024.117-.054.17-.09l.17-.09.16-.12.12-.1L2545.29 54c.198-.186.356-.411.464-.66.109-.249.165-.518.166-.79v-31.2zm-32.87 2h25.11l-9.71 7.68h-26.4zm-15.36 11.7h29.46V64.5h-29.46zm33.46 26.8V34l10.77-8.5v26.15z"/><path d="M2528.04 28.09l-15.53-.13 1.348-9.842 15.53.14-1.348 9.832z"/></g><g fill="#ffffff"><path d="M2625.92 21.35c.005-.06.005-.12 0-.18-.007-.136-.03-.27-.07-.4-.004-.016-.004-.034 0-.05 0-.06-.06-.1-.08-.16-.05-.112-.11-.219-.18-.32-.044-.068-.095-.131-.15-.19l-.24-.23c-.069-.056-.143-.106-.22-.15l-.15-.1h-.14l-.25-.08c-.111-.032-.225-.049-.34-.05-.046-.006-.094-.006-.14 0h-31.54c-.411.003-.811.128-1.15.36l-16.72 11.61c-.142.114-.273.241-.39.38l-.06.07c-.103.149-.187.31-.25.48v.11c-.051.166-.081.337-.09.51-.001.017-.001.033 0 .05V66.5c0 .53.211 1.039.586 1.414s.884.586 1.414.586h33.39c.126.015.254.015.38 0h.17l.2-.06c.06-.024.117-.054.17-.09l.17-.09.16-.12.12-.1L2625.29 54c.198-.186.356-.411.464-.66.109-.249.165-.518.166-.79v-31.2zm-32.87 2h25.11l-9.71 7.68h-26.4zm-15.36 11.7h29.46V64.5h-29.46zm33.46 26.8V34l10.77-8.5v26.15z"/><path d="M2608.04 28.09l-15.53-.13 1.306-9.778 15.53.14-1.306 9.768z"/></g><g fill="#ffffff"><path d="M2705.92 21.35c.005-.06.005-.12 0-.18-.007-.136-.03-.27-.07-.4-.004-.016-.004-.034 0-.05 0-.06-.06-.1-.08-.16-.05-.112-.11-.219-.18-.32-.044-.068-.095-.131-.15-.19l-.24-.23c-.069-.056-.143-.106-.22-.15l-.15-.1h-.14l-.25-.08c-.111-.032-.225-.049-.34-.05-.046-.006-.094-.006-.14 0h-31.54c-.411.003-.811.128-1.15.36l-16.72 11.61c-.142.114-.273.241-.39.38l-.06.07c-.103.149-.187.31-.25.48v.11c-.051.166-.081.337-.09.51-.001.017-.001.033 0 .05V66.5c0 .53.211 1.039.586 1.414s.884.586 1.414.586h33.39c.126.015.254.015.38 0h.17l.2-.06c.06-.024.117-.054.17-.09l.17-.09.16-.12.12-.1L2705.29 54c.198-.186.356-.411.464-.66.109-.249.165-.518.166-.79v-31.2zm-32.87 2h25.11l-9.71 7.68h-26.4zm-15.36 11.7h29.46V64.5h-29.46zm33.46 26.8V34l10.77-8.5v26.15z"/><path d="M2688.04 28.09l-15.53-.13.956-9.285 15.533.14-.959 9.275z"/></g><g fill="#ffffff"><path d="M2785.92 21.35c.005-.06.005-.12 0-.18-.007-.136-.03-.27-.07-.4-.004-.016-.004-.034 0-.05 0-.06-.06-.1-.08-.16-.05-.112-.11-.219-.18-.32-.044-.068-.095-.131-.15-.19l-.24-.23c-.069-.056-.143-.106-.22-.15l-.15-.1h-.14l-.25-.08c-.111-.032-.225-.049-.34-.05-.046-.006-.094-.006-.14 0h-31.54c-.411.003-.811.128-1.15.36l-16.72 11.61c-.142.114-.273.241-.39.38l-.06.07c-.103.149-.187.31-.25.48v.11c-.051.166-.081.337-.09.51-.001.017-.001.033 0 .05V66.5c0 .53.211 1.039.586 1.414s.884.586 1.414.586h33.39c.126.015.254.015.38 0h.17l.2-.06c.06-.024.117-.054.17-.09l.17-.09.16-.12.12-.1L2785.29 54c.198-.186.356-.411.464-.66.109-.249.165-.518.166-.79v-31.2zm-32.87 2h25.11l-9.71 7.68h-26.4zm-15.36 11.7h29.46V64.5h-29.46zm33.46 26.8V34l10.77-8.5v26.15z"/><path d="M2768.04 28.09l-15.53-.13.377-8.47 15.536.14-.383 8.46z"/></g><g fill="#ffffff"><path d="M2865.92 21.35c.005-.06.005-.12 0-.18-.007-.136-.03-.27-.07-.4-.004-.016-.004-.034 0-.05 0-.06-.06-.1-.08-.16-.05-.112-.11-.219-.18-.32-.044-.068-.095-.131-.15-.19l-.24-.23c-.069-.056-.143-.106-.22-.15l-.15-.1h-.14l-.25-.08c-.111-.032-.225-.049-.34-.05-.046-.006-.094-.006-.14 0h-31.54c-.411.003-.811.128-1.15.36l-16.72 11.61c-.142.114-.273.241-.39.38l-.06.07c-.103.149-.187.31-.25.48v.11c-.051.166-.081.337-.09.51-.001.017-.001.033 0 .05V66.5c0 .53.211 1.039.586 1.414s.884.586 1.414.586h33.39c.126.015.254.015.38 0h.17l.2-.06c.06-.024.117-.054.17-.09l.17-.09.16-.12.12-.1L2865.29 54c.198-.186.356-.411.464-.66.109-.249.165-.518.166-.79v-31.2zm-32.87 2h25.11l-9.71 7.68h-26.4zm-15.36 11.7h29.46V64.5h-29.46zm33.46 26.8V34l10.77-8.5v26.15z"/><path d="M2848.04 28.09l-15.53-.13.06-8.024 15.538.14-.068 8.014z"/></g><g fill="#ffffff"><path d="M2945.92 21.35c.005-.06.005-.12 0-.18-.007-.136-.03-.27-.07-.4-.004-.016-.004-.034 0-.05 0-.06-.06-.1-.08-.16-.05-.112-.11-.219-.18-.32-.044-.068-.095-.131-.15-.19l-.24-.23c-.069-.056-.143-.106-.22-.15l-.15-.1h-.14l-.25-.08c-.111-.032-.225-.049-.34-.05-.046-.006-.094-.006-.14 0h-31.54c-.411.003-.811.128-1.15.36l-16.72 11.61c-.142.114-.273.241-.39.38l-.06.07c-.103.149-.187.31-.25.48v.11c-.051.166-.081.337-.09.51-.001.017-.001.033 0 .05V66.5c0 .53.211 1.039.586 1.414s.884.586 1.414.586h33.39c.126.015.254.015.38 0h.17l.2-.06c.06-.024.117-.054.17-.09l.17-.09.16-.12.12-.1L2945.29 54c.198-.186.356-.411.464-.66.109-.249.165-.518.166-.79v-31.2zm-32.87 2h25.11l-9.71 7.68h-26.4zm-15.36 11.7h29.46V64.5h-29.46zm33.46 26.8V34l10.77-8.5v26.15z"/><path d="M2928.04 28.09l-15.53-.13-.091-7.811 15.539.14.082 7.801z"/></g><g fill="#ffffff"><path d="M3025.92 21.35c.005-.06.005-.12 0-.18-.007-.136-.03-.27-.07-.4-.004-.016-.004-.034 0-.05 0-.06-.06-.1-.08-.16-.05-.112-.11-.219-.18-.32-.044-.068-.095-.131-.15-.19l-.24-.23c-.069-.056-.143-.106-.22-.15l-.15-.1h-.14l-.25-.08c-.111-.032-.225-.049-.34-.05-.046-.006-.094-.006-.14 0h-31.54c-.411.003-.811.128-1.15.36l-16.72 11.61c-.142.114-.273.241-.39.38l-.06.07c-.103.149-.187.31-.25.48v.11c-.051.166-.081.337-.09.51-.001.017-.001.033 0 .05V66.5c0 .53.211 1.039.586 1.414s.884.586 1.414.586h33.39c.126.015.254.015.38 0h.17l.2-.06c.06-.024.117-.054.17-.09l.17-.09.16-.12.12-.1L3025.29 54c.198-.186.356-.411.464-.66.109-.249.165-.518.166-.79v-31.2zm-32.87 2h25.11l-9.71 7.68h-26.4zm-15.36 11.7h29.46V64.5h-29.46zm33.46 26.8V34l10.77-8.5v26.15z"/><path d="M3008.04 28.09l-15.53-.13-.157-7.719 15.54.14.147 7.709z"/></g><g fill="#ffffff"><path d="M3105.92 21.35c.005-.06.005-.12 0-.18-.007-.136-.03-.27-.07-.4-.004-.016-.004-.034 0-.05 0-.06-.06-.1-.08-.16-.05-.112-.11-.219-.18-.32-.044-.068-.095-.131-.15-.19l-.24-.23c-.069-.056-.143-.106-.22-.15l-.15-.1h-.14l-.25-.08c-.111-.032-.225-.049-.34-.05-.046-.006-.094-.006-.14 0h-31.54c-.411.003-.811.128-1.15.36l-16.72 11.61c-.142.114-.273.241-.39.38l-.06.07c-.103.149-.187.31-.25.48v.11c-.051.166-.081.337-.09.51-.001.017-.001.033 0 .05V66.5c0 .53.211 1.039.586 1.414s.884.586 1.414.586h33.39c.126.015.254.015.38 0h.17l.2-.06c.06-.024.117-.054.17-.09l.17-.09.16-.12.12-.1L3105.29 54c.198-.186.356-.411.464-.66.109-.249.165-.518.166-.79v-31.2zm-32.87 2h25.11l-9.71 7.68h-26.4zm-15.36 11.7h29.46V64.5h-29.46zm33.46 26.8V34l10.77-8.5v26.15z"/><path d="M3088.04 28.09l-15.53-.13-.167-7.697 15.54.14.157 7.687z"/></g><g fill="#ffffff"><path d="M3185.92 21.35c.005-.06.005-.12 0-.18-.007-.136-.03-.27-.07-.4-.004-.016-.004-.034 0-.05 0-.06-.06-.1-.08-.16-.05-.112-.11-.219-.18-.32-.044-.068-.095-.131-.15-.19l-.24-.23c-.069-.056-.143-.106-.22-.15l-.15-.1h-.14l-.25-.08c-.111-.032-.225-.049-.34-.05-.046-.006-.094-.006-.14 0h-31.54c-.411.003-.811.128-1.15.36l-16.72 11.61c-.142.114-.273.241-.39.38l-.06.07c-.103.149-.187.31-.25.48v.11c-.051.166-.081.337-.09.51-.001.017-.001.033 0 .05V66.5c0 .53.211 1.039.586 1.414s.884.586 1.414.586h33.39c.126.015.254.015.38 0h.17l.2-.06c.06-.024.117-.054.17-.09l.17-.09.16-.12.12-.1L3185.29 54c.198-.186.356-.411.464-.66.109-.249.165-.518.166-.79v-31.2zm-32.87 2h25.11l-9.71 7.68h-26.4zm-15.36 11.7h29.46V64.5h-29.46zm33.46 26.8V34l10.77-8.5v26.15z"/><path d="M3168.04 28.09l-15.53-.13-.024-7.528 15.54.14.014 7.518z"/></g><g fill="#ffffff"><path d="M3265.92 21.35c.005-.06.005-.12 0-.18-.007-.136-.03-.27-.07-.4-.004-.016-.004-.034 0-.05 0-.06-.06-.1-.08-.16-.05-.112-.11-.219-.18-.32-.044-.068-.095-.131-.15-.19l-.24-.23c-.069-.056-.143-.106-.22-.15l-.15-.1h-.14l-.25-.08c-.111-.032-.225-.049-.34-.05-.046-.006-.094-.006-.14 0h-31.54c-.411.003-.811.128-1.15.36l-16.72 11.61c-.142.114-.273.241-.39.38l-.06.07c-.103.149-.187.31-.25.48v.11c-.051.166-.081.337-.09.51-.001.017-.001.033 0 .05V66.5c0 .53.211 1.039.586 1.414s.884.586 1.414.586h33.39c.126.015.254.015.38 0h.17l.2-.06c.06-.024.117-.054.17-.09l.17-.09.16-.12.12-.1L3265.29 54c.198-.186.356-.411.464-.66.109-.249.165-.518.166-.79v-31.2zm-32.87 2h25.11l-9.71 7.68h-26.4zm-15.36 11.7h29.46V64.5h-29.46zm33.46 26.8V34l10.77-8.5v26.15z"/><path d="M3248.04 28.09l-15.53-.13.455-6.962 15.54.14-.465 6.952z"/></g><g fill="#ffffff"><path d="M3345.92 21.35c.005-.06.005-.12 0-.18-.007-.136-.03-.27-.07-.4-.004-.016-.004-.034 0-.05 0-.06-.06-.1-.08-.16-.05-.112-.11-.219-.18-.32-.044-.068-.095-.131-.15-.19l-.24-.23c-.069-.056-.143-.106-.22-.15l-.15-.1h-.14l-.25-.08c-.111-.032-.225-.049-.34-.05-.046-.006-.094-.006-.14 0h-31.54c-.411.003-.811.128-1.15.36l-16.72 11.61c-.142.114-.273.241-.39.38l-.06.07c-.103.149-.187.31-.25.48v.11c-.051.166-.081.337-.09.51-.001.017-.001.033 0 .05V66.5c0 .53.211 1.039.586 1.414s.884.586 1.414.586h33.39c.126.015.254.015.38 0h.17l.2-.06c.06-.024.117-.054.17-.09l.17-.09.16-.12.12-.1L3345.29 54c.198-.186.356-.411.464-.66.109-.249.165-.518.166-.79v-31.2zm-32.87 2h25.11l-9.71 7.68h-26.4zm-15.36 11.7h29.46V64.5h-29.46zm33.46 26.8V34l10.77-8.5v26.15z"/><path d="M3328.04 28.09l-15.53-.13.843-6.502 15.54.14-.853 6.492z"/></g><g fill="#ffffff"><path d="M3425.92 21.35c.005-.06.005-.12 0-.18-.007-.136-.03-.27-.07-.4-.004-.016-.004-.034 0-.05 0-.06-.06-.1-.08-.16-.05-.112-.11-.219-.18-.32-.044-.068-.095-.131-.15-.19l-.24-.23c-.069-.056-.143-.106-.22-.15l-.15-.1h-.14l-.25-.08c-.111-.032-.225-.049-.34-.05-.046-.006-.094-.006-.14 0h-31.54c-.411.003-.811.128-1.15.36l-16.72 11.61c-.142.114-.273.241-.39.38l-.06.07c-.103.149-.187.31-.25.48v.11c-.051.166-.081.337-.09.51-.001.017-.001.033 0 .05V66.5c0 .53.211 1.039.586 1.414s.884.586 1.414.586h33.39c.126.015.254.015.38 0h.17l.2-.06c.06-.024.117-.054.17-.09l.17-.09.16-.12.12-.1L3425.29 54c.198-.186.356-.411.464-.66.109-.249.165-.518.166-.79v-31.2zm-32.87 2h25.11l-9.71 7.68h-26.4zm-15.36 11.7h29.46V64.5h-29.46zm33.46 26.8V34l10.77-8.5v26.15z"/><path d="M3408.04 28.09l-15.53-.13 1.031-6.281 15.54.14-1.041 6.271z"/></g><g fill="#ffffff"><path d="M3505.92 21.35c.005-.06.005-.12 0-.18-.007-.136-.03-.27-.07-.4-.004-.016-.004-.034 0-.05 0-.06-.06-.1-.08-.16-.05-.112-.11-.219-.18-.32-.044-.068-.095-.131-.15-.19l-.24-.23c-.069-.056-.143-.106-.22-.15l-.15-.1h-.14l-.25-.08c-.111-.032-.225-.049-.34-.05-.046-.006-.094-.006-.14 0h-31.54c-.411.003-.811.128-1.15.36l-16.72 11.61c-.142.114-.273.241-.39.38l-.06.07c-.103.149-.187.31-.25.48v.11c-.051.166-.081.337-.09.51-.001.017-.001.033 0 .05V66.5c0 .53.211 1.039.586 1.414s.884.586 1.414.586h33.39c.126.015.254.015.38 0h.17l.2-.06c.06-.024.117-.054.17-.09l.17-.09.16-.12.12-.1L3505.29 54c.198-.186.356-.411.464-.66.109-.249.165-.518.166-.79v-31.2zm-32.87 2h25.11l-9.71 7.68h-26.4zm-15.36 11.7h29.46V64.5h-29.46zm33.46 26.8V34l10.77-8.5v26.15z"/><path d="M3488.04 28.09l-15.53-.13 1.118-6.178 15.54.14-1.128 6.168z"/></g><g fill="#ffffff"><path d="M3585.92 21.35c.005-.06.005-.12 0-.18-.007-.136-.03-.27-.07-.4-.004-.016-.004-.034 0-.05 0-.06-.06-.1-.08-.16-.05-.112-.11-.219-.18-.32-.044-.068-.095-.131-.15-.19l-.24-.23c-.069-.056-.143-.106-.22-.15l-.15-.1h-.14l-.25-.08c-.111-.032-.225-.049-.34-.05-.046-.006-.094-.006-.14 0h-31.54c-.411.003-.811.128-1.15.36l-16.72 11.61c-.142.114-.273.241-.39.38l-.06.07c-.103.149-.187.31-.25.48v.11c-.051.166-.081.337-.09.51-.001.017-.001.033 0 .05V66.5c0 .53.211 1.039.586 1.414s.884.586 1.414.586h33.39c.126.015.254.015.38 0h.17l.2-.06c.06-.024.117-.054.17-.09l.17-.09.16-.12.12-.1L3585.29 54c.198-.186.356-.411.464-.66.109-.249.165-.518.166-.79v-31.2zm-32.87 2h25.11l-9.71 7.68h-26.4zm-15.36 11.7h29.46V64.5h-29.46zm33.46 26.8V34l10.77-8.5v26.15z"/><path d="M3568.04 28.09l-15.53-.13 1.149-6.142 15.54.14-1.159 6.132z"/></g><g fill="#ffffff"><path d="M3665.92 21.35c.005-.06.005-.12 0-.18-.007-.136-.03-.27-.07-.4-.004-.016-.004-.034 0-.05 0-.06-.06-.1-.08-.16-.05-.112-.11-.219-.18-.32-.044-.068-.095-.131-.15-.19l-.24-.23c-.069-.056-.143-.106-.22-.15l-.15-.1h-.14l-.25-.08c-.111-.032-.225-.049-.34-.05-.046-.006-.094-.006-.14 0h-31.54c-.411.003-.811.128-1.15.36l-16.72 11.61c-.142.114-.273.241-.39.38l-.06.07c-.103.149-.187.31-.25.48v.11c-.051.166-.081.337-.09.51-.001.017-.001.033 0 .05V66.5c0 .53.211 1.039.586 1.414s.884.586 1.414.586h33.39c.126.015.254.015.38 0h.17l.2-.06c.06-.024.117-.054.17-.09l.17-.09.16-.12.12-.1L3665.29 54c.198-.186.356-.411.464-.66.109-.249.165-.518.166-.79v-31.2zm-32.87 2h25.11l-9.71 7.68h-26.4zm-15.36 11.7h29.46V64.5h-29.46zm33.46 26.8V34l10.77-8.5v26.15z"/><path d="M3648.04 28.09l-15.53-.13 1.108-6.041 15.54.139-1.118 6.032z"/></g><g fill="#ffffff"><path d="M3745.92 21.35c.005-.06.005-.12 0-.18-.007-.136-.03-.27-.07-.4-.004-.016-.004-.034 0-.05 0-.06-.06-.1-.08-.16-.05-.112-.11-.219-.18-.32-.044-.068-.095-.131-.15-.19l-.24-.23c-.069-.056-.143-.106-.22-.15l-.15-.1h-.14l-.25-.08c-.111-.032-.225-.049-.34-.05-.046-.006-.094-.006-.14 0h-31.54c-.411.003-.811.128-1.15.36l-16.72 11.61c-.142.114-.273.241-.39.38l-.06.07c-.103.149-.187.31-.25.48v.11c-.051.166-.081.337-.09.51-.001.017-.001.033 0 .05V66.5c0 .53.211 1.039.586 1.414s.884.586 1.414.586h33.39c.126.015.254.015.38 0h.17l.2-.06c.06-.024.117-.054.17-.09l.17-.09.16-.12.12-.1L3745.29 54c.198-.186.356-.411.464-.66.109-.249.165-.518.166-.79v-31.2zm-32.87 2h25.11l-9.71 7.68h-26.4zm-15.36 11.7h29.46V64.5h-29.46zm33.46 26.8V34l10.77-8.5v26.15z"/><path d="M3728.04 28.09l-15.53-.13.795-5.315 15.54.137-.805 5.308z"/></g><g fill="#ffffff"><path d="M3825.92 21.35c.005-.06.005-.12 0-.18-.007-.136-.03-.27-.07-.4-.004-.016-.004-.034 0-.05 0-.06-.06-.1-.08-.16-.05-.112-.11-.219-.18-.32-.044-.068-.095-.131-.15-.19l-.24-.23c-.069-.056-.143-.106-.22-.15l-.15-.1h-.14l-.25-.08c-.111-.032-.225-.049-.34-.05-.046-.006-.094-.006-.14 0h-31.54c-.411.003-.811.128-1.15.36l-16.72 11.61c-.142.114-.273.241-.39.38l-.06.07c-.103.149-.187.31-.25.48v.11c-.051.166-.081.337-.09.51-.001.017-.001.033 0 .05V66.5c0 .53.211 1.039.586 1.414s.884.586 1.414.586h33.39c.126.015.254.015.38 0h.17l.2-.06c.06-.024.117-.054.17-.09l.17-.09.16-.12.12-.1L3825.29 54c.198-.186.356-.411.464-.66.109-.249.165-.518.166-.79v-31.2zm-32.87 2h25.11l-9.71 7.68h-26.4zm-15.36 11.7h29.46V64.5h-29.46zm33.46 26.8V34l10.77-8.5v26.15z"/><path d="M3808.04 28.09l-15.53-.13.299-4.16 15.54.133-.309 4.157z"/></g><g fill="#ffffff"><path d="M3905.92 21.35c.005-.06.005-.12 0-.18-.007-.136-.03-.27-.07-.4-.004-.016-.004-.034 0-.05 0-.06-.06-.1-.08-.16-.05-.112-.11-.219-.18-.32-.044-.068-.095-.131-.15-.19l-.24-.23c-.069-.056-.143-.106-.22-.15l-.15-.1h-.14l-.25-.08c-.111-.032-.225-.049-.34-.05-.046-.006-.094-.006-.14 0h-31.54c-.411.003-.811.128-1.15.36l-16.72 11.61c-.142.114-.273.241-.39.38l-.06.07c-.103.149-.187.31-.25.48v.11c-.051.166-.081.337-.09.51-.001.017-.001.033 0 .05V66.5c0 .53.211 1.039.586 1.414s.884.586 1.414.586h33.39c.126.015.254.015.38 0h.17l.2-.06c.06-.024.117-.054.17-.09l.17-.09.16-.12.12-.1L3905.29 54c.198-.186.356-.411.464-.66.109-.249.165-.518.166-.79v-31.2zm-32.87 2h25.11l-9.71 7.68h-26.4zm-15.36 11.7h29.46V64.5h-29.46zm33.46 26.8V34l10.77-8.5v26.15z"/><path d="M3888.04 28.09l-15.53-.13.029-3.532 15.54.132-.039 3.53z"/></g><g fill="#ffffff"><path d="M3985.92 21.35c.005-.06.005-.12 0-.18-.007-.136-.03-.27-.07-.4-.004-.016-.004-.034 0-.05 0-.06-.06-.1-.08-.16-.05-.112-.11-.219-.18-.32-.044-.068-.095-.131-.15-.19l-.24-.23c-.069-.056-.143-.106-.22-.15l-.15-.1h-.14l-.25-.08c-.111-.032-.225-.049-.34-.05-.046-.006-.094-.006-.14 0h-31.54c-.411.003-.811.128-1.15.36l-16.72 11.61c-.142.114-.273.241-.39.38l-.06.07c-.103.149-.187.31-.25.48v.11c-.051.166-.081.337-.09.51-.001.017-.001.033 0 .05V66.5c0 .53.211 1.039.586 1.414s.884.586 1.414.586h33.39c.126.015.254.015.38 0h.17l.2-.06c.06-.024.117-.054.17-.09l.17-.09.16-.12.12-.1L3985.29 54c.198-.186.356-.411.464-.66.109-.249.165-.518.166-.79v-31.2zm-32.87 2h25.11l-9.71 7.68h-26.4zm-15.36 11.7h29.46V64.5h-29.46zm33.46 26.8V34l10.77-8.5v26.15z"/><path d="M3968.04 28.09l-15.53-.13-.102-3.229 15.54.13.092 3.229z"/></g><g fill="#ffffff"><path d="M4065.92 21.35c.005-.06.005-.12 0-.18-.007-.136-.03-.27-.07-.4-.004-.016-.004-.034 0-.05 0-.06-.06-.1-.08-.16-.05-.112-.11-.219-.18-.32-.044-.068-.095-.131-.15-.19l-.24-.23c-.069-.056-.143-.106-.22-.15l-.15-.1h-.14l-.25-.08c-.111-.032-.225-.049-.34-.05-.046-.006-.094-.006-.14 0h-31.54c-.411.003-.811.128-1.15.36l-16.72 11.61c-.142.114-.273.241-.39.38l-.06.07c-.103.149-.187.31-.25.48v.11c-.051.166-.081.337-.09.51-.001.017-.001.033 0 .05V66.5c0 .53.211 1.039.586 1.414s.884.586 1.414.586h33.39c.126.015.254.015.38 0h.17l.2-.06c.06-.024.117-.054.17-.09l.17-.09.16-.12.12-.1L4065.29 54c.198-.186.356-.411.464-.66.109-.249.165-.518.166-.79v-31.2zm-32.87 2h25.11l-9.71 7.68h-26.4zm-15.36 11.7h29.46V64.5h-29.46zm33.46 26.8V34l10.77-8.5v26.15z"/><path d="M4048.04 28.09l-15.53-.13-.158-3.098 15.54.13.148 3.098z"/></g><g fill="#ffffff"><path d="M4145.92 21.35c.005-.06.005-.12 0-.18-.007-.136-.03-.27-.07-.4-.004-.016-.004-.034 0-.05 0-.06-.06-.1-.08-.16-.05-.112-.11-.219-.18-.32-.044-.068-.095-.131-.15-.19l-.24-.23c-.069-.056-.143-.106-.22-.15l-.15-.1h-.14l-.25-.08c-.111-.032-.225-.049-.34-.05-.046-.006-.094-.006-.14 0h-31.54c-.411.003-.811.128-1.15.36l-16.72 11.61c-.142.114-.273.241-.39.38l-.06.07c-.103.149-.187.31-.25.48v.11c-.051.166-.081.337-.09.51-.001.017-.001.033 0 .05V66.5c0 .53.211 1.039.586 1.414s.884.586 1.414.586h33.39c.126.015.254.015.38 0h.17l.2-.06c.06-.024.117-.054.17-.09l.17-.09.16-.12.12-.1L4145.29 54c.198-.186.356-.411.464-.66.109-.249.165-.518.166-.79v-31.2zm-32.87 2h25.11l-9.71 7.68h-26.4zm-15.36 11.7h29.46V64.5h-29.46zm33.46 26.8V34l10.77-8.5v26.15z"/><path d="M4128.04 28.09l-15.53-.13-.169-3.069 15.539.13.16 3.069z"/></g><g fill="#ffffff"><path d="M4225.92 21.35c.005-.06.005-.12 0-.18-.007-.136-.03-.27-.07-.4-.004-.016-.004-.034 0-.05 0-.06-.06-.1-.08-.16-.05-.112-.11-.219-.18-.32-.044-.068-.095-.131-.15-.19l-.24-.23c-.069-.056-.143-.106-.22-.15l-.15-.1h-.14l-.25-.08c-.111-.032-.225-.049-.34-.05-.046-.006-.094-.006-.14 0h-31.54c-.411.003-.811.128-1.15.36l-16.72 11.61c-.142.114-.273.241-.39.38l-.06.07c-.103.149-.187.31-.25.48v.11c-.051.166-.081.337-.09.51-.001.017-.001.033 0 .05V66.5c0 .53.211 1.039.586 1.414s.884.586 1.414.586h33.39c.126.015.254.015.38 0h.17l.2-.06c.06-.024.117-.054.17-.09l.17-.09.16-.12.12-.1L4225.29 54c.198-.186.356-.411.464-.66.109-.249.165-.518.166-.79v-31.2zm-32.87 2h25.11l-9.71 7.68h-26.4zm-15.36 11.7h29.46V64.5h-29.46zm33.46 26.8V34l10.77-8.5v26.15z"/><path d="M4208.024 28.09l-15.514-.13-.136-3.044 15.521.129.129 3.045z"/></g><g fill="#ffffff"><path d="M4305.92 21.35c.005-.06.005-.12 0-.18-.007-.136-.03-.27-.07-.4-.004-.016-.004-.034 0-.05 0-.06-.06-.1-.08-.16-.05-.112-.11-.219-.18-.32-.044-.068-.095-.131-.15-.19l-.24-.23c-.069-.056-.143-.106-.22-.15l-.15-.1h-.14l-.25-.08c-.111-.032-.225-.049-.34-.05-.046-.006-.094-.006-.14 0h-31.54c-.411.003-.811.128-1.15.36l-16.72 11.61c-.142.114-.273.241-.39.38l-.06.07c-.103.149-.187.31-.25.48v.11c-.051.166-.081.337-.09.51-.001.017-.001.033 0 .05V66.5c0 .53.211 1.039.586 1.414s.884.586 1.414.586h33.39c.126.015.254.015.38 0h.17l.2-.06c.06-.024.117-.054.17-.09l.17-.09.16-.12.12-.1L4305.29 54c.198-.186.356-.411.464-.66.109-.249.165-.518.166-.79v-31.2zm-32.87 2h25.11l-9.71 7.68h-26.4zm-15.36 11.7h29.46V64.5h-29.46zm33.46 26.8V34l10.77-8.5v26.15z"/><path d="M4287.975 28.09l-15.465-.13-.034-2.965 15.463.126.036 2.969z"/></g><g fill="#ffffff"><path d="M4385.92 21.35c.005-.06.005-.12 0-.18-.007-.136-.03-.27-.07-.4-.004-.016-.004-.034 0-.05 0-.06-.06-.1-.08-.16-.05-.112-.11-.219-.18-.32-.044-.068-.095-.131-.15-.19l-.24-.23c-.069-.056-.143-.106-.22-.15l-.15-.1h-.14l-.25-.08c-.111-.032-.225-.049-.34-.05-.046-.006-.094-.006-.14 0h-31.54c-.411.003-.811.128-1.15.36l-16.72 11.61c-.142.114-.273.241-.39.38l-.06.07c-.103.149-.187.31-.25.48v.11c-.051.166-.081.337-.09.51-.001.017-.001.033 0 .05V66.5c0 .53.211 1.039.586 1.414s.884.586 1.414.586h33.39c.126.015.254.015.38 0h.17l.2-.06c.06-.024.117-.054.17-.09l.17-.09.16-.12.12-.1L4385.29 54c.198-.186.356-.411.464-.66.109-.249.165-.518.166-.79v-31.2zm-32.87 2h25.11l-9.71 7.68h-26.4zm-15.36 11.7h29.46V64.5h-29.46zm33.46 26.8V34l10.77-8.5v26.15z"/><path d="M4367.873 28.09l-15.363-.13.176-2.803 15.344.12-.157 2.813z"/></g><g fill="#ffffff"><path d="M4465.92 21.35c.005-.06.005-.12 0-.18-.007-.136-.03-.27-.07-.4-.004-.016-.004-.034 0-.05 0-.06-.06-.1-.08-.16-.05-.112-.11-.219-.18-.32-.044-.068-.095-.131-.15-.19l-.24-.23c-.069-.056-.143-.106-.22-.15l-.15-.1h-.14l-.25-.08c-.111-.032-.225-.049-.34-.05-.046-.006-.094-.006-.14 0h-31.54c-.411.003-.811.128-1.15.36l-16.72 11.61c-.142.114-.273.241-.39.38l-.06.07c-.103.149-.187.31-.25.48v.11c-.051.166-.081.337-.09.51-.001.017-.001.033 0 .05V66.5c0 .53.211 1.039.586 1.414s.884.586 1.414.586h33.39c.126.015.254.015.38 0h.17l.2-.06c.06-.024.117-.054.17-.09l.17-.09.16-.12.12-.1L4465.29 54c.198-.186.356-.411.464-.66.109-.249.165-.518.166-.79v-31.2zm-32.87 2h25.11l-9.71 7.68h-26.4zm-15.36 11.7h29.46V64.5h-29.46zm33.46 26.8V34l10.77-8.5v26.15z"/><path d="M4447.709 28.09l-15.199-.13.515-2.54 15.153.11-.469 2.56z"/></g><g fill="#ffffff"><path d="M4545.92 21.35c.005-.06.005-.12 0-.18-.007-.136-.03-.27-.07-.4-.004-.016-.004-.034 0-.05 0-.06-.06-.1-.08-.16-.05-.112-.11-.219-.18-.32-.044-.068-.095-.131-.15-.19l-.24-.23c-.069-.056-.143-.106-.22-.15l-.15-.1h-.14l-.25-.08c-.111-.032-.225-.049-.34-.05-.046-.006-.094-.006-.14 0h-31.54c-.411.003-.811.128-1.15.36l-16.72 11.61c-.142.114-.273.241-.39.38l-.06.07c-.103.149-.187.31-.25.48v.11c-.051.166-.081.337-.09.51-.001.017-.001.033 0 .05V66.5c0 .53.211 1.039.586 1.414s.884.586 1.414.586h33.39c.126.015.254.015.38 0h.17l.2-.06c.06-.024.117-.054.17-.09l.17-.09.16-.12.12-.1L4545.29 54c.198-.186.356-.411.464-.66.109-.249.165-.518.166-.79v-31.2zm-32.87 2h25.11l-9.71 7.68h-26.4zm-15.36 11.7h29.46V64.5h-29.46zm33.46 26.8V34l10.77-8.5v26.15z"/><path d="M4527.527 28.09l-15.017-.13.892-2.249 14.94.099-.815 2.28z"/></g><g fill="#ffffff"><path d="M4625.92 21.35c.005-.06.005-.12 0-.18-.007-.136-.03-.27-.07-.4-.004-.016-.004-.034 0-.05 0-.06-.06-.1-.08-.16-.05-.112-.11-.219-.18-.32-.044-.068-.095-.131-.15-.19l-.24-.23c-.069-.056-.143-.106-.22-.15l-.15-.1h-.14l-.25-.08c-.111-.032-.225-.049-.34-.05-.046-.006-.094-.006-.14 0h-31.54c-.411.003-.811.128-1.15.36l-16.72 11.61c-.142.114-.273.241-.39.38l-.06.07c-.103.149-.187.31-.25.48v.11c-.051.166-.081.337-.09.51-.001.017-.001.033 0 .05V66.5c0 .53.211 1.039.586 1.414s.884.586 1.414.586h33.39c.126.015.254.015.38 0h.17l.2-.06c.06-.024.117-.054.17-.09l.17-.09.16-.12.12-.1L4625.29 54c.198-.186.356-.411.464-.66.109-.249.165-.518.166-.79v-31.2zm-32.87 2h25.11l-9.71 7.68h-26.4zm-15.36 11.7h29.46V64.5h-29.46zm33.46 26.8V34l10.77-8.5v26.15z"/><path d="M4607.38 28.09l-14.87-.13 1.195-2.015 14.769.091-1.094 2.054z"/></g><g fill="#ffffff"><path d="M4705.92 21.35c.005-.06.005-.12 0-.18-.007-.136-.03-.27-.07-.4-.004-.016-.004-.034 0-.05 0-.06-.06-.1-.08-.16-.05-.112-.11-.219-.18-.32-.044-.068-.095-.131-.15-.19l-.24-.23c-.069-.056-.143-.106-.22-.15l-.15-.1h-.14l-.25-.08c-.111-.032-.225-.049-.34-.05-.046-.006-.094-.006-.14 0h-31.54c-.411.003-.811.128-1.15.36l-16.72 11.61c-.142.114-.273.241-.39.38l-.06.07c-.103.149-.187.31-.25.48v.11c-.051.166-.081.337-.09.51-.001.017-.001.033 0 .05V66.5c0 .53.211 1.039.586 1.414s.884.586 1.414.586h33.39c.126.015.254.015.38 0h.17l.2-.06c.06-.024.117-.054.17-.09l.17-.09.16-.12.12-.1L4705.29 54c.198-.186.356-.411.464-.66.109-.249.165-.518.166-.79v-31.2zm-32.87 2h25.11l-9.71 7.68h-26.4zm-15.36 11.7h29.46V64.5h-29.46zm33.46 26.8V34l10.77-8.5v26.15z"/><path d="M4687.274 28.09l-14.764-.13 1.415-1.845 14.644.084-1.295 1.891z"/></g><g fill="#ffffff"><path d="M4785.92 21.35c.005-.06.005-.12 0-.18-.007-.136-.03-.27-.07-.4-.004-.016-.004-.034 0-.05 0-.06-.06-.1-.08-.16-.05-.112-.11-.219-.18-.32-.044-.068-.095-.131-.15-.19l-.24-.23c-.069-.056-.143-.106-.22-.15l-.15-.1h-.14l-.25-.08c-.111-.032-.225-.049-.34-.05-.046-.006-.094-.006-.14 0h-31.54c-.411.003-.811.128-1.15.36l-16.72 11.61c-.142.114-.273.241-.39.38l-.06.07c-.103.149-.187.31-.25.48v.11c-.051.166-.081.337-.09.51-.001.017-.001.033 0 .05V66.5c0 .53.211 1.039.586 1.414s.884.586 1.414.586h33.39c.126.015.254.015.38 0h.17l.2-.06c.06-.024.117-.054.17-.09l.17-.09.16-.12.12-.1L4785.29 54c.198-.186.356-.411.464-.66.109-.249.165-.518.166-.79v-31.2zm-32.87 2h25.11l-9.71 7.68h-26.4zm-15.36 11.7h29.46V64.5h-29.46zm33.46 26.8V34l10.77-8.5v26.15z"/><path d="M4767.198 28.09l-14.688-.13 1.574-1.722 14.554.079-1.44 1.773z"/></g><g fill="#ffffff"><path d="M4865.92 21.35c.005-.06.005-.12 0-.18-.007-.136-.03-.27-.07-.4-.004-.016-.004-.034 0-.05 0-.06-.06-.1-.08-.16-.05-.112-.11-.219-.18-.32-.044-.068-.095-.131-.15-.19l-.24-.23c-.069-.056-.143-.106-.22-.15l-.15-.1h-.14l-.25-.08c-.111-.032-.225-.049-.34-.05-.046-.006-.094-.006-.14 0h-31.54c-.411.003-.811.128-1.15.36l-16.72 11.61c-.142.114-.273.241-.39.38l-.06.07c-.103.149-.187.31-.25.48v.11c-.051.166-.081.337-.09.51-.001.017-.001.033 0 .05V66.5c0 .53.211 1.039.586 1.414s.884.586 1.414.586h33.39c.126.015.254.015.38 0h.17l.2-.06c.06-.024.117-.054.17-.09l.17-.09.16-.12.12-.1L4865.29 54c.198-.186.356-.411.464-.66.109-.249.165-.518.166-.79v-31.2zm-32.87 2h25.11l-9.71 7.68h-26.4zm-15.36 11.7h29.46V64.5h-29.46zm33.46 26.8V34l10.77-8.5v26.15z"/><path d="M4847.142 28.09l-14.632-.13 1.688-1.634 14.49.076-1.546 1.688z"/></g><g fill="#ffffff"><path d="M4945.92 21.35c.005-.06.005-.12 0-.18-.007-.136-.03-.27-.07-.4-.004-.016-.004-.034 0-.05 0-.06-.06-.1-.08-.16-.05-.112-.11-.219-.18-.32-.044-.068-.095-.131-.15-.19l-.24-.23c-.069-.056-.143-.106-.22-.15l-.15-.1h-.14l-.25-.08c-.111-.032-.225-.049-.34-.05-.046-.006-.094-.006-.14 0h-31.54c-.411.003-.811.128-1.15.36l-16.72 11.61c-.142.114-.273.241-.39.38l-.06.07c-.103.149-.187.31-.25.48v.11c-.051.166-.081.337-.09.51-.001.017-.001.033 0 .05V66.5c0 .53.211 1.039.586 1.414s.884.586 1.414.586h33.39c.126.015.254.015.38 0h.17l.2-.06c.06-.024.117-.054.17-.09l.17-.09.16-.12.12-.1L4945.29 54c.198-.186.356-.411.464-.66.109-.249.165-.518.166-.79v-31.2zm-32.87 2h25.11l-9.71 7.68h-26.4zm-15.36 11.7h29.46V64.5h-29.46zm33.46 26.8V34l10.77-8.5v26.15z"/><path d="M4927.103 28.09l-14.593-.13 1.77-1.57 14.444.074-1.621 1.626z"/></g><g fill="#ffffff"><path d="M5025.92 21.35c.005-.06.005-.12 0-.18-.007-.136-.03-.27-.07-.4-.004-.016-.004-.034 0-.05 0-.06-.06-.1-.08-.16-.05-.112-.11-.219-.18-.32-.044-.068-.095-.131-.15-.19l-.24-.23c-.069-.056-.143-.106-.22-.15l-.15-.1h-.14l-.25-.08c-.111-.032-.225-.049-.34-.05-.046-.006-.094-.006-.14 0h-31.54c-.411.003-.811.128-1.15.36l-16.72 11.61c-.142.114-.273.241-.39.38l-.06.07c-.103.149-.187.31-.25.48v.11c-.051.166-.081.337-.09.51-.001.017-.001.033 0 .05V66.5c0 .53.211 1.039.586 1.414s.884.586 1.414.586h33.39c.126.015.254.015.38 0h.17l.2-.06c.06-.024.117-.054.17-.09l.17-.09.16-.12.12-.1L5025.29 54c.198-.186.356-.411.464-.66.109-.249.165-.518.166-.79v-31.2zm-32.87 2h25.11l-9.71 7.68h-26.4zm-15.36 11.7h29.46V64.5h-29.46zm33.46 26.8V34l10.77-8.5v26.15z"/><path d="M5007.075 28.09l-14.565-.13 1.828-1.526 14.411.072-1.674 1.584z"/></g><g fill="#ffffff"><path d="M5105.92 21.35c.005-.06.005-.12 0-.18-.007-.136-.03-.27-.07-.4-.004-.016-.004-.034 0-.05 0-.06-.06-.1-.08-.16-.05-.112-.11-.219-.18-.32-.044-.068-.095-.131-.15-.19l-.24-.23c-.069-.056-.143-.106-.22-.15l-.15-.1h-.14l-.25-.08c-.111-.032-.225-.049-.34-.05-.046-.006-.094-.006-.14 0h-31.54c-.411.003-.811.128-1.15.36l-16.72 11.61c-.142.114-.273.241-.39.38l-.06.07c-.103.149-.187.31-.25.48v.11c-.051.166-.081.337-.09.51-.001.017-.001.033 0 .05V66.5c0 .53.211 1.039.586 1.414s.884.586 1.414.586h33.39c.126.015.254.015.38 0h.17l.2-.06c.06-.024.117-.054.17-.09l.17-.09.16-.12.12-.1L5105.29 54c.198-.186.356-.411.464-.66.109-.249.165-.518.166-.79v-31.2zm-32.87 2h25.11l-9.71 7.68h-26.4zm-15.36 11.7h29.46V64.5h-29.46zm33.46 26.8V34l10.77-8.5v26.15z"/><path d="M5087.056 28.09l-14.546-.13 1.866-1.496 14.389.071-1.709 1.555z"/></g><g fill="#ffffff"><path d="M5185.92 21.35c.005-.06.005-.12 0-.18-.007-.136-.03-.27-.07-.4-.004-.016-.004-.034 0-.05 0-.06-.06-.1-.08-.16-.05-.112-.11-.219-.18-.32-.044-.068-.095-.131-.15-.19l-.24-.23c-.069-.056-.143-.106-.22-.15l-.15-.1h-.14l-.25-.08c-.111-.032-.225-.049-.34-.05-.046-.006-.094-.006-.14 0h-31.54c-.411.003-.811.128-1.15.36l-16.72 11.61c-.142.114-.273.241-.39.38l-.06.07c-.103.149-.187.31-.25.48v.11c-.051.166-.081.337-.09.51-.001.017-.001.033 0 .05V66.5c0 .53.211 1.039.586 1.414s.884.586 1.414.586h33.39c.126.015.254.015.38 0h.17l.2-.06c.06-.024.117-.054.17-.09l.17-.09.16-.12.12-.1L5185.29 54c.198-.186.356-.411.464-.66.109-.249.165-.518.166-.79v-31.2zm-32.87 2h25.11l-9.71 7.68h-26.4zm-15.36 11.7h29.46V64.5h-29.46zm33.46 26.8V34l10.77-8.5v26.15z"/><path d="M5167.045 28.09l-14.535-.13 1.889-1.478 14.376.07-1.73 1.538z"/></g><g fill="#ffffff"><path d="M5265.92 21.35c.005-.06.005-.12 0-.18-.007-.136-.03-.27-.07-.4-.004-.016-.004-.034 0-.05 0-.06-.06-.1-.08-.16-.05-.112-.11-.219-.18-.32-.044-.068-.095-.131-.15-.19l-.24-.23c-.069-.056-.143-.106-.22-.15l-.15-.1h-.14l-.25-.08c-.111-.032-.225-.049-.34-.05-.046-.006-.094-.006-.14 0h-31.54c-.411.003-.811.128-1.15.36l-16.72 11.61c-.142.114-.273.241-.39.38l-.06.07c-.103.149-.187.31-.25.48v.11c-.051.166-.081.337-.09.51-.001.017-.001.033 0 .05V66.5c0 .53.211 1.039.586 1.414s.884.586 1.414.586h33.39c.126.015.254.015.38 0h.17l.2-.06c.06-.024.117-.054.17-.09l.17-.09.16-.12.12-.1L5265.29 54c.198-.186.356-.411.464-.66.109-.249.165-.518.166-.79v-31.2zm-32.87 2h25.11l-9.71 7.68h-26.4zm-15.36 11.7h29.46V64.5h-29.46zm33.46 26.8V34l10.77-8.5v26.15z"/><path d="M5247.04 28.09l-14.53-.13 1.899-1.471 14.371.07-1.74 1.531z"/></g><g fill="#ffffff"><path d="M5345.92 21.35c.005-.06.005-.12 0-.18-.007-.136-.03-.27-.07-.4-.004-.016-.004-.034 0-.05 0-.06-.06-.1-.08-.16-.05-.112-.11-.219-.18-.32-.044-.068-.095-.131-.15-.19l-.24-.23c-.069-.056-.143-.106-.22-.15l-.15-.1h-.14l-.25-.08c-.111-.032-.225-.049-.34-.05-.046-.006-.094-.006-.14 0h-31.54c-.411.003-.811.128-1.15.36l-16.72 11.61c-.142.114-.273.241-.39.38l-.06.07c-.103.149-.187.31-.25.48v.11c-.051.166-.081.337-.09.51-.001.017-.001.033 0 .05V66.5c0 .53.211 1.039.586 1.414s.884.586 1.414.586h33.39c.126.015.254.015.38 0h.17l.2-.06c.06-.024.117-.054.17-.09l.17-.09.16-.12.12-.1L5345.29 54c.198-.186.356-.411.464-.66.109-.249.165-.518.166-.79v-31.2zm-32.87 2h25.11l-9.71 7.68h-26.4zm-15.36 11.7h29.46V64.5h-29.46zm33.46 26.8V34l10.77-8.5v26.15z"/><path d="M5327.04 28.09l-14.53-.13 1.9-1.47 14.37.07-1.74 1.53z"/></g><g fill="#ffffff"><path d="M5425.92 21.35c.005-.06.005-.12 0-.18-.007-.136-.03-.27-.07-.4-.004-.016-.004-.034 0-.05 0-.06-.06-.1-.08-.16-.05-.112-.11-.219-.18-.32-.044-.068-.095-.131-.15-.19l-.24-.23c-.069-.056-.143-.106-.22-.15l-.15-.1h-.14l-.25-.08c-.111-.032-.225-.049-.34-.05-.046-.006-.094-.006-.14 0h-31.54c-.411.003-.811.128-1.15.36l-16.72 11.61c-.142.114-.273.241-.39.38l-.06.07c-.103.149-.187.31-.25.48v.11c-.051.166-.081.337-.09.51-.001.017-.001.033 0 .05V66.5c0 .53.211 1.039.586 1.414s.884.586 1.414.586h33.39c.126.015.254.015.38 0h.17l.2-.06c.06-.024.117-.054.17-.09l.17-.09.16-.12.12-.1L5425.29 54c.198-.186.356-.411.464-.66.109-.249.165-.518.166-.79v-31.2zm-32.87 2h25.11l-9.71 7.68h-26.4zm-15.36 11.7h29.46V64.5h-29.46zm33.46 26.8V34l10.77-8.5v26.15z"/><path d="M5407.04 28.09l-14.53-.13 1.9-1.47 14.37.07-1.74 1.53z"/></g><g fill="#ffffff"><path d="M5505.92 21.35c.005-.06.005-.12 0-.18-.007-.136-.03-.27-.07-.4-.004-.016-.004-.034 0-.05 0-.06-.06-.1-.08-.16-.05-.112-.11-.219-.18-.32-.044-.068-.095-.131-.15-.19l-.24-.23c-.069-.056-.143-.106-.22-.15l-.15-.1h-.14l-.25-.08c-.111-.032-.225-.049-.34-.05-.046-.006-.094-.006-.14 0h-31.54c-.411.003-.811.128-1.15.36l-16.72 11.61c-.142.114-.273.241-.39.38l-.06.07c-.103.149-.187.31-.25.48v.11c-.051.166-.081.337-.09.51-.001.017-.001.033 0 .05V66.5c0 .53.211 1.039.586 1.414s.884.586 1.414.586h33.39c.126.015.254.015.38 0h.17l.2-.06c.06-.024.117-.054.17-.09l.17-.09.16-.12.12-.1L5505.29 54c.198-.186.356-.411.464-.66.109-.249.165-.518.166-.79v-31.2zm-32.87 2h25.11l-9.71 7.68h-26.4zm-15.36 11.7h29.46V64.5h-29.46zm33.46 26.8V34l10.77-8.5v26.15z"/><path d="M5487.04 28.09l-14.53-.13 1.9-1.47 14.37.07-1.74 1.53z"/></g><g fill="#ffffff"><path d="M5585.92 21.35c.005-.06.005-.12 0-.18-.007-.136-.03-.27-.07-.4-.004-.016-.004-.034 0-.05 0-.06-.06-.1-.08-.16-.05-.112-.11-.219-.18-.32-.044-.068-.095-.131-.15-.19l-.24-.23c-.069-.056-.143-.106-.22-.15l-.15-.1h-.14l-.25-.08c-.111-.032-.225-.049-.34-.05-.046-.006-.094-.006-.14 0h-31.54c-.411.003-.811.128-1.15.36l-16.72 11.61c-.142.114-.273.241-.39.38l-.06.07c-.103.149-.187.31-.25.48v.11c-.051.166-.081.337-.09.51-.001.017-.001.033 0 .05V66.5c0 .53.211 1.039.586 1.414s.884.586 1.414.586h33.39c.126.015.254.015.38 0h.17l.2-.06c.06-.024.117-.054.17-.09l.17-.09.16-.12.12-.1L5585.29 54c.198-.186.356-.411.464-.66.109-.249.165-.518.166-.79v-31.2zm-32.87 2h25.11l-9.71 7.68h-26.4zm-15.36 11.7h29.46V64.5h-29.46zm33.46 26.8V34l10.77-8.5v26.15z"/><path d="M5567.04 28.09l-14.53-.13 1.9-1.47 14.37.07-1.74 1.53z"/></g><g fill="#ffffff"><path d="M5665.92 21.35c.005-.06.005-.12 0-.18-.007-.136-.03-.27-.07-.4-.004-.016-.004-.034 0-.05 0-.06-.06-.1-.08-.16-.05-.112-.11-.219-.18-.32-.044-.068-.095-.131-.15-.19l-.24-.23c-.069-.056-.143-.106-.22-.15l-.15-.1h-.14l-.25-.08c-.111-.032-.225-.049-.34-.05-.046-.006-.094-.006-.14 0h-31.54c-.411.003-.811.128-1.15.36l-16.72 11.61c-.142.114-.273.241-.39.38l-.06.07c-.103.149-.187.31-.25.48v.11c-.051.166-.081.337-.09.51-.001.017-.001.033 0 .05V66.5c0 .53.211 1.039.586 1.414s.884.586 1.414.586h33.39c.126.015.254.015.38 0h.17l.2-.06c.06-.024.117-.054.17-.09l.17-.09.16-.12.12-.1L5665.29 54c.198-.186.356-.411.464-.66.109-.249.165-.518.166-.79v-31.2zm-32.87 2h25.11l-9.71 7.68h-26.4zm-15.36 11.7h29.46V64.5h-29.46zm33.46 26.8V34l10.77-8.5v26.15z"/><path d="M5647.04 28.09l-14.53-.13 1.9-1.47 14.37.07-1.74 1.53z"/></g><g fill="#ffffff"><path d="M5745.92 21.35c.005-.06.005-.12 0-.18-.007-.136-.03-.27-.07-.4-.004-.016-.004-.034 0-.05 0-.06-.06-.1-.08-.16-.05-.112-.11-.219-.18-.32-.044-.068-.095-.131-.15-.19l-.24-.23c-.069-.056-.143-.106-.22-.15l-.15-.1h-.14l-.25-.08c-.111-.032-.225-.049-.34-.05-.046-.006-.094-.006-.14 0h-31.54c-.411.003-.811.128-1.15.36l-16.72 11.61c-.142.114-.273.241-.39.38l-.06.07c-.103.149-.187.31-.25.48v.11c-.051.166-.081.337-.09.51-.001.017-.001.033 0 .05V66.5c0 .53.211 1.039.586 1.414s.884.586 1.414.586h33.39c.126.015.254.015.38 0h.17l.2-.06c.06-.024.117-.054.17-.09l.17-.09.16-.12.12-.1L5745.29 54c.198-.186.356-.411.464-.66.109-.249.165-.518.166-.79v-31.2zm-32.87 2h25.11l-9.71 7.68h-26.4zm-15.36 11.7h29.46V64.5h-29.46zm33.46 26.8V34l10.77-8.5v26.15z"/><path d="M5727.04 28.09l-14.53-.13 1.9-1.47 14.37.07-1.74 1.53z"/></g><g fill="#ffffff"><path d="M5825.92 21.35c.005-.06.005-.12 0-.18-.007-.136-.03-.27-.07-.4-.004-.016-.004-.034 0-.05 0-.06-.06-.1-.08-.16-.05-.112-.11-.219-.18-.32-.044-.068-.095-.131-.15-.19l-.24-.23c-.069-.056-.143-.106-.22-.15l-.15-.1h-.14l-.25-.08c-.111-.032-.225-.049-.34-.05-.046-.006-.094-.006-.14 0h-31.54c-.411.003-.811.128-1.15.36l-16.72 11.61c-.142.114-.273.241-.39.38l-.06.07c-.103.149-.187.31-.25.48v.11c-.051.166-.081.337-.09.51-.001.017-.001.033 0 .05V66.5c0 .53.211 1.039.586 1.414s.884.586 1.414.586h33.39c.126.015.254.015.38 0h.17l.2-.06c.06-.024.117-.054.17-.09l.17-.09.16-.12.12-.1L5825.29 54c.198-.186.356-.411.464-.66.109-.249.165-.518.166-.79v-31.2zm-32.87 2h25.11l-9.71 7.68h-26.4zm-15.36 11.7h29.46V64.5h-29.46zm33.46 26.8V34l10.77-8.5v26.15z"/><path d="M5807.04 28.09l-14.53-.13 1.9-1.47 14.37.07-1.74 1.53z"/></g><g fill="#ffffff"><path d="M5905.92 21.35c.005-.06.005-.12 0-.18-.007-.136-.03-.27-.07-.4-.004-.016-.004-.034 0-.05 0-.06-.06-.1-.08-.16-.05-.112-.11-.219-.18-.32-.044-.068-.095-.131-.15-.19l-.24-.23c-.069-.056-.143-.106-.22-.15l-.15-.1h-.14l-.25-.08c-.111-.032-.225-.049-.34-.05-.046-.006-.094-.006-.14 0h-31.54c-.411.003-.811.128-1.15.36l-16.72 11.61c-.142.114-.273.241-.39.38l-.06.07c-.103.149-.187.31-.25.48v.11c-.051.166-.081.337-.09.51-.001.017-.001.033 0 .05V66.5c0 .53.211 1.039.586 1.414s.884.586 1.414.586h33.39c.126.015.254.015.38 0h.17l.2-.06c.06-.024.117-.054.17-.09l.17-.09.16-.12.12-.1L5905.29 54c.198-.186.356-.411.464-.66.109-.249.165-.518.166-.79v-31.2zm-32.87 2h25.11l-9.71 7.68h-26.4zm-15.36 11.7h29.46V64.5h-29.46zm33.46 26.8V34l10.77-8.5v26.15z"/><path d="M5887.04 28.09l-14.53-.13 1.9-1.47 14.37.07-1.74 1.53z"/></g><g fill="#ffffff"><path d="M5985.92 21.35c.005-.06.005-.12 0-.18-.007-.136-.03-.27-.07-.4-.004-.016-.004-.034 0-.05 0-.06-.06-.1-.08-.16-.05-.112-.11-.219-.18-.32-.044-.068-.095-.131-.15-.19l-.24-.23c-.069-.056-.143-.106-.22-.15l-.15-.1h-.14l-.25-.08c-.111-.032-.225-.049-.34-.05-.046-.006-.094-.006-.14 0h-31.54c-.411.003-.811.128-1.15.36l-16.72 11.61c-.142.114-.273.241-.39.38l-.06.07c-.103.149-.187.31-.25.48v.11c-.051.166-.081.337-.09.51-.001.017-.001.033 0 .05V66.5c0 .53.211 1.039.586 1.414s.884.586 1.414.586h33.39c.126.015.254.015.38 0h.17l.2-.06c.06-.024.117-.054.17-.09l.17-.09.16-.12.12-.1L5985.29 54c.198-.186.356-.411.464-.66.109-.249.165-.518.166-.79v-31.2zm-32.87 2h25.11l-9.71 7.68h-26.4zm-15.36 11.7h29.46V64.5h-29.46zm33.46 26.8V34l10.77-8.5v26.15z"/><path d="M5967.04 28.09l-14.53-.13 1.9-1.47 14.37.07-1.74 1.53z"/></g><g fill="#ffffff"><path d="M6065.92 21.35c.005-.06.005-.12 0-.18-.007-.136-.03-.27-.07-.4-.004-.016-.004-.034 0-.05 0-.06-.06-.1-.08-.16-.05-.112-.11-.219-.18-.32-.044-.068-.095-.131-.15-.19l-.24-.23c-.069-.056-.143-.106-.22-.15l-.15-.1h-.14l-.25-.08c-.111-.032-.225-.049-.34-.05-.046-.006-.094-.006-.14 0h-31.54c-.411.003-.811.128-1.15.36l-16.72 11.61c-.142.114-.273.241-.39.38l-.06.07c-.103.149-.187.31-.25.48v.11c-.051.166-.081.337-.09.51-.001.017-.001.033 0 .05V66.5c0 .53.211 1.039.586 1.414s.884.586 1.414.586h33.39c.126.015.254.015.38 0h.17l.2-.06c.06-.024.117-.054.17-.09l.17-.09.16-.12.12-.1L6065.29 54c.198-.186.356-.411.464-.66.109-.249.165-.518.166-.79v-31.2zm-32.87 2h25.11l-9.71 7.68h-26.4zm-15.36 11.7h29.46V64.5h-29.46zm33.46 26.8V34l10.77-8.5v26.15z"/><path d="M6047.04 28.09l-14.53-.13 1.9-1.47 14.37.07-1.74 1.53z"/></g><g fill="#ffffff"><path d="M6145.92 21.35c.005-.06.005-.12 0-.18-.007-.136-.03-.27-.07-.4-.004-.016-.004-.034 0-.05 0-.06-.06-.1-.08-.16-.05-.112-.11-.219-.18-.32-.044-.068-.095-.131-.15-.19l-.24-.23c-.069-.056-.143-.106-.22-.15l-.15-.1h-.14l-.25-.08c-.111-.032-.225-.049-.34-.05-.046-.006-.094-.006-.14 0h-31.54c-.411.003-.811.128-1.15.36l-16.72 11.61c-.142.114-.273.241-.39.38l-.06.07c-.103.149-.187.31-.25.48v.11c-.051.166-.081.337-.09.51-.001.017-.001.033 0 .05V66.5c0 .53.211 1.039.586 1.414s.884.586 1.414.586h33.39c.126.015.254.015.38 0h.17l.2-.06c.06-.024.117-.054.17-.09l.17-.09.16-.12.12-.1L6145.29 54c.198-.186.356-.411.464-.66.109-.249.165-.518.166-.79v-31.2zm-32.87 2h25.11l-9.71 7.68h-26.4zm-15.36 11.7h29.46V64.5h-29.46zm33.46 26.8V34l10.77-8.5v26.15z"/><path d="M6127.04 28.09l-14.53-.13 1.9-1.47 14.37.07-1.74 1.53z"/></g><g fill="#ffffff"><path d="M6225.92 21.35c.005-.06.005-.12 0-.18-.007-.136-.03-.27-.07-.4-.004-.016-.004-.034 0-.05 0-.06-.06-.1-.08-.16-.05-.112-.11-.219-.18-.32-.044-.068-.095-.131-.15-.19l-.24-.23c-.069-.056-.143-.106-.22-.15l-.15-.1h-.14l-.25-.08c-.111-.032-.225-.049-.34-.05-.046-.006-.094-.006-.14 0h-31.54c-.411.003-.811.128-1.15.36l-16.72 11.61c-.142.114-.273.241-.39.38l-.06.07c-.103.149-.187.31-.25.48v.11c-.051.166-.081.337-.09.51-.001.017-.001.033 0 .05V66.5c0 .53.211 1.039.586 1.414s.884.586 1.414.586h33.39c.126.015.254.015.38 0h.17l.2-.06c.06-.024.117-.054.17-.09l.17-.09.16-.12.12-.1L6225.29 54c.198-.186.356-.411.464-.66.109-.249.165-.518.166-.79v-31.2zm-32.87 2h25.11l-9.71 7.68h-26.4zm-15.36 11.7h29.46V64.5h-29.46zm33.46 26.8V34l10.77-8.5v26.15z"/><path d="M6207.04 28.09l-14.53-.13 1.9-1.47 14.37.07-1.74 1.53z"/></g><g fill="#ffffff"><path d="M6305.92 21.35c.005-.06.005-.12 0-.18-.007-.136-.03-.27-.07-.4-.004-.016-.004-.034 0-.05 0-.06-.06-.1-.08-.16-.05-.112-.11-.219-.18-.32-.044-.068-.095-.131-.15-.19l-.24-.23c-.069-.056-.143-.106-.22-.15l-.15-.1h-.14l-.25-.08c-.111-.032-.225-.049-.34-.05-.046-.006-.094-.006-.14 0h-31.54c-.411.003-.811.128-1.15.36l-16.72 11.61c-.142.114-.273.241-.39.38l-.06.07c-.103.149-.187.31-.25.48v.11c-.051.166-.081.337-.09.51-.001.017-.001.033 0 .05V66.5c0 .53.211 1.039.586 1.414s.884.586 1.414.586h33.39c.126.015.254.015.38 0h.17l.2-.06c.06-.024.117-.054.17-.09l.17-.09.16-.12.12-.1L6305.29 54c.198-.186.356-.411.464-.66.109-.249.165-.518.166-.79v-31.2zm-32.87 2h25.11l-9.71 7.68h-26.4zm-15.36 11.7h29.46V64.5h-29.46zm33.46 26.8V34l10.77-8.5v26.15z"/><path d="M6287.04 28.09l-14.53-.13 1.9-1.47 14.37.07-1.74 1.53z"/></g><g fill="#ffffff"><path d="M6385.92 21.35c.005-.06.005-.12 0-.18-.007-.136-.03-.27-.07-.4-.004-.016-.004-.034 0-.05 0-.06-.06-.1-.08-.16-.05-.112-.11-.219-.18-.32-.044-.068-.095-.131-.15-.19l-.24-.23c-.069-.056-.143-.106-.22-.15l-.15-.1h-.14l-.25-.08c-.111-.032-.225-.049-.34-.05-.046-.006-.094-.006-.14 0h-31.54c-.411.003-.811.128-1.15.36l-16.72 11.61c-.142.114-.273.241-.39.38l-.06.07c-.103.149-.187.31-.25.48v.11c-.051.166-.081.337-.09.51-.001.017-.001.033 0 .05V66.5c0 .53.211 1.039.586 1.414s.884.586 1.414.586h33.39c.126.015.254.015.38 0h.17l.2-.06c.06-.024.117-.054.17-.09l.17-.09.16-.12.12-.1L6385.29 54c.198-.186.356-.411.464-.66.109-.249.165-.518.166-.79v-31.2zm-32.87 2h25.11l-9.71 7.68h-26.4zm-15.36 11.7h29.46V64.5h-29.46zm33.46 26.8V34l10.77-8.5v26.15z"/><path d="M6367.04 28.09l-14.53-.13 1.9-1.47 14.37.07-1.74 1.53z"/></g><g fill="#ffffff"><path d="M6465.92 21.35c.005-.06.005-.12 0-.18-.007-.136-.03-.27-.07-.4-.004-.016-.004-.034 0-.05 0-.06-.06-.1-.08-.16-.05-.112-.11-.219-.18-.32-.044-.068-.095-.131-.15-.19l-.24-.23c-.069-.056-.143-.106-.22-.15l-.15-.1h-.14l-.25-.08c-.111-.032-.225-.049-.34-.05-.046-.006-.094-.006-.14 0h-31.54c-.411.003-.811.128-1.15.36l-16.72 11.61c-.142.114-.273.241-.39.38l-.06.07c-.103.149-.187.31-.25.48v.11c-.051.166-.081.337-.09.51-.001.017-.001.033 0 .05V66.5c0 .53.211 1.039.586 1.414s.884.586 1.414.586h33.39c.126.015.254.015.38 0h.17l.2-.06c.06-.024.117-.054.17-.09l.17-.09.16-.12.12-.1L6465.29 54c.198-.186.356-.411.464-.66.109-.249.165-.518.166-.79v-31.2zm-32.87 2h25.11l-9.71 7.68h-26.4zm-15.36 11.7h29.46V64.5h-29.46zm33.46 26.8V34l10.77-8.5v26.15z"/><path d="M6447.04 28.09l-14.53-.13 1.9-1.47 14.37.07-1.74 1.53z"/></g><g fill="#ffffff"><path d="M6545.92 21.35c.005-.06.005-.12 0-.18-.007-.136-.03-.27-.07-.4-.004-.016-.004-.034 0-.05 0-.06-.06-.1-.08-.16-.05-.112-.11-.219-.18-.32-.044-.068-.095-.131-.15-.19l-.24-.23c-.069-.056-.143-.106-.22-.15l-.15-.1h-.14l-.25-.08c-.111-.032-.225-.049-.34-.05-.046-.006-.094-.006-.14 0h-31.54c-.411.003-.811.128-1.15.36l-16.72 11.61c-.142.114-.273.241-.39.38l-.06.07c-.103.149-.187.31-.25.48v.11c-.051.166-.081.337-.09.51-.001.017-.001.033 0 .05V66.5c0 .53.211 1.039.586 1.414s.884.586 1.414.586h33.39c.126.015.254.015.38 0h.17l.2-.06c.06-.024.117-.054.17-.09l.17-.09.16-.12.12-.1L6545.29 54c.198-.186.356-.411.464-.66.109-.249.165-.518.166-.79v-31.2zm-32.87 2h25.11l-9.71 7.68h-26.4zm-15.36 11.7h29.46V64.5h-29.46zm33.46 26.8V34l10.77-8.5v26.15z"/><path d="M6527.04 28.09l-14.53-.13 1.9-1.47 14.37.07-1.74 1.53z"/></g><g fill="#ffffff"><path d="M6625.92 21.35c.005-.06.005-.12 0-.18-.007-.136-.03-.27-.07-.4-.004-.016-.004-.034 0-.05 0-.06-.06-.1-.08-.16-.05-.112-.11-.219-.18-.32-.044-.068-.095-.131-.15-.19l-.24-.23c-.069-.056-.143-.106-.22-.15l-.15-.1h-.14l-.25-.08c-.111-.032-.225-.049-.34-.05-.046-.006-.094-.006-.14 0h-31.54c-.411.003-.811.128-1.15.36l-16.72 11.61c-.142.114-.273.241-.39.38l-.06.07c-.103.149-.187.31-.25.48v.11c-.051.166-.081.337-.09.51-.001.017-.001.033 0 .05V66.5c0 .53.211 1.039.586 1.414s.884.586 1.414.586h33.39c.126.015.254.015.38 0h.17l.2-.06c.06-.024.117-.054.17-.09l.17-.09.16-.12.12-.1L6625.29 54c.198-.186.356-.411.464-.66.109-.249.165-.518.166-.79v-31.2zm-32.87 2h25.11l-9.71 7.68h-26.4zm-15.36 11.7h29.46V64.5h-29.46zm33.46 26.8V34l10.77-8.5v26.15z"/><path d="M6607.04 28.09l-14.53-.13 1.9-1.47 14.37.07-1.74 1.53z"/></g><g fill="#ffffff"><path d="M6705.92 21.35c.005-.06.005-.12 0-.18-.007-.136-.03-.27-.07-.4-.004-.016-.004-.034 0-.05 0-.06-.06-.1-.08-.16-.05-.112-.11-.219-.18-.32-.044-.068-.095-.131-.15-.19l-.24-.23c-.069-.056-.143-.106-.22-.15l-.15-.1h-.14l-.25-.08c-.111-.032-.225-.049-.34-.05-.046-.006-.094-.006-.14 0h-31.54c-.411.003-.811.128-1.15.36l-16.72 11.61c-.142.114-.273.241-.39.38l-.06.07c-.103.149-.187.31-.25.48v.11c-.051.166-.081.337-.09.51-.001.017-.001.033 0 .05V66.5c0 .53.211 1.039.586 1.414s.884.586 1.414.586h33.39c.126.015.254.015.38 0h.17l.2-.06c.06-.024.117-.054.17-.09l.17-.09.16-.12.12-.1L6705.29 54c.198-.186.356-.411.464-.66.109-.249.165-.518.166-.79v-31.2zm-32.87 2h25.11l-9.71 7.68h-26.4zm-15.36 11.7h29.46V64.5h-29.46zm33.46 26.8V34l10.77-8.5v26.15z"/><path d="M6687.04 28.09l-14.53-.13 1.9-1.47 14.37.07-1.74 1.53z"/></g><g fill="#ffffff"><path d="M6785.92 21.35c.005-.06.005-.12 0-.18-.007-.136-.03-.27-.07-.4-.004-.016-.004-.034 0-.05 0-.06-.06-.1-.08-.16-.05-.112-.11-.219-.18-.32-.044-.068-.095-.131-.15-.19l-.24-.23c-.069-.056-.143-.106-.22-.15l-.15-.1h-.14l-.25-.08c-.111-.032-.225-.049-.34-.05-.046-.006-.094-.006-.14 0h-31.54c-.411.003-.811.128-1.15.36l-16.72 11.61c-.142.114-.273.241-.39.38l-.06.07c-.103.149-.187.31-.25.48v.11c-.051.166-.081.337-.09.51-.001.017-.001.033 0 .05V66.5c0 .53.211 1.039.586 1.414s.884.586 1.414.586h33.39c.126.015.254.015.38 0h.17l.2-.06c.06-.024.117-.054.17-.09l.17-.09.16-.12.12-.1L6785.29 54c.198-.186.356-.411.464-.66.109-.249.165-.518.166-.79v-31.2zm-32.87 2h25.11l-9.71 7.68h-26.4zm-15.36 11.7h29.46V64.5h-29.46zm33.46 26.8V34l10.77-8.5v26.15z"/><path d="M6767.04 28.09l-14.53-.13 1.9-1.47 14.37.07-1.74 1.53z"/></g><g fill="#ffffff"><path d="M6865.92 21.35c.005-.06.005-.12 0-.18-.007-.136-.03-.27-.07-.4-.004-.016-.004-.034 0-.05 0-.06-.06-.1-.08-.16-.05-.112-.11-.219-.18-.32-.044-.068-.095-.131-.15-.19l-.24-.23c-.069-.056-.143-.106-.22-.15l-.15-.1h-.14l-.25-.08c-.111-.032-.225-.049-.34-.05-.046-.006-.094-.006-.14 0h-31.54c-.411.003-.811.128-1.15.36l-16.72 11.61c-.142.114-.273.241-.39.38l-.06.07c-.103.149-.187.31-.25.48v.11c-.051.166-.081.337-.09.51-.001.017-.001.033 0 .05V66.5c0 .53.211 1.039.586 1.414s.884.586 1.414.586h33.39c.126.015.254.015.38 0h.17l.2-.06c.06-.024.117-.054.17-.09l.17-.09.16-.12.12-.1L6865.29 54c.198-.186.356-.411.464-.66.109-.249.165-.518.166-.79v-31.2zm-32.87 2h25.11l-9.71 7.68h-26.4zm-15.36 11.7h29.46V64.5h-29.46zm33.46 26.8V34l10.77-8.5v26.15z"/><path d="M6847.04 28.09l-14.53-.13 1.9-1.47 14.37.07-1.74 1.53z"/></g><g fill="#ffffff"><path d="M6945.92 21.35c.005-.06.005-.12 0-.18-.007-.136-.03-.27-.07-.4-.004-.016-.004-.034 0-.05 0-.06-.06-.1-.08-.16-.05-.112-.11-.219-.18-.32-.044-.068-.095-.131-.15-.19l-.24-.23c-.069-.056-.143-.106-.22-.15l-.15-.1h-.14l-.25-.08c-.111-.032-.225-.049-.34-.05-.046-.006-.094-.006-.14 0h-31.54c-.411.003-.811.128-1.15.36l-16.72 11.61c-.142.114-.273.241-.39.38l-.06.07c-.103.149-.187.31-.25.48v.11c-.051.166-.081.337-.09.51-.001.017-.001.033 0 .05V66.5c0 .53.211 1.039.586 1.414s.884.586 1.414.586h33.39c.126.015.254.015.38 0h.17l.2-.06c.06-.024.117-.054.17-.09l.17-.09.16-.12.12-.1L6945.29 54c.198-.186.356-.411.464-.66.109-.249.165-.518.166-.79v-31.2zm-32.87 2h25.11l-9.71 7.68h-26.4zm-15.36 11.7h29.46V64.5h-29.46zm33.46 26.8V34l10.77-8.5v26.15z"/><path d="M6927.04 28.09l-14.53-.13 1.9-1.47 14.37.07-1.74 1.53z"/></g><g fill="#ffffff"><path d="M7025.92 21.35c.005-.06.005-.12 0-.18-.007-.136-.03-.27-.07-.4-.004-.016-.004-.034 0-.05 0-.06-.06-.1-.08-.16-.05-.112-.11-.219-.18-.32-.044-.068-.095-.131-.15-.19l-.24-.23c-.069-.056-.143-.106-.22-.15l-.15-.1h-.14l-.25-.08c-.111-.032-.225-.049-.34-.05-.046-.006-.094-.006-.14 0h-31.54c-.411.003-.811.128-1.15.36l-16.72 11.61c-.142.114-.273.241-.39.38l-.06.07c-.103.149-.187.31-.25.48v.11c-.051.166-.081.337-.09.51-.001.017-.001.033 0 .05V66.5c0 .53.211 1.039.586 1.414s.884.586 1.414.586h33.39c.126.015.254.015.38 0h.17l.2-.06c.06-.024.117-.054.17-.09l.17-.09.16-.12.12-.1L7025.29 54c.198-.186.356-.411.464-.66.109-.249.165-.518.166-.79v-31.2zm-32.87 2h25.11l-9.71 7.68h-26.4zm-15.36 11.7h29.46V64.5h-29.46zm33.46 26.8V34l10.77-8.5v26.15z"/><path d="M7007.04 28.09l-14.53-.13 1.9-1.47 14.37.07-1.74 1.53z"/></g><g fill="#ffffff"><path d="M7105.92 21.35c.005-.06.005-.12 0-.18-.007-.136-.03-.27-.07-.4-.004-.016-.004-.034 0-.05 0-.06-.06-.1-.08-.16-.05-.112-.11-.219-.18-.32-.044-.068-.095-.131-.15-.19l-.24-.23c-.069-.056-.143-.106-.22-.15l-.15-.1h-.14l-.25-.08c-.111-.032-.225-.049-.34-.05-.046-.006-.094-.006-.14 0h-31.54c-.411.003-.811.128-1.15.36l-16.72 11.61c-.142.114-.273.241-.39.38l-.06.07c-.103.149-.187.31-.25.48v.11c-.051.166-.081.337-.09.51-.001.017-.001.033 0 .05V66.5c0 .53.211 1.039.586 1.414s.884.586 1.414.586h33.39c.126.015.254.015.38 0h.17l.2-.06c.06-.024.117-.054.17-.09l.17-.09.16-.12.12-.1L7105.29 54c.198-.186.356-.411.464-.66.109-.249.165-.518.166-.79v-31.2zm-32.87 2h25.11l-9.71 7.68h-26.4zm-15.36 11.7h29.46V64.5h-29.46zm33.46 26.8V34l10.77-8.5v26.15z"/><path d="M7087.04 28.09l-14.53-.13 1.9-1.47 14.37.07-1.74 1.53z"/></g><g fill="#ffffff"><path d="M7185.92 21.35c.005-.06.005-.12 0-.18-.007-.136-.03-.27-.07-.4-.004-.016-.004-.034 0-.05 0-.06-.06-.1-.08-.16-.05-.112-.11-.219-.18-.32-.044-.068-.095-.131-.15-.19l-.24-.23c-.069-.056-.143-.106-.22-.15l-.15-.1h-.14l-.25-.08c-.111-.032-.225-.049-.34-.05-.046-.006-.094-.006-.14 0h-31.54c-.411.003-.811.128-1.15.36l-16.72 11.61c-.142.114-.273.241-.39.38l-.06.07c-.103.149-.187.31-.25.48v.11c-.051.166-.081.337-.09.51-.001.017-.001.033 0 .05V66.5c0 .53.211 1.039.586 1.414s.884.586 1.414.586h33.39c.126.015.254.015.38 0h.17l.2-.06c.06-.024.117-.054.17-.09l.17-.09.16-.12.12-.1L7185.29 54c.198-.186.356-.411.464-.66.109-.249.165-.518.166-.79v-31.2zm-32.87 2h25.11l-9.71 7.68h-26.4zm-15.36 11.7h29.46V64.5h-29.46zm33.46 26.8V34l10.77-8.5v26.15z"/><path d="M7167.04 28.09l-14.53-.13 1.9-1.47 14.37.07-1.74 1.53z"/></g><g fill="#ffffff"><path d="M7265.92 21.35c.005-.06.005-.12 0-.18-.007-.136-.03-.27-.07-.4-.004-.016-.004-.034 0-.05 0-.06-.06-.1-.08-.16-.05-.112-.11-.219-.18-.32-.044-.068-.095-.131-.15-.19l-.24-.23c-.069-.056-.143-.106-.22-.15l-.15-.1h-.14l-.25-.08c-.111-.032-.225-.049-.34-.05-.046-.006-.094-.006-.14 0h-31.54c-.411.003-.811.128-1.15.36l-16.72 11.61c-.142.114-.273.241-.39.38l-.06.07c-.103.149-.187.31-.25.48v.11c-.051.166-.081.337-.09.51-.001.017-.001.033 0 .05V66.5c0 .53.211 1.039.586 1.414s.884.586 1.414.586h33.39c.126.015.254.015.38 0h.17l.2-.06c.06-.024.117-.054.17-.09l.17-.09.16-.12.12-.1L7265.29 54c.198-.186.356-.411.464-.66.109-.249.165-.518.166-.79v-31.2zm-32.87 2h25.11l-9.71 7.68h-26.4zm-15.36 11.7h29.46V64.5h-29.46zm33.46 26.8V34l10.77-8.5v26.15z"/><path d="M7247.04 28.09l-14.53-.13 1.9-1.47 14.37.07-1.74 1.53z"/></g><g fill="#ffffff"><path d="M7345.92 21.35c.005-.06.005-.12 0-.18-.007-.136-.03-.27-.07-.4-.004-.016-.004-.034 0-.05 0-.06-.06-.1-.08-.16-.05-.112-.11-.219-.18-.32-.044-.068-.095-.131-.15-.19l-.24-.23c-.069-.056-.143-.106-.22-.15l-.15-.1h-.14l-.25-.08c-.111-.032-.225-.049-.34-.05-.046-.006-.094-.006-.14 0h-31.54c-.411.003-.811.128-1.15.36l-16.72 11.61c-.142.114-.273.241-.39.38l-.06.07c-.103.149-.187.31-.25.48v.11c-.051.166-.081.337-.09.51-.001.017-.001.033 0 .05V66.5c0 .53.211 1.039.586 1.414s.884.586 1.414.586h33.39c.126.015.254.015.38 0h.17l.2-.06c.06-.024.117-.054.17-.09l.17-.09.16-.12.12-.1L7345.29 54c.198-.186.356-.411.464-.66.109-.249.165-.518.166-.79v-31.2zm-32.87 2h25.11l-9.71 7.68h-26.4zm-15.36 11.7h29.46V64.5h-29.46zm33.46 26.8V34l10.77-8.5v26.15z"/><path d="M7327.04 28.09l-14.53-.13 1.9-1.47 14.37.07-1.74 1.53z"/></g><g fill="#ffffff"><path d="M7425.92 21.35c.005-.06.005-.12 0-.18-.007-.136-.03-.27-.07-.4-.004-.016-.004-.034 0-.05 0-.06-.06-.1-.08-.16-.05-.112-.11-.219-.18-.32-.044-.068-.095-.131-.15-.19l-.24-.23c-.069-.056-.143-.106-.22-.15l-.15-.1h-.14l-.25-.08c-.111-.032-.225-.049-.34-.05-.046-.006-.094-.006-.14 0h-31.54c-.411.003-.811.128-1.15.36l-16.72 11.61c-.142.114-.273.241-.39.38l-.06.07c-.103.149-.187.31-.25.48v.11c-.051.166-.081.337-.09.51-.001.017-.001.033 0 .05V66.5c0 .53.211 1.039.586 1.414s.884.586 1.414.586h33.39c.126.015.254.015.38 0h.17l.2-.06c.06-.024.117-.054.17-.09l.17-.09.16-.12.12-.1L7425.29 54c.198-.186.356-.411.464-.66.109-.249.165-.518.166-.79v-31.2zm-32.87 2h25.11l-9.71 7.68h-26.4zm-15.36 11.7h29.46V64.5h-29.46zm33.46 26.8V34l10.77-8.5v26.15z"/><path d="M7407.04 28.09l-14.53-.13 1.9-1.47 14.37.07-1.74 1.53z"/></g><g fill="#ffffff"><path d="M7505.92 21.35c.005-.06.005-.12 0-.18-.007-.136-.03-.27-.07-.4-.004-.016-.004-.034 0-.05 0-.06-.06-.1-.08-.16-.05-.112-.11-.219-.18-.32-.044-.068-.095-.131-.15-.19l-.24-.23c-.069-.056-.143-.106-.22-.15l-.15-.1h-.14l-.25-.08c-.111-.032-.225-.049-.34-.05-.046-.006-.094-.006-.14 0h-31.54c-.411.003-.811.128-1.15.36l-16.72 11.61c-.142.114-.273.241-.39.38l-.06.07c-.103.149-.187.31-.25.48v.11c-.051.166-.081.337-.09.51-.001.017-.001.033 0 .05V66.5c0 .53.211 1.039.586 1.414s.884.586 1.414.586h33.39c.126.015.254.015.38 0h.17l.2-.06c.06-.024.117-.054.17-.09l.17-.09.16-.12.12-.1L7505.29 54c.198-.186.356-.411.464-.66.109-.249.165-.518.166-.79v-31.2zm-32.87 2h25.11l-9.71 7.68h-26.4zm-15.36 11.7h29.46V64.5h-29.46zm33.46 26.8V34l10.77-8.5v26.15z"/><path d="M7487.04 28.09l-14.53-.13 1.9-1.47 14.37.07-1.74 1.53z"/></g><g fill="#ffffff"><path d="M7585.92 21.35c.005-.06.005-.12 0-.18-.007-.136-.03-.27-.07-.4-.004-.016-.004-.034 0-.05 0-.06-.06-.1-.08-.16-.05-.112-.11-.219-.18-.32-.044-.068-.095-.131-.15-.19l-.24-.23c-.069-.056-.143-.106-.22-.15l-.15-.1h-.14l-.25-.08c-.111-.032-.225-.049-.34-.05-.046-.006-.094-.006-.14 0h-31.54c-.411.003-.811.128-1.15.36l-16.72 11.61c-.142.114-.273.241-.39.38l-.06.07c-.103.149-.187.31-.25.48v.11c-.051.166-.081.337-.09.51-.001.017-.001.033 0 .05V66.5c0 .53.211 1.039.586 1.414s.884.586 1.414.586h33.39c.126.015.254.015.38 0h.17l.2-.06c.06-.024.117-.054.17-.09l.17-.09.16-.12.12-.1L7585.29 54c.198-.186.356-.411.464-.66.109-.249.165-.518.166-.79v-31.2zm-32.87 2h25.11l-9.71 7.68h-26.4zm-15.36 11.7h29.46V64.5h-29.46zm33.46 26.8V34l10.77-8.5v26.15z"/><path d="M7567.04 28.09l-14.53-.13 1.9-1.47 14.37.07-1.74 1.53z"/></g><g fill="#ffffff"><path d="M7665.92 21.35c.005-.06.005-.12 0-.18-.007-.136-.03-.27-.07-.4-.004-.016-.004-.034 0-.05 0-.06-.06-.1-.08-.16-.05-.112-.11-.219-.18-.32-.044-.068-.095-.131-.15-.19l-.24-.23c-.069-.056-.143-.106-.22-.15l-.15-.1h-.14l-.25-.08c-.111-.032-.225-.049-.34-.05-.046-.006-.094-.006-.14 0h-31.54c-.411.003-.811.128-1.15.36l-16.72 11.61c-.142.114-.273.241-.39.38l-.06.07c-.103.149-.187.31-.25.48v.11c-.051.166-.081.337-.09.51-.001.017-.001.033 0 .05V66.5c0 .53.211 1.039.586 1.414s.884.586 1.414.586h33.39c.126.015.254.015.38 0h.17l.2-.06c.06-.024.117-.054.17-.09l.17-.09.16-.12.12-.1L7665.29 54c.198-.186.356-.411.464-.66.109-.249.165-.518.166-.79v-31.2zm-32.87 2h25.11l-9.71 7.68h-26.4zm-15.36 11.7h29.46V64.5h-29.46zm33.46 26.8V34l10.77-8.5v26.15z"/><path d="M7647.04 28.09l-14.53-.13 1.9-1.47 14.37.07-1.74 1.53z"/></g><g fill="#ffffff"><path d="M7745.92 21.35c.005-.06.005-.12 0-.18-.007-.136-.03-.27-.07-.4-.004-.016-.004-.034 0-.05 0-.06-.06-.1-.08-.16-.05-.112-.11-.219-.18-.32-.044-.068-.095-.131-.15-.19l-.24-.23c-.069-.056-.143-.106-.22-.15l-.15-.1h-.14l-.25-.08c-.111-.032-.225-.049-.34-.05-.046-.006-.094-.006-.14 0h-31.54c-.411.003-.811.128-1.15.36l-16.72 11.61c-.142.114-.273.241-.39.38l-.06.07c-.103.149-.187.31-.25.48v.11c-.051.166-.081.337-.09.51-.001.017-.001.033 0 .05V66.5c0 .53.211 1.039.586 1.414s.884.586 1.414.586h33.39c.126.015.254.015.38 0h.17l.2-.06c.06-.024.117-.054.17-.09l.17-.09.16-.12.12-.1L7745.29 54c.198-.186.356-.411.464-.66.109-.249.165-.518.166-.79v-31.2zm-32.87 2h25.11l-9.71 7.68h-26.4zm-15.36 11.7h29.46V64.5h-29.46zm33.46 26.8V34l10.77-8.5v26.15z"/><path d="M7727.04 28.09l-14.53-.13 1.9-1.47 14.37.07-1.74 1.53z"/></g></svg>