<?xml version="1.0" encoding="utf-8"?>
<!-- Generator: Adobe Illustrator 23.1.0, SVG Export Plug-In . SVG Version: 6.00 Build 0)  -->
<svg version="1.1" id="Layer_1" xmlns="http://www.w3.org/2000/svg" xmlns:xlink="http://www.w3.org/1999/xlink" x="0px" y="0px"
	 viewBox="0 0 307 54" style="enable-background:new 0 0 307 54;" xml:space="preserve">
<style type="text/css">
	.st0{fill-rule:evenodd;clip-rule:evenodd;fill:#FFFFFF;}
	.st1{filter:url(#Adobe_OpacityMaskFilter);}
	.st2{mask:url(#prefix__b_1_);fill-rule:evenodd;clip-rule:evenodd;fill:#FFFFFF;}
	.st3{filter:url(#Adobe_OpacityMaskFilter_1_);}
	.st4{mask:url(#prefix__d_1_);fill-rule:evenodd;clip-rule:evenodd;fill:#FFFFFF;}
	.st5{filter:url(#Adobe_OpacityMaskFilter_2_);}
	.st6{mask:url(#prefix__d_2_);fill-rule:evenodd;clip-rule:evenodd;fill:#FFE61A;fill-opacity:0.5;}
</style>
<g>
	<path class="st0" d="M11.7,6.1c-0.3,0-0.8,0.1-1.1,0.1s-0.8,0-1.1-0.1L9.4,5H7.7v9.7L9,14.9c0,0.3,0.1,0.7,0.1,1c0,0.3,0,0.7-0.1,1
		H3.7c0-0.3,0-0.7,0-1c0-0.3,0-0.7,0-1l1.4-0.2V5H3.4L3.1,6.2C2.5,6.2,1.7,6.1,1,6c0-0.7,0.1-2.1,0.2-3.1h10.4
		C11.7,2.9,11.7,6.1,11.7,6.1z M27.1,16.8h-5.2c0-0.3,0-0.7,0-1c0-0.3,0-0.7,0-1l1.2-0.2v-3.9h-5.3v3.9l1.2,0.2c0,0.3,0,0.7,0,1
		c0,0.3,0,0.7,0,1h-5.2c0-0.3,0-0.7,0-1c0-0.3,0-0.7,0-1l1.4-0.2V5.1l-1.4-0.2c0-0.3,0-0.7,0-1c0-0.3,0-0.7,0-1H19c0,0.3,0,0.7,0,1
		c0,0.3,0,0.7,0,1l-1.2,0.2v3.6h5.3V5.1l-1.2-0.2c0-0.3,0-0.7,0-1c0-0.3,0-0.7,0-1h5.2c0,0.3,0,0.7,0,1c0,0.3,0,0.7,0,1l-1.4,0.2
		v9.6l1.4,0.2c0,0.3,0,0.7,0,1C27.1,16.2,27.1,16.5,27.1,16.8 M39.8,16.8H29.7c0-0.3,0-0.7,0-1c0-0.3,0-0.7,0-1l1.4-0.2V5.1
		l-1.4-0.2c0-0.3,0-0.7,0-1c0-0.3,0-0.7,0-1h10v3.3c-0.3,0-0.8,0.1-1.1,0.1c-0.3,0-0.9,0-1.2-0.1L37.3,5h-3.6v3.6H38
		c0,0.7-0.1,1.5-0.1,2.2h-4.2v3.9h3.7l0.2-1.3c0.3,0,0.8-0.1,1.2-0.1c0.3,0,0.8,0,1.1,0.1C39.8,13.5,39.8,16.8,39.8,16.8z
		 M56.8,16.8h-8.4c0-0.4-0.1-0.7-0.1-1.1c0-0.4,0-0.7,0.1-1.1h3.6V5.2l-3.2,0.4c-0.1-0.6-0.2-1.4-0.2-2l3.7-0.7h2.3v11.7H57
		C57,15.3,56.9,16.2,56.8,16.8 M64.2,4.7c-1.1,0-1.7,0.7-1.7,1.7c0,1.1,0.6,1.9,1.8,2.3c1-0.4,1.6-1.3,1.6-2.3
		C65.9,5.3,65.3,4.7,64.2,4.7 M64,10.6c-1,0.4-1.7,1.4-1.7,2.5c0,1.2,0.5,2,1.9,2c1.4,0,1.9-0.7,1.9-2.1C66.1,11.8,65.2,11,64,10.6
		 M64.1,17c-2.4,0-4.2-1.1-4.2-3.8c0-1.4,0.7-2.6,2.3-3.4c-1.4-0.8-2-2-2-3.3c0-2.5,1.7-3.8,4.1-3.8c2.5,0,4,1.2,4,3.5
		c0,1.3-0.8,2.4-2.1,3.1c1.5,0.8,2.4,2,2.4,3.7C68.6,15.5,66.9,17,64.1,17 M73.1,10.1c-1.4,0-2-0.6-2-2.1V4.9h-0.8V3.7h0.8V2.4
		c0.4-0.1,0.9-0.2,1.4-0.2v1.5h1.6c0,0.4,0,0.8-0.1,1.2h-1.5V8c0,0.6,0.2,0.8,0.7,0.8c0.3,0,0.7-0.1,1-0.2c0.1,0.4,0.2,0.8,0.2,1.2
		C74,10,73.4,10.1,73.1,10.1"/>
	<g transform="translate(75 .939)">
		<defs>
			<filter id="Adobe_OpacityMaskFilter" filterUnits="userSpaceOnUse" x="0.5" y="0.1" width="6.6" height="9">
				<feColorMatrix  type="matrix" values="1 0 0 0 0  0 1 0 0 0  0 0 1 0 0  0 0 0 1 0"/>
			</filter>
		</defs>
		<mask maskUnits="userSpaceOnUse" x="0.5" y="0.1" width="6.6" height="9" id="prefix__b_1_">
			<g class="st1">
				<path id="prefix__a_1_" class="st0" d="M0.5,0.1H7v9H0.5V0.1z"/>
			</g>
		</mask>
		<path class="st2" d="M7,9H4.3c0-0.2,0-0.4,0-0.5c0-0.2,0-0.3,0-0.5l0.6-0.1V4.7c0-0.5-0.2-0.8-0.9-0.8C3.5,3.9,3.1,4,2.6,4.3v3.6
			L3.3,8c0,0.2,0,0.4,0,0.5c0,0.2,0,0.4,0,0.5H0.5c0-0.2,0-0.4,0-0.5c0-0.2,0-0.3,0-0.5l0.8-0.1V1.3L0.5,1.3c0-0.1,0-0.4,0-0.5
			c0-0.2,0-0.4,0-0.5C1.1,0.1,2,0.1,2.7,0.1L2.6,1.3v2h0.1c0.6-0.5,1.1-0.7,1.8-0.7c1,0,1.8,0.6,1.8,1.9v3.3L7,8c0,0.2,0,0.4,0,0.5
			C7,8.6,7,8.8,7,9"/>
	</g>
	<path class="st0" d="M99.4,6.1c-0.3,0-0.8,0.1-1.1,0.1s-0.8,0-1.1-0.1L97,5h-1.7v9.7l1.4,0.2c0,0.3,0.1,0.7,0.1,1
		c0,0.3,0,0.7-0.1,1h-5.4c0-0.3,0-0.7,0-1c0-0.3,0-0.7,0-1l1.4-0.2V5h-1.7l-0.3,1.2c-0.7,0-1.4-0.1-2.1-0.2c0-0.7,0.1-2.1,0.2-3.1
		h10.4C99.4,2.9,99.4,6.1,99.4,6.1z M106,6.4c-0.1-0.4-0.2-0.9-0.3-1.3h-0.2c0,0.3-0.1,0.8-0.3,1.3l-1.3,4.3h3.3
		C107.3,10.7,106,6.4,106,6.4z M111.8,16.8h-4.3c0-0.3,0-0.7,0-1c0-0.3,0-0.7,0-1l1-0.2l-0.6-2h-4.5l-0.6,2l0.9,0.2
		c0,0.3,0.1,0.7,0.1,1c0,0.3,0,0.7-0.1,1h-4.1c0-0.3,0-0.7,0-1c0-0.3,0-0.7,0-1l0.7-0.2c1.2-4,2.4-7.9,3.8-11.8h3
		c1.4,3.9,2.6,7.8,3.8,11.8l0.7,0.2c0,0.3,0,0.7,0,1C111.8,16.2,111.8,16.5,111.8,16.8z M119.2,16.8h-5.4c0-0.3,0-0.7,0-1
		c0-0.3,0-0.7,0-1l1.4-0.2V5.1l-1.4-0.2c0-0.3,0-0.7,0-1c0-0.3,0-0.7,0-1h5.4c0,0.3,0,0.7,0,1c0,0.3,0,0.7,0,1l-1.4,0.2v9.6l1.4,0.2
		c0,0.3,0,0.7,0,1C119.3,16.2,119.3,16.5,119.2,16.8 M126.4,17c-1.3,0-2.8-0.2-4-0.7v-3c0.3,0,0.8-0.1,1.1-0.1c0.3,0,0.8,0,1.1,0.1
		l0.2,1.3c0.4,0.1,1.1,0.2,1.8,0.2c1.4,0,2.1-0.6,2.1-1.7c0-2.5-6.1-2.2-6.1-6.4c0-2.6,2.1-4.1,5.1-4.1c1.1,0,2.3,0.1,3.3,0.4v3.1
		c-0.3,0-0.8,0.1-1.1,0.1c-0.3,0-0.8,0-1.2-0.1l-0.2-1.3c-0.3,0-0.8-0.1-1.3-0.1c-1.5,0-2,0.6-2,1.7c0,2.2,6.1,2.1,6.1,6.4
		C131.3,15.5,129.4,17,126.4,17 M147.2,16.8H142c0-0.3,0-0.7,0-1c0-0.3,0-0.7,0-1l1.2-0.2v-3.9h-5.3v3.9l1.2,0.2c0,0.3,0,0.7,0,1
		c0,0.3,0,0.7,0,1h-5.2c0-0.3,0-0.7,0-1c0-0.3,0-0.7,0-1l1.4-0.2V5.1l-1.4-0.2c0-0.3,0-0.7,0-1c0-0.3,0-0.7,0-1h5.2c0,0.3,0,0.7,0,1
		c0,0.3,0,0.7,0,1l-1.2,0.2v3.6h5.3V5.1L142,4.9c0-0.3,0-0.7,0-1c0-0.3,0-0.7,0-1h5.2c0,0.3,0,0.7,0,1c0,0.3,0,0.7,0,1l-1.4,0.2v9.6
		l1.4,0.2c0,0.3,0,0.7,0,1C147.2,16.2,147.2,16.5,147.2,16.8 M155.2,16.8h-5.4c0-0.3,0-0.7,0-1c0-0.3,0-0.7,0-1l1.4-0.2V5.1
		l-1.4-0.2c0-0.3,0-0.7,0-1c0-0.3,0-0.7,0-1h5.4c0,0.3,0,0.7,0,1c0,0.3,0,0.7,0,1l-1.4,0.2v9.6l1.4,0.2c0,0.3,0,0.7,0,1
		C155.3,16.2,155.2,16.5,155.2,16.8 M171,4.9l-1.2,0.2v11.7c-0.6,0.1-1.7,0.2-2.4,0.2L162.3,8c-0.2-0.4-0.5-1-0.6-1.5h-0.2
		c0.1,0.5,0.1,1.2,0.1,1.6v6.6l1.2,0.2c0,0.3,0,0.7,0,1c0,0.3,0,0.7,0,1h-4.9c0-0.3,0-0.7,0-1c0-0.3,0-0.7,0-1l1.4-0.2V5.1l-1.4-0.2
		c0-0.3,0-0.7,0-1c0-0.3,0-0.7,0-1h4l4.8,8.4c0.2,0.4,0.5,1,0.6,1.5h0.2c-0.1-0.5-0.1-1.2-0.1-1.6V5.1l-1.2-0.2c0-0.3,0-0.7,0-1
		c0-0.3,0-0.7,0-1h4.7c0,0.3,0,0.7,0,1C171,4.2,171,4.6,171,4.9 M184.1,6.4c-0.1-0.4-0.2-0.9-0.3-1.3h-0.2c0,0.3-0.1,0.8-0.3,1.3
		l-1.3,4.3h3.3L184.1,6.4L184.1,6.4z M189.9,16.8h-4.3c0-0.3,0-0.7,0-1c0-0.3,0-0.7,0-1l1-0.2l-0.6-2h-4.5l-0.6,2l0.9,0.2
		c0,0.3,0.1,0.7,0.1,1c0,0.3,0,0.7-0.1,1h-4.1c0-0.3,0-0.7,0-1c0-0.3,0-0.7,0-1l0.7-0.2c1.2-4,2.4-7.9,3.8-11.8h3
		c1.4,3.9,2.6,7.8,3.8,11.8l0.7,0.2c0,0.3,0,0.7,0,1C190,16.2,189.9,16.5,189.9,16.8L189.9,16.8z M196.8,4.8c-0.3,0-1.1,0-1.5,0v4.5
		h1.5c1.5,0,2.4-0.7,2.4-2.4C199.2,5.5,198.4,4.8,196.8,4.8L196.8,4.8z M203,15.6c0,1-0.6,1.4-1.6,1.4s-1.7-0.4-2.3-1.7l-2-4h-1.7
		v3.3l1.2,0.2c0,0.3,0.1,0.7,0.1,1c0,0.3,0,0.7-0.1,1h-5.1c0-0.3,0-0.7,0-1c0-0.3,0-0.7,0-1l1.4-0.2V5.1l-1.4-0.2c0-0.3,0-0.7,0-1
		c0-0.3,0-0.7,0-1c1.8-0.1,3.8-0.1,5.3-0.1c3.4,0,5.1,1.3,5.1,4.2c0,1.7-0.9,3.1-2.4,3.6l1.8,3.4c0.3,0.6,0.6,0.7,1.1,0.7h0.6V15.6z
		 M215.1,6.1c-0.3,0-0.8,0.1-1.1,0.1s-0.8,0-1.1-0.1L212.8,5h-1.7v9.7l1.4,0.2c0,0.3,0.1,0.7,0.1,1c0,0.3,0,0.7-0.1,1h-5.4
		c0-0.3,0-0.7,0-1c0-0.3,0-0.7,0-1l1.4-0.2V5h-1.7l-0.3,1.2c-0.7,0-1.4-0.1-2.1-0.2c0-0.7,0.1-2.1,0.2-3.1h10.4L215.1,6.1L215.1,6.1
		z M221.3,17c-1.3,0-2.8-0.2-4-0.7v-3c0.3,0,0.8-0.1,1.1-0.1c0.3,0,0.8,0,1.1,0.1l0.2,1.3c0.4,0.1,1.1,0.2,1.8,0.2
		c1.4,0,2.1-0.6,2.1-1.7c0-2.5-6.1-2.2-6.1-6.4c0-2.6,2.1-4.1,5.1-4.1c1.1,0,2.3,0.1,3.3,0.4v3.1c-0.3,0-0.8,0.1-1.1,0.1
		c-0.3,0-0.8,0-1.2-0.1l-0.2-1.3c-0.3,0-0.8-0.1-1.3-0.1c-1.5,0-2,0.6-2,1.7c0,2.2,6.1,2.1,6.1,6.4C226.2,15.5,224.3,17,221.3,17
		 M239.7,6.4c-0.1-0.4-0.2-0.9-0.3-1.3h-0.2c0,0.3-0.1,0.8-0.3,1.3l-1.3,4.3h3.3L239.7,6.4L239.7,6.4z M245.4,16.8h-4.3
		c0-0.3,0-0.7,0-1c0-0.3,0-0.7,0-1l1-0.2l-0.6-2h-4.5l-0.6,2l0.9,0.2c0,0.3,0.1,0.7,0.1,1c0,0.3,0,0.7-0.1,1h-4.1c0-0.3,0-0.7,0-1
		c0-0.3,0-0.7,0-1l0.7-0.2c1.2-4,2.4-7.9,3.8-11.8h3c1.4,3.9,2.6,7.8,3.8,11.8l0.7,0.2c0,0.3,0,0.7,0,1
		C245.5,16.2,245.5,16.5,245.4,16.8L245.4,16.8z M264.3,4.9l-1.1,0.2c-0.8,3.9-1.6,7.9-2.6,11.8h-2.7l-2.4-9.1
		c-0.1-0.4-0.2-1-0.2-1.6h-0.2c0,0.5-0.1,1.2-0.2,1.6l-2.4,9.1h-2.8c-0.9-3.9-1.8-7.8-2.5-11.8l-1.1-0.2c0-0.3-0.1-0.7-0.1-1
		c0-0.3,0-0.7,0.1-1h4.6c0,0.3,0,0.7,0,1c0,0.3,0,0.7,0,1l-1.1,0.2L251,12c0.1,0.5,0.2,1.2,0.2,1.7h0.2c0-0.5,0.2-1.2,0.3-1.7
		l2.4-9.1h2.4l2.4,9c0.1,0.5,0.2,1.2,0.3,1.7h0.2c0-0.5,0.1-1.2,0.2-1.7l1.4-6.9l-1.1-0.2c0-0.3,0-0.7,0-1c0-0.3,0-0.7,0-1h4.5
		c0,0.3,0.1,0.7,0.1,1C264.4,4.2,264.4,4.6,264.3,4.9 M271.3,6.4C271.1,6,271,5.5,271,5.2h-0.2c0,0.3-0.1,0.8-0.3,1.3l-1.3,4.3h3.3
		L271.3,6.4L271.3,6.4z M277.1,16.8h-4.3c0-0.3,0-0.7,0-1c0-0.3,0-0.7,0-1l1-0.2l-0.6-2h-4.5l-0.6,2l1,0.2c0,0.3,0.1,0.7,0.1,1
		c0,0.3,0,0.7-0.1,1h-4.1c0-0.3,0-0.7,0-1c0-0.3,0-0.7,0-1l0.7-0.2c1.2-4,2.4-7.9,3.8-11.8h3c1.4,3.9,2.6,7.8,3.8,11.8l0.7,0.2
		c0,0.3,0,0.7,0,1C277.1,16.2,277.1,16.5,277.1,16.8L277.1,16.8z M284,4.8c-0.3,0-1.1,0-1.5,0v4.5h1.5c1.5,0,2.4-0.7,2.4-2.4
		C286.3,5.5,285.6,4.8,284,4.8L284,4.8z M290.1,15.6c0,1-0.6,1.4-1.6,1.4c-1,0-1.7-0.4-2.3-1.7l-2-4h-1.7v3.3l1.2,0.2
		c0,0.3,0.1,0.7,0.1,1c0,0.3,0,0.7-0.1,1h-5.1c0-0.3,0-0.7,0-1c0-0.3,0-0.7,0-1l1.4-0.2V5.1l-1.4-0.2c0-0.3,0-0.7,0-1
		c0-0.3,0-0.7,0-1c1.8-0.1,3.8-0.1,5.3-0.1c3.4,0,5.1,1.3,5.1,4.2c0,1.7-0.9,3.1-2.4,3.6l1.8,3.4c0.3,0.6,0.6,0.7,1.1,0.7h0.6
		L290.1,15.6L290.1,15.6z M298.4,5c-0.6,0-1.2,0-1.9,0v9.8c0.6,0,1.2,0,1.9,0c2.5,0,3.7-1.4,3.7-5C302.1,6,300.5,5,298.4,5
		 M298.2,17c-1.2,0-3.8,0-5.7-0.1c0-0.3,0-0.7,0-1s0-0.7,0-1l1.4-0.2V5.1l-1.4-0.2c0-0.3,0-0.7,0-1s0-0.7,0-1c2-0.1,4.4-0.1,5.7-0.1
		c3.9,0,6.6,1.9,6.6,7C304.8,14.6,302.2,17,298.2,17"/>
	<defs>
		<filter id="Adobe_OpacityMaskFilter_1_" filterUnits="userSpaceOnUse" x="1" y="35.3" width="305.7" height="18.6">
			<feColorMatrix  type="matrix" values="1 0 0 0 0  0 1 0 0 0  0 0 1 0 0  0 0 0 1 0"/>
		</filter>
	</defs>
	<mask maskUnits="userSpaceOnUse" x="1" y="35.3" width="305.7" height="18.6" id="prefix__d_1_">
		<g class="st3">
			<path id="prefix__c_1_" class="st0" d="M0,53.9h306.7V1H0V53.9z"/>
		</g>
	</mask>
	<path class="st4" d="M145,51h7.8v-4.1H145V51z M152.8,53.5c0-0.1,0-0.7,0.1-0.9H145c0,0.4,0,0.4,0,0.9H143c0.1-1.7,0.1-2.2,0.1-3
		v-2.7c0-1.2-0.1-1.9-0.2-2.9c0.6,0,2.8,0.1,4.3,0.1h3.3c1.3,0,2.3-0.1,4.3-0.2c0,0.6-0.1,3-0.1,3.1v2.4c0,0.2,0,1.5,0.2,3.1
		L152.8,53.5L152.8,53.5z M156.1,44.6c-0.4-0.7-0.9-1.3-1.3-2c-1.8,0.2-5,0.4-5.5,0.4c-1.2,0.1-6.5,0.3-7.6,0.4
		c-0.2,0.3-0.4,0.6-0.6,0.6c-0.3,0-0.3-0.3-0.3-0.4l-0.2-2.2c0.8,0,2.2,0,3.8-0.1c1.7-2.4,2.5-4.5,3-5.8l2.2,0.8
		c0.3,0.1,0.3,0.2,0.3,0.3c0,0.3-0.2,0.3-0.9,0.4c-0.6,1.1-1.7,3.1-2.6,4.3c1.8,0,2.3,0,7.2-0.2c-0.9-0.9-2.1-1.7-2.8-2.1l1.7-1.3
		c2.1,1.6,3.8,3.5,5.3,5.7L156.1,44.6z M182.7,43.4v5c0,1.7,0.1,3.3,0.2,5h-2.2c0.1-1,0.2-2.7,0.2-5.3v-4.8h-1.8v1.2
		c0,0.6-0.1,3-0.8,4.8c-0.8,2-2.2,3.1-3.1,3.7l-1.6-1.3c1.1-0.6,3.3-1.9,3.6-5.2c0-0.3,0.1-1.6,0.1-2v-4.9c0-0.6-0.1-2.6-0.1-3
		c0.5,0.1,0.8,0.1,1.1,0.1c0.3,0,2.4,0,3.7-0.4c0.2-0.1,0.9-0.3,1.1-0.4l1.2,1.3c0.1,0.1,0.2,0.2,0.2,0.3c0,0.3-0.3,0.3-0.4,0.3
		c-0.2,0-0.2,0-0.4-0.1c-1.8,0.6-3.7,0.7-4.8,0.6v3.5h3.5c0.7,0,1.5,0,2.2-0.2v1.9C184.1,43.4,183.4,43.4,182.7,43.4L182.7,43.4z
		 M170.6,39.1l0.8,2.8h1.1l0.9-2.8L170.6,39.1L170.6,39.1z M173.4,43.4h-0.6v1.8h0.4c1,0,2,0,3-0.2v1.8c-1.1-0.1-2.4-0.2-3.2-0.2
		c0.3,0.3,1.4,1.4,2.8,2.2l-1,1.5c-0.8-0.5-1.3-0.9-2-1.6v0.5c0,0.5,0.1,3.5,0.1,4.1h-2c0-0.5,0.1-2.8,0.2-3.3c0-0.3,0-0.6,0-0.8V49
		c-1,1.3-1.2,1.5-3,3.1l-1.5-1.3c0.9-0.5,1.6-0.9,2.5-1.9c0.9-0.9,1.3-1.6,1.6-2.2h-0.4c-0.6,0-2,0.1-3,0.2V45c1,0.1,2.5,0.2,3,0.2
		h0.8v-1.8h-0.9c-1.1,0-2.1,0.1-3.2,0.2v-1.8c0.9,0.1,1.8,0.1,2.7,0.2l-0.9-2.7c-0.7,0-0.9,0-1.4,0.1v-1.7c0.8,0.1,1.9,0.1,2.7,0.1
		h1c0-0.2,0-1-0.1-2l2.1,0.2c0.2,0,0.2,0.2,0.2,0.3c0,0.2-0.1,0.2-0.5,0.5c0,0.4,0,0.4,0,1h0.7c0.7,0,1.8,0,2.5-0.1v1.6
		c-0.2,0-1,0-1.1-0.1l-0.9,2.8c0.8,0,1.7-0.1,2.4-0.1v1.8C175.3,43.4,173.6,43.4,173.4,43.4L173.4,43.4z M246.4,51.3l0.3-0.4h-4.6
		c-0.3,0.3-0.7,0.8-1,1.2c2,0,3.4-0.1,6.1-0.3C246.9,51.5,246.7,51.4,246.4,51.3L246.4,51.3z M245.6,49h-3.8c-1.2,0-2.7,0.1-3.6,0.1
		v-1.5c0.5,0,2.9,0.1,3.6,0.1h3.8c0.7,0,2.4-0.1,3.6-0.1v1.5C248.8,49,246.3,49,245.6,49z M241,42.9h-3.4l0.8,0.4
		c0.1,0,0.2,0.1,0.2,0.2c0,0.2-0.2,0.2-0.4,0.2c-0.2,0.2-0.3,0.4-0.6,0.6c0.2,0,1,0,1.3,0c0-0.3-0.1-0.7-0.1-1l1.5,0.1
		c0.3,0,0.6,0.1,0.6,0.3c0,0.2-0.3,0.3-0.4,0.4c0,0.1,0,0.1,0,0.2h0.6L241,42.9L241,42.9z M248.7,50.9c1.7,1.1,2.2,1.5,2.7,1.8
		l-1.2,1.2c-0.3-0.3-0.6-0.5-1.4-1.1c-2.9,0.2-7,0.5-12.3,0.6c-0.2,0.3-0.2,0.4-0.3,0.4c-0.1,0-0.1,0-0.2-0.3l-0.6-1.6
		c1.8,0,3.5,0,3.7,0c0.3-0.4,0.9-1,1-1.2c-2.8,0.1-3.1,0.1-5.3,0.1v-1.4c0.4,0,4.6,0.1,5.8,0.1h6c1.1,0,3.8-0.1,5.8-0.1V51
		C251.2,50.9,250,50.9,248.7,50.9L248.7,50.9z M251.5,47.3c-1.2,0-2.2-1.6-2.2-3.7c0-0.2,0.1-1.1,0.1-1.3l-1.1,0
		c-0.1,0.8-0.3,1.4-0.5,2c0.6,0.5,0.9,0.6,1.2,0.9l-0.7,1.3c-0.3-0.2-0.5-0.5-1.2-1c-0.4,0.5-1,1.2-2.2,1.9l-1.2-1.1
		c0.6-0.2,1.4-0.5,2.3-1.6c-0.4-0.2-0.6-0.4-1-0.6l0.7-1.1c0.5,0.2,0.7,0.3,1,0.5c0.2-0.4,0.3-0.8,0.3-1.2c-0.5,0-1.4,0.1-1.8,0.2
		l-0.1-1.5c0.2,0,1.4,0.1,2,0.1c0-0.8,0-1.1-0.1-1.5h-1.7c0-0.3,0.1-1,0.1-1.3v-0.3h-3.2c0,0.3,0.1,0.8,0.1,1.2h-1.8
		c0-0.1,0-0.1,0-0.1c-0.1,0-0.1,0-0.1,0.1c0,0.1,0,0.3,0,0.4h0.4c0.5,0,1.8-0.1,2.4-0.1v1.4c-0.4,0-1.9-0.1-2.4-0.1h-0.4v0.9h0.7
		c0.7,0,2.6-0.1,3.3-0.1V43c-1.1-0.1-1.9-0.1-2.2-0.1v0.7c0,0.3,0.1,0.3,0.3,0.3h0.5c0.4,0,0.4-0.2,0.4-0.9l1.2,0.3
		c-0.1,1.5-0.6,1.6-1.5,1.6h-1.1v0.6c-0.4,0-1.4-0.1-1.7-0.1v0.7c1.5-0.2,2.2-0.3,3-0.4l-0.4,1.2c-1.8,0.3-4.3,0.7-7,0.9
		c-0.1,0.2-0.2,0.4-0.4,0.4c-0.1,0-0.2-0.2-0.2-0.3l-0.4-1.4c0.6,0,1.7,0,3.9-0.2v-0.9c-0.4,0-0.6,0-2,0.1v-0.9
		c-0.5,0.3-1,0.4-1.3,0.5l-1.3-0.9c1.2-0.2,2.2-0.6,2.7-1.4c-0.5,0-1.3,0.1-2.4,0.1v-1.4c0.6,0,2.6,0.1,3.3,0.1h1v-0.9h-0.6
		c-0.3,0-0.9,0-2.4,0.1v-1.4c0.5,0,1.9,0.1,2.4,0.1h0.6c0-0.2,0-0.5-0.1-1.2l1.5,0.1c0.1,0,0.2,0,0.4,0.1c0-0.2,0-0.3,0-0.5
		c-1.3,0-3.9,0.1-5.8,0.1v-1.5c0.7,0,4.6,0.1,5.9,0.1c0-0.2-0.1-0.8-0.1-1.3l1.5,0.1c0.2,0,0.6,0,0.6,0.3c0,0.2-0.3,0.3-0.4,0.4
		c0,0.2,0,0.3,0,0.5h3.2c0-0.2,0-0.4-0.1-1.3l1.5,0.1c0.2,0,0.6,0,0.6,0.3c0,0.2-0.3,0.3-0.4,0.4c0,0.2,0,0.3,0,0.5
		c2.9-0.1,3.2-0.1,5.5-0.1v1.5c-2.6-0.1-3.1-0.1-5.5-0.1v0.3c0,0.2,0,0.4,0.1,1l1.2,0.2c0.3,0,0.5,0.1,0.5,0.2
		c0,0.1-0.1,0.2-0.3,0.3c0,0.3,0,0.4,0,1l0.4,0c0.2,0,1.5-0.1,2.7-0.3c-0.5,1.4-0.7,2-0.7,2.8c0,1.2,0.5,1.9,0.7,1.9
		c0.3,0,0.3-1.3,0.3-1.5l1.2,1.1C253,45.7,252.7,47.3,251.5,47.3L251.5,47.3z M277.7,42.8v6.6c0,0.4,0,2.3,0,2.7
		c-0.1,1.4-1.2,1.4-3.1,1.4l-0.8-2c0.3,0.1,1.1,0.2,1.5,0.2c0.6,0,0.6-0.1,0.6-1.3v-7.6h-0.3c-0.7,0-1.3,0.1-2,0.2V41
		c0.7,0.1,1.7,0.2,2,0.2h2c0.7,0,1.4,0,2-0.2V43C278.9,42.8,278,42.8,277.7,42.8L277.7,42.8z M272.6,50c-0.2-2.5-0.7-5.3-1.2-7.1
		l1.7-0.4c0.5,1.5,1.1,4,1.4,6.5L272.6,50L272.6,50z M277.6,38.4h-1.7c-0.6,0-1.1,0-1.7,0.2V38l-1.3,1.1c-0.8-1.1-1.1-1.4-1.6-1.8
		l1.2-1c0.8,0.5,1.5,1.5,1.7,1.8v-1.4c0.6,0.1,1.4,0.2,1.7,0.2h1.7c0.6,0,1.2,0,1.7-0.2v1.9C278.5,38.4,277.6,38.4,277.6,38.4z
		 M267.6,50.3l-1.8-0.5c0.9-1.8,1.1-4.3,1.1-6.1c0-0.5,0-0.9,0-1.2l1.7,0.2C268.8,45.2,268.5,48.4,267.6,50.3z M266.4,37.4
		c-0.1,0-0.2,0-0.3-0.1c-0.6,0.9-1.7,2.2-3.3,3.2l-1.6-1.2c1.7-0.9,3.3-2.5,3.8-3.6l1.6,1c0.1,0.1,0.3,0.2,0.3,0.4
		C266.8,37.2,266.7,37.4,266.4,37.4z M271,40.9c0,0.2,0,1.1,0,1.3v5.9c0,1,0.1,4.5,0.2,5.5h-2.1c0-0.9,0.2-4.9,0.2-5.7v-6.9
		c-1,0-1.8,0.1-2.3,0.1c0.1,0.1,0.2,0.2,0.2,0.3c0,0.3-0.3,0.3-0.4,0.3s-0.2,0-0.3,0c-0.3,0.5-0.6,0.9-1.1,1.5
		c0.3,0.1,0.5,0.2,0.5,0.5c0,0.2-0.1,0.2-0.5,0.5c0,0.7-0.1,2.4-0.1,3.1v2.8c0,0.2,0.1,3.2,0.2,3.5h-2.1c0-0.5,0.2-3.1,0.2-3.3v-5.2
		c-0.5,0.5-0.8,0.7-1.1,1l-1.5-1c2.2-1.4,3.9-4,4.3-5l1.4,1v-1.8c0.7,0.1,1.8,0.2,2.4,0.2v-0.9c0-0.5,0-2.4,0-2.9l2,0.2
		c0.3,0,0.5,0.1,0.5,0.3c0,0.2-0.1,0.3-0.6,0.5c0,0.5,0,1.8,0,2.6c0.8,0,1.8,0,2.6-0.2v1.9C272.7,41,271.8,40.9,271,40.9L271,40.9z
		 M300.5,37.6c0.2,0.3,0.4,0.5,0.7,1c1-0.5,1.3-0.7,1.7-1H300.5z M298.9,37.7c-0.2,0.1-0.3,0.2-0.7,0.4c0.2,0.2,0.5,0.6,0.9,1.3
		c0.4-0.2,0.5-0.2,0.7-0.3C299.6,38.6,299.3,38.2,298.9,37.7L298.9,37.7z M297.1,38.7c-0.2,0.1-0.4,0.2-0.6,0.2l-0.9-1.2v2.7
		c0.5-0.1,1.1-0.3,2.3-0.6C297.7,39.6,297.5,39.3,297.1,38.7L297.1,38.7z M305.4,53.7c-3-0.4-5.9-1.5-7.8-3.8
		c-1.5,2.4-4.8,3.5-7.6,3.9l-1.2-1.6c3.1-0.1,6.1-1,7.2-2.8h-2.7c-1.2,0-3.4,0-4.5,0.1v-1.7c0.9,0.1,3.4,0.1,4.5,0.1h3.3
		c0.1-0.4,0.1-0.6,0.1-1.1c0-0.6,0-0.9-0.1-1.2l1.8,0.2c0.4,0.1,0.6,0.2,0.6,0.3c0,0.2-0.3,0.3-0.6,0.3c0,0.5,0,0.8-0.1,1.4h2.3
		c-0.4-0.5-0.7-0.8-1.3-1.3l1.3-0.9c0.6,0.5,1.1,1,1.6,1.7l-0.9,0.5h1.4c1,0,2.7,0,3.6-0.1v1.7c-0.9-0.1-2.7-0.1-3.6-0.1h-3.4
		c1.7,2,4.7,2.6,7.3,2.7L305.4,53.7L305.4,53.7z M304.5,42.4v1c0,0.2,0,0.9,0,1.1c0,1-0.3,1.7-2.9,1.6l-0.7-1.9
		c0.3,0.1,0.9,0.2,1.4,0.2c0.2,0,0.4,0,0.4-0.4v-1.6h-3.3c0.4,0.5,0.8,0.9,1.1,1.5l-1.3,0.9c-0.3-0.7-0.6-1.1-1.1-1.8l0.8-0.6
		c-0.5,0-0.8,0-1.2,0v-0.9c-0.6,0.2-0.8,0.2-1,0.3l-1.1-1.3v2.1c0,1.2,0,2.3,0.1,3.2h-1.8c0.1-0.8,0.1-2.2,0.1-3.1v-0.4H292
		c-0.1,1.7-0.9,3.1-2.2,4l-1.4-1.1c0.5-0.3,1.9-1.2,2-3c-0.7,0-1.2,0-1.9,0.1v-1.5c0.6,0,1.4,0.1,2.1,0.1h3.3v-1.6h-1.7
		c-0.8,0-1.2,0-2.6,0.1c0.1-0.7,0.1-1.1,0.1-1.5V37c0-0.2,0-0.7-0.1-1.1l1.6,0.2c0.3,0,0.5,0,0.5,0.2c0,0.2-0.2,0.3-0.4,0.3
		c0,0.2-0.1,0.5-0.1,0.9V38h2.7v-1c0-1,0-1.2,0-1.5l1.7,0.1c0.1,0,0.5,0,0.5,0.2c0,0.2-0.3,0.3-0.5,0.4c-0.1,0.3-0.1,0.6-0.1,0.9
		v0.5c1.4-0.4,2.9-1,3.7-2.3l1.4,0.3c0.2,0,0.6,0.1,0.6,0.3c0,0.2-0.4,0.2-0.6,0.3c0,0,0,0.1-0.2,0.3h2.4c0.6,0,1.2,0,2.1-0.1
		l0.8,0.9c-2.8,2.1-5.1,3.2-6.6,3.8h3.7c0-0.3,0-0.8-0.1-1.2l1.8,0.1c0.6,0,0.6,0.1,0.6,0.2c0,0.2-0.2,0.3-0.6,0.4
		c0,0.1,0,0.3,0,0.4c1.2,0,1.6,0,2.1-0.1v1.4C305.9,42.4,305.5,42.4,304.5,42.4L304.5,42.4z M11.1,43.6h3.8v-1.3h-3.8V43.6z
		 M15.4,38.7h-0.3c0.4,0.4,0.7,0.9,1.1,1.4l-2,0.4c-0.3-0.8-0.4-0.9-0.9-1.8h-1.4c-0.5,0.8-0.9,1.3-1.5,2l-1.6-1
		c0.3-0.2,0.9-0.6,1.7-2c0.5-0.8,0.7-1.3,0.9-2.3l1.9,0.5c0.2,0,0.3,0.1,0.3,0.3c0,0.3-0.3,0.3-0.7,0.4c-0.1,0.3-0.2,0.4-0.3,0.6
		h2.8c0.8,0,2.5,0,3.2-0.1v1.6C17.3,38.7,15.7,38.7,15.4,38.7z M9.3,45.1H4.5c-0.1,0.6-0.1,0.8-0.3,1.4h5.1V45.1z M18.1,51.2
		c-0.2,0.6-0.7,1.5-3.3,1.6l-1.1-2.1c0.9,0.1,1.4,0.2,1.7,0.2c0.8,0,1.1-0.3,1.2-2.9h-5.5v1.3c0,0.5,0.2,3.8,0.2,4.3H9.1
		c0.1-0.8,0.2-3.6,0.2-4.3c-0.3,0.4-1,1.4-2.2,2.3c-1.2,0.9-2.6,1.5-4.1,2l-1.4-1.7c2.4-0.7,4.6-1.5,6.5-3.9H3.8
		c-0.1,0.2-0.4,1.2-0.5,1.5l-2-0.5c0.5-0.9,1.3-2.5,1.4-5.4c1,0,1.1,0,2.5,0c1.4,0,1.6,0,2.3,0h1.7v-1.3h-2c-0.3,0-3.2,0.1-5,0.3
		v-1.9c2.3,0.2,3.3,0.2,4.9,0.2h5c0.8,0,3.8-0.1,4.4-0.2c0,0.3-0.1,1.3-0.1,1.6v1.3c0,0.3,0.1,1.2,0.1,1.5c-0.6,0-3.9-0.1-4-0.1
		h-1.6v1.4h3.4c1.1,0,2.6,0,4-0.1C18.4,50,18.4,50.5,18.1,51.2L18.1,51.2z M7.5,38.7H7.1c0.2,0.3,0.5,0.8,0.8,1.5L6,40.6
		c-0.2-0.7-0.2-0.9-0.6-2h-1c-0.3,0.3-1,1-2,1.7L1,39.3c0.8-0.5,1.3-0.9,1.9-1.5c0.1-0.2,1.1-1.2,1.5-2.4L6,35.9
		c0.3,0.1,0.4,0.1,0.4,0.3c0,0.3-0.2,0.3-0.6,0.4c-0.1,0.2-0.2,0.3-0.4,0.6h2.1c0.1,0,0.7,0,1,0c0.2,0,0.5,0,1.1,0v1.5
		C9,38.7,8.2,38.7,7.5,38.7z M39.4,44.2h-1.6v3.4l0,2.7c0,1,0,2.4,0.1,3.1h-2c0.1-0.7,0.1-5.2,0.1-6.1v-3.1H34l-2.7,0
		c-1,0-2.4,0-3.1,0.1v-1.8c0.7,0.1,5.2,0.1,6.1,0.1h1.6v-1.7c0-2.5,0-2.9-0.1-5.2l2.1,0.2c0.2,0,0.7,0.1,0.7,0.4
		c0,0.2,0,0.2-0.7,0.5c0,0.4-0.1,1-0.1,2.2c0,0.4-0.1,2.4-0.1,2.8v0.8h2l2.7,0c1,0,2.4,0,3.1-0.1v1.8C44.8,44.2,40.3,44.2,39.4,44.2
		 M71.2,52.3c-1.5-1-3.9-2.9-5.1-6.7c-0.7-2.1-0.8-4-0.8-7.1c-0.4,0-1.3,0.1-1.7,0.1v-2.1c0.4,0.1,1.6,0.1,1.7,0.1H66
		c0.3,0,1.2-0.1,1.6-0.1c-0.2,1-0.2,2.6-0.2,3.7c0,4.1,1.5,8,5.6,10.4C73,50.6,71.2,52.3,71.2,52.3z M62,38.8c0,0.4,0,0.8,0,1.3
		c0,6.5-3.3,10.7-5.2,12.1L54.7,51c0.7-0.4,2.5-1.5,3.9-4.3c1.5-2.9,1.5-5.4,1.5-6.5c0-1.1,0-1.6-0.1-2.8l2.2,0.7
		c0.3,0.1,0.5,0.2,0.5,0.3C62.6,38.7,62.2,38.8,62,38.8z M93.7,45.3h-0.3v2.2c0.4,0,1.5,0,2.3-0.2v1.8C95,49,94.2,49,93.5,49h-2.2
		c-0.7,0-1.5,0-2.2,0.1v-1.8c0.9,0.2,2.1,0.2,2.2,0.2h0.4v-2.2h-0.4c-0.4,0-1.6,0-2.4,0.1v-1.7c0.8,0.1,1.9,0.1,2.4,0.1h0.4
		c0-0.5,0-0.7-0.1-2.1l1.5,0.1c0.7,0.1,0.8,0.1,0.8,0.3c0,0.2,0,0.2-0.4,0.5l-0.1,1.2h0.3c0.5,0,1.6,0,2.4-0.1v1.7
		C95.4,45.3,94.2,45.3,93.7,45.3L93.7,45.3z M98.6,43.8c-0.1,1.9-0.1,2.2-0.1,3.3v2.3c0,0.9,0,1.1,0.1,3.9h-2.1
		c0-0.2,0.1-1.3,0.1-1.5h-8.4c0,0.4,0.1,1.1,0.1,1.4h-2.2c0.2-2,0.2-3.5,0.2-3.7v-2.2c0-1.9,0-2.5-0.1-4.4l1.8,0.1
		c0.5,0,0.7,0.1,0.7,0.3c0,0.2-0.1,0.3-0.6,0.4c0,0.4-0.1,2.4-0.1,2.8v3.6h8.6v-3.3c0-1,0-2.5-0.1-3.9l1.7,0.1c0.5,0,0.7,0,0.7,0.3
		C99.2,43.6,98.9,43.7,98.6,43.8L98.6,43.8z M86,39.7h10.6v-1.9H86V39.7z M98.4,38v1.3c0,0.1,0,1.2,0,1.9c-1-0.1-4.6-0.1-5.7-0.1H86
		c-0.2,3.7-0.3,7.9-3,11.9l-2-0.7c0.5-0.6,1.4-1.8,2.1-4c0.9-2.6,1-5.1,1-7.2c0-1.1,0-2.1-0.2-4.9c0.2,0,1.8,0.1,2.1,0.1
		c0.4,0,2.2,0,2.6,0h5.6c0.7,0,3.6-0.1,4.3-0.1C98.5,36.7,98.4,37.3,98.4,38L98.4,38z"/>
	<defs>
		<filter id="Adobe_OpacityMaskFilter_2_" filterUnits="userSpaceOnUse" x="0" y="42.2" width="306.3" height="8.9">
			<feColorMatrix  type="matrix" values="1 0 0 0 0  0 1 0 0 0  0 0 1 0 0  0 0 0 1 0"/>
		</filter>
	</defs>
	<mask maskUnits="userSpaceOnUse" x="0" y="42.2" width="306.3" height="8.9" id="prefix__d_2_">
		<g class="st5">
			<path id="prefix__c_2_" class="st0" d="M0,53.9h306.7V1H0V53.9z"/>
		</g>
	</mask>
	<path class="st6" d="M0,51.1h306.3v-8.9H0V51.1z"/>
</g>
</svg>
