<svg xmlns="http://www.w3.org/2000/svg" xmlns:xlink="http://www.w3.org/1999/xlink" width="307" height="54" viewBox="0 0 307 54">
    <defs>
        <path id="prefix__a" d="M0.462 0.062L7.047 0.062 7.047 9.018 0.462 9.018z"/>
        <path id="prefix__c" d="M0 53.938L306.701 53.938 306.701 1 0 1z"/>
    </defs>
    <g fill="none" fill-rule="evenodd">
        <path fill="#111" d="M11.685 6.095c-.289.04-.764.083-1.074.083-.31 0-.827-.042-1.116-.083L9.35 5H7.656v9.69l1.384.206c.042.289.062.682.062.97 0 .29-.02.683-.062.972H3.67c-.022-.29-.043-.681-.043-.971 0-.29.021-.682.042-.971l1.405-.206V5H3.4l-.268 1.178c-.662 0-1.426-.062-2.108-.166.021-.661.124-2.086.248-3.1h10.413v3.183zM27.058 16.838h-5.227c-.02-.29-.04-.682-.04-.971 0-.29.02-.682.04-.971l1.24-.206v-3.885h-5.29v3.885l1.24.206c.021.289.041.682.041.97 0 .29-.02.683-.04.972h-5.228c-.02-.29-.04-.682-.04-.971 0-.29.02-.682.04-.971l1.405-.206V5.062l-1.405-.207c-.02-.29-.04-.682-.04-.971 0-.29.02-.682.04-.971h5.227c.021.289.041.682.041.97 0 .29-.02.683-.04.972l-1.24.207v3.594h5.288V5.062l-1.239-.207c-.02-.29-.04-.682-.04-.971 0-.29.02-.682.04-.971h5.227c.021.289.041.682.041.97 0 .29-.02.683-.04.972l-1.406.207v9.628l1.405.206c.021.289.041.682.041.97 0 .29-.02.683-.04.972M39.828 16.838H29.704c-.02-.29-.04-.682-.04-.971 0-.29.02-.682.04-.971l1.405-.206V5.062l-1.405-.207c-.02-.29-.04-.682-.04-.971 0-.29.02-.682.04-.971h10v3.264c-.289.04-.785.062-1.074.062-.31 0-.868-.021-1.157-.062l-.186-1.136h-3.595v3.595h4.34c0 .66-.063 1.487-.146 2.169h-4.194v3.926h3.72l.185-1.261c.29-.041.847-.062 1.157-.062.29 0 .785.02 1.074.062v3.368zM56.772 16.838h-8.429c-.042-.351-.062-.723-.062-1.095s.02-.744.062-1.115h3.595V5.206l-3.244.434c-.145-.558-.248-1.405-.248-2.025l3.657-.702h2.252v11.715h2.603c0 .64-.062 1.569-.186 2.21M64.17 4.69c-1.074 0-1.673.66-1.673 1.652 0 1.116.558 1.901 1.838 2.335.971-.393 1.55-1.322 1.55-2.273 0-1.095-.62-1.715-1.715-1.715m-.165 5.868c-1.012.372-1.694 1.363-1.694 2.48 0 1.238.516 2.003 1.859 2.003 1.364 0 1.922-.744 1.922-2.066 0-1.199-.848-1.983-2.087-2.417m.082 6.487c-2.396 0-4.194-1.095-4.194-3.78 0-1.385.744-2.604 2.252-3.45-1.363-.848-2.004-1.964-2.004-3.307 0-2.479 1.674-3.8 4.112-3.8 2.458 0 4.049 1.197 4.049 3.532 0 1.281-.764 2.417-2.107 3.12 1.529.847 2.355 2.024 2.355 3.656 0 2.521-1.653 4.03-4.463 4.03M73.075 10.078c-1.398 0-1.963-.614-1.963-2.071V4.865h-.758V3.673h.758v-1.3c.374-.108.903-.205 1.36-.241v1.54h1.59c0 .386-.037.796-.084 1.193h-1.505v3.142c0 .65.216.795.746.795.277 0 .699-.11.963-.23.084.362.156.832.192 1.229-.349.169-.926.277-1.3.277"/>
        <g transform="translate(75 .939)">
            <mask id="prefix__b" fill="#fff">
                <use xlink:href="#prefix__a"/>
            </mask>
            <path fill="#111" d="M7.023 9.018H4.338c-.012-.168-.024-.373-.024-.542 0-.168.012-.349.024-.518l.566-.12v-3.13c0-.505-.204-.843-.915-.843-.481 0-.927.132-1.348.398v3.575l.626.12c.012.17.024.35.024.518 0 .17-.012.374-.024.542H.51C.498 8.85.486 8.646.486 8.476c0-.168.012-.349.024-.518l.77-.12V1.325l-.794-.071C.474 1.109.462.904.462.736c0-.17.012-.361.024-.506C1.148.11 2.003.06 2.7.06l-.06 1.276v1.988h.072c.578-.507 1.108-.712 1.806-.712 1.035 0 1.758.567 1.758 1.927v3.298l.746.12c.012.17.024.35.024.518 0 .17-.012.374-.024.542" mask="url(#prefix__b)"/>
        </g>
        <path fill="#111" d="M99.356 6.095c-.289.04-.764.083-1.074.083-.31 0-.827-.042-1.116-.083L97.021 5h-1.694v9.69l1.384.206c.042.289.062.682.062.97 0 .29-.02.683-.062.972h-5.37c-.022-.29-.043-.681-.043-.971 0-.29.021-.682.042-.971l1.405-.206V5h-1.674l-.268 1.178c-.662 0-1.426-.062-2.108-.166.021-.661.124-2.086.248-3.1h10.413v3.183zM105.969 6.425c-.124-.434-.248-.95-.27-1.26h-.184c-.021.31-.145.826-.27 1.26l-1.301 4.318h3.327l-1.302-4.318zm5.785 10.413h-4.277c-.02-.29-.041-.682-.041-.971 0-.29.02-.682.04-.971l.972-.165-.6-2.025h-4.482l-.6 2.025.95.165c.042.289.063.682.063.97 0 .29-.021.683-.062.972h-4.091c-.02-.29-.041-.682-.041-.971 0-.29.02-.682.04-.971l.745-.165c1.157-3.988 2.417-7.872 3.822-11.818h3.037c1.385 3.946 2.624 7.83 3.78 11.818l.745.165c.02.289.04.682.04.97 0 .29-.02.683-.04.972zM119.235 16.838h-5.392c-.021-.29-.042-.682-.042-.971 0-.29.02-.682.042-.971l1.404-.206V5.062l-1.404-.207c-.021-.29-.042-.682-.042-.971 0-.29.02-.682.042-.971h5.392c.02.289.04.682.04.97 0 .29-.02.683-.04.972l-1.405.207v9.628l1.405.206c.02.289.04.682.04.97 0 .29-.02.683-.04.972M126.384 17.044c-1.26 0-2.768-.186-3.967-.703v-2.954c.31-.04.785-.062 1.075-.062.309 0 .805.021 1.095.062l.206 1.302c.434.145 1.075.227 1.777.227 1.426 0 2.066-.599 2.066-1.715 0-2.54-6.136-2.23-6.136-6.405 0-2.624 2.066-4.09 5.082-4.09 1.075 0 2.335.124 3.285.372v3.12c-.31.041-.806.082-1.095.082-.31 0-.847-.04-1.157-.083l-.165-1.28c-.31-.042-.826-.083-1.26-.083-1.508 0-2.004.64-2.004 1.673 0 2.19 6.136 2.087 6.136 6.364 0 2.624-1.942 4.173-4.938 4.173M147.19 16.838h-5.227c-.02-.29-.04-.682-.04-.971 0-.29.02-.682.04-.971l1.24-.206v-3.885h-5.29v3.885l1.24.206c.021.289.041.682.041.97 0 .29-.02.683-.04.972h-5.228c-.02-.29-.04-.682-.04-.971 0-.29.02-.682.04-.971l1.405-.206V5.062l-1.405-.207c-.02-.29-.04-.682-.04-.971 0-.29.02-.682.04-.971h5.227c.021.289.041.682.041.97 0 .29-.02.683-.04.972l-1.24.207v3.594h5.288V5.062l-1.239-.207c-.02-.29-.04-.682-.04-.971 0-.29.02-.682.04-.971h5.227c.021.289.041.682.041.97 0 .29-.02.683-.04.972l-1.406.207v9.628l1.405.206c.021.289.041.682.041.97 0 .29-.02.683-.04.972M155.23 16.838h-5.393c-.02-.29-.042-.682-.042-.971 0-.29.021-.682.042-.971l1.404-.206V5.062l-1.404-.207c-.02-.29-.042-.682-.042-.971 0-.29.021-.682.042-.971h5.392c.021.289.041.682.041.97 0 .29-.02.683-.04.972l-1.406.207v9.628l1.405.206c.021.289.041.682.041.97 0 .29-.02.683-.04.972M170.994 4.855l-1.24.207v11.672c-.64.124-1.694.207-2.355.207l-5.124-8.904c-.227-.393-.496-1.013-.62-1.51h-.186c.062.497.104 1.159.104 1.592v6.57l1.22.207c.02.289.04.682.04.97 0 .29-.02.683-.04.972h-4.918c-.02-.29-.042-.682-.042-.971 0-.29.021-.682.042-.971l1.404-.207V5.062l-1.404-.207c-.02-.29-.042-.682-.042-.971 0-.29.021-.682.042-.971h4.028l4.835 8.367c.227.393.475.97.64 1.488h.166c-.062-.455-.083-1.157-.083-1.591V5.062l-1.178-.207c-.02-.29-.04-.682-.04-.971 0-.29.02-.682.04-.971h4.711c.021.289.041.682.041.97 0 .29-.02.682-.04.972M184.137 6.425c-.124-.434-.248-.95-.27-1.26h-.184c-.021.31-.145.826-.27 1.26l-1.301 4.318h3.327l-1.302-4.318zm5.785 10.413h-4.277c-.02-.29-.041-.682-.041-.971 0-.29.02-.682.04-.971l.972-.165-.6-2.025h-4.482l-.6 2.025.95.165c.042.289.063.682.063.97 0 .29-.021.683-.062.972h-4.091c-.02-.29-.041-.682-.041-.971 0-.29.02-.682.04-.971l.745-.165c1.157-3.988 2.417-7.872 3.822-11.818h3.037c1.385 3.946 2.624 7.83 3.78 11.818l.745.165c.02.289.04.682.04.97 0 .29-.02.683-.04.972zM196.824 4.834c-.331 0-1.074.02-1.508.042V9.42h1.508c1.529 0 2.376-.723 2.376-2.397 0-1.508-.764-2.19-2.376-2.19zm6.177 10.764c0 .97-.599 1.446-1.632 1.446s-1.714-.413-2.334-1.673l-2.025-4.008h-1.694v3.326l1.198.207c.041.289.062.682.062.97 0 .29-.021.683-.062.972h-5.124c-.02-.29-.041-.682-.041-.971 0-.29.021-.682.041-.971l1.405-.207V5.062l-1.405-.207c-.02-.29-.041-.682-.041-.971 0-.29.021-.682.041-.971 1.839-.083 3.761-.124 5.31-.124 3.388 0 5.124 1.3 5.124 4.173 0 1.674-.909 3.079-2.397 3.637l1.798 3.429c.31.578.578.723 1.136.723h.64v.847zM215.11 6.095c-.29.04-.764.083-1.074.083-.31 0-.827-.042-1.116-.083L212.775 5h-1.694v9.69l1.384.206c.042.289.062.682.062.97 0 .29-.02.683-.062.972h-5.371c-.021-.29-.042-.681-.042-.971 0-.29.02-.682.042-.971l1.405-.206V5h-1.674l-.268 1.178c-.662 0-1.426-.062-2.108-.166.02-.661.124-2.086.248-3.1h10.413v3.183zM221.268 17.044c-1.26 0-2.768-.186-3.967-.703v-2.954c.31-.04.785-.062 1.075-.062.31 0 .805.021 1.095.062l.206 1.302c.434.145 1.075.227 1.777.227 1.426 0 2.066-.599 2.066-1.715 0-2.54-6.136-2.23-6.136-6.405 0-2.624 2.066-4.09 5.082-4.09 1.075 0 2.335.124 3.285.372v3.12c-.309.041-.806.082-1.095.082-.31 0-.847-.04-1.157-.083l-.165-1.28c-.31-.042-.826-.083-1.26-.083-1.508 0-2.004.64-2.004 1.673 0 2.19 6.136 2.087 6.136 6.364 0 2.624-1.942 4.173-4.938 4.173M239.658 6.425c-.124-.434-.248-.95-.27-1.26h-.184c-.021.31-.145.826-.27 1.26l-1.301 4.318h3.327l-1.302-4.318zm5.785 10.413h-4.277c-.02-.29-.041-.682-.041-.971 0-.29.02-.682.04-.971l.972-.165-.6-2.025h-4.482l-.6 2.025.95.165c.042.289.063.682.063.97 0 .29-.021.683-.062.972h-4.091c-.02-.29-.041-.682-.041-.971 0-.29.02-.682.04-.971l.745-.165c1.157-3.988 2.417-7.872 3.822-11.818h3.037c1.385 3.946 2.624 7.83 3.78 11.818l.745.165c.02.289.04.682.04.97 0 .29-.02.683-.04.972zM264.328 4.855l-1.095.207c-.764 3.925-1.632 7.892-2.562 11.776h-2.727l-2.438-9.091c-.103-.371-.207-1.033-.248-1.57h-.165c-.042.537-.145 1.178-.248 1.59l-2.376 9.07h-2.768c-.93-3.883-1.798-7.83-2.542-11.775l-1.095-.207c-.04-.29-.062-.682-.062-.971 0-.29.021-.682.062-.971h4.65c.02.289.04.682.04.97 0 .29-.02.682-.04.972l-1.075.207 1.384 6.9c.103.517.186 1.219.206 1.694h.186c.042-.454.166-1.198.29-1.673l2.375-9.07h2.418l2.376 9.049c.124.496.248 1.24.29 1.694h.185c.021-.475.103-1.24.186-1.673l1.405-6.921-1.075-.207c-.02-.29-.04-.682-.04-.971 0-.29.02-.682.04-.971h4.463c.041.289.062.682.062.97 0 .29-.02.682-.062.972M271.272 6.425c-.124-.434-.248-.95-.269-1.26h-.186c-.02.31-.144.826-.268 1.26l-1.302 4.318h3.327l-1.302-4.318zm5.785 10.413h-4.277c-.02-.29-.04-.682-.04-.971 0-.29.02-.682.04-.971l.971-.165-.599-2.025h-4.483l-.599 2.025.95.165c.041.289.062.682.062.97 0 .29-.02.683-.062.972h-4.09c-.02-.29-.042-.682-.042-.971 0-.29.021-.682.041-.971l.744-.165c1.157-3.988 2.417-7.872 3.822-11.818h3.037c1.385 3.946 2.624 7.83 3.781 11.818l.744.165c.021.289.041.682.041.97 0 .29-.02.683-.04.972zM283.96 4.834c-.331 0-1.074.02-1.508.042V9.42h1.508c1.529 0 2.376-.723 2.376-2.397 0-1.508-.764-2.19-2.376-2.19zm6.177 10.764c0 .97-.6 1.446-1.632 1.446-1.033 0-1.714-.413-2.334-1.673l-2.025-4.008h-1.694v3.326l1.198.207c.04.289.062.682.062.97 0 .29-.021.683-.062.972h-5.124c-.02-.29-.041-.682-.041-.971 0-.29.02-.682.04-.971l1.406-.207V5.062l-1.405-.207c-.02-.29-.041-.682-.041-.971 0-.29.02-.682.04-.971 1.84-.083 3.762-.124 5.31-.124 3.389 0 5.125 1.3 5.125 4.173 0 1.674-.91 3.079-2.397 3.637l1.798 3.429c.31.578.578.723 1.136.723h.64v.847zM298.444 4.958c-.599 0-1.198 0-1.88.021v9.793c.64.02 1.24.02 1.86.02 2.52 0 3.698-1.446 3.698-5 0-3.821-1.633-4.834-3.678-4.834m-.207 12.004c-1.239 0-3.8-.042-5.66-.124-.02-.289-.042-.682-.042-.971 0-.289.021-.682.042-.971l1.404-.207V5.062l-1.404-.207c-.02-.29-.042-.682-.042-.971 0-.289.021-.682.042-.971 2.003-.083 4.36-.124 5.702-.124 3.925 0 6.57 1.942 6.57 7.003 0 4.835-2.624 7.17-6.612 7.17"/>
        <mask id="prefix__d" fill="#fff">
            <use xlink:href="#prefix__c"/>
        </mask>
        <path fill="#111" d="M145.028 51.026h7.79v-4.144h-7.79v4.144zm7.73 2.496c.02-.137.04-.733.06-.852h-7.79c0 .377.02.416.04.852h-2.062c.119-1.683.139-2.16.139-2.953v-2.656c0-1.188-.059-1.862-.159-2.893.635.04 2.795.118 4.262.118h3.251c1.288 0 2.259-.058 4.281-.178-.02.634-.059 2.993-.059 3.112v2.358c0 .18.019 1.507.158 3.093h-2.121zm3.37-8.959c-.396-.674-.853-1.348-1.308-1.982-1.784.18-5.015.377-5.53.396-1.21.08-6.541.319-7.631.378-.219.337-.357.555-.635.555-.258 0-.297-.277-.297-.396l-.198-2.22c.753 0 2.16-.04 3.766-.06 1.684-2.379 2.537-4.52 2.993-5.828l2.22.754c.297.099.337.178.337.297 0 .297-.218.337-.873.416-.574 1.09-1.724 3.132-2.576 4.322 1.784-.02 2.319-.04 7.155-.18-.912-.931-2.061-1.684-2.755-2.14l1.665-1.347c2.061 1.584 3.845 3.488 5.252 5.688l-1.585 1.347zM182.698 43.395v4.994c0 1.685.08 3.35.178 5.034h-2.18c.14-.99.218-2.656.218-5.252v-4.776h-1.804v1.228c0 .635-.059 2.974-.753 4.758-.813 2.04-2.18 3.091-3.052 3.725l-1.586-1.348c1.07-.614 3.31-1.903 3.627-5.172.02-.277.12-1.627.12-2.042v-4.915c0-.634-.08-2.636-.1-2.993.456.058.813.058 1.09.058.258 0 2.42-.02 3.746-.436.18-.059.932-.317 1.091-.357l1.228 1.29c.1.098.16.157.16.256 0 .298-.259.298-.378.298-.158 0-.237-.04-.416-.1-1.784.556-3.706.694-4.777.615v3.51h3.528c.714 0 1.467-.04 2.161-.16v1.943c-.674-.118-1.387-.158-2.1-.158zm-12.05-4.322l.831 2.815h1.11l.852-2.814h-2.794zm2.793 4.282h-.594v1.803h.436c.991 0 2.002-.02 2.993-.159v1.825c-1.11-.14-2.379-.18-3.19-.158.276.296 1.406 1.426 2.754 2.199l-1.03 1.486c-.774-.495-1.25-.852-1.963-1.585v.535c0 .515.1 3.529.14 4.122h-2.023c.02-.515.14-2.775.158-3.25.02-.318.02-.575.02-.773v-.377c-.97 1.308-1.248 1.546-2.953 3.053l-1.546-1.349c.892-.494 1.566-.93 2.477-1.881.892-.932 1.328-1.645 1.646-2.201h-.397c-.634 0-1.982.06-2.953.178V45c1.031.14 2.497.16 2.953.16h.773v-1.804h-.852c-1.05 0-2.12.06-3.172.178V41.73c.853.099 1.804.139 2.676.158l-.852-2.735c-.713.02-.872.02-1.427.059v-1.705c.793.1 1.903.139 2.735.139h.991c0-.199-.02-.99-.059-2.002l2.081.178c.198.02.238.198.238.298 0 .178-.06.218-.456.476-.02.357-.02.416-.02 1.05h.714c.674 0 1.764-.04 2.517-.139v1.626c-.178 0-.97-.04-1.13-.06l-.892 2.795c.754 0 1.685-.06 2.438-.139v1.804c-1.387-.159-3.112-.178-3.23-.178zM246.426 51.263l.317-.436h-4.638c-.278.317-.714.832-.971 1.169 1.962-.04 3.369-.118 6.065-.277-.277-.178-.476-.277-.773-.456zm-.872-2.3h-3.766c-1.19 0-2.696.06-3.647.12v-1.487c.535.02 2.894.139 3.647.139h3.766c.694 0 2.398-.08 3.647-.14v1.488c-.436-.04-2.874-.12-3.647-.12zm-4.52-6.104H237.607l.753.416c.079.04.178.099.178.238 0 .159-.198.178-.396.178-.18.239-.337.377-.555.555.238 0 1.03.02 1.348.02-.02-.297-.08-.733-.12-1.03l1.467.118c.258.02.575.06.575.278 0 .158-.277.317-.396.397 0 .079-.02.138-.02.217h.595v-1.387zm7.71 8.008c1.745 1.129 2.2 1.466 2.697 1.843l-1.17 1.229c-.277-.258-.555-.495-1.387-1.09-2.854.238-7.017.535-12.33.595-.158.337-.217.416-.336.416-.12 0-.14-.02-.238-.298l-.575-1.566c1.784.04 3.509.02 3.747.02.337-.376.872-1.05.99-1.19-2.755.06-3.111.08-5.331.14v-1.447c.396 0 4.598.119 5.827.119h5.986c1.09 0 3.766-.06 5.808-.12v1.448c-1.23-.04-2.458-.08-3.687-.1zm2.756-3.568c-1.23 0-2.18-1.606-2.18-3.667 0-.218.099-1.13.099-1.308l-1.07.02c-.1.753-.258 1.367-.536 2.022.635.455.873.614 1.249.89l-.713 1.29c-.258-.238-.536-.496-1.23-1.011-.415.535-.951 1.189-2.24 1.922l-1.228-1.09c.615-.198 1.407-.535 2.279-1.625-.376-.238-.614-.357-1.01-.555l.693-1.13c.456.238.654.337.972.536.158-.417.257-.754.317-1.19-.536.04-1.427.139-1.844.198l-.06-1.486c.219.02 1.428.079 2.023.059 0-.753-.02-1.07-.06-1.506h-1.685c.04-.258.139-.991.139-1.25v-.316h-3.171c.02.317.099.812.139 1.169h-1.824c0-.08 0-.08.02-.12-.06.02-.06.04-.12.06 0 .12-.02.259-.02.397h.437c.515 0 1.804-.1 2.438-.138v1.427c-.357-.02-1.923-.14-2.438-.14h-.436v.932h.733c.694 0 2.557-.098 3.29-.138v1.447c-1.13-.06-1.922-.1-2.22-.12v.715c0 .257.06.337.318.337h.515c.436 0 .436-.2.436-.853l1.249.317c-.08 1.487-.555 1.606-1.487 1.606h-1.13v.555c-.376-.04-1.367-.14-1.704-.14v.715c1.486-.18 2.18-.278 2.973-.397l-.376 1.15c-1.824.317-4.302.673-7.037.852-.12.238-.198.416-.357.416-.138 0-.198-.16-.238-.317l-.396-1.367c.615 0 1.744 0 3.944-.18v-.871c-.436 0-.634 0-1.982.139v-.853c-.535.298-.951.436-1.308.536l-1.328-.932c1.249-.198 2.2-.555 2.656-1.427-.535.02-1.268.059-2.36.119V41.55c.556.04 2.618.138 3.292.138h1.03v-.931h-.574c-.337 0-.892.04-2.438.139V39.47c.495.039 1.942.138 2.438.138h.574c-.02-.218-.04-.475-.138-1.19l1.466.12c.1 0 .238.02.357.059.04-.218.04-.317.04-.495-1.29 0-3.885.079-5.847.139v-1.527c.693.02 4.558.139 5.867.139 0-.198-.06-.773-.14-1.328l1.527.139c.218.02.595.039.595.258 0 .178-.278.337-.397.416-.02.158-.04.297-.04.515h3.172c0-.198 0-.357-.14-1.328l1.528.139c.218.02.594.039.594.258 0 .178-.277.337-.396.416-.02.158-.04.297-.04.515 2.854-.06 3.21-.08 5.47-.14v1.528c-2.556-.08-3.071-.1-5.47-.14v.318c0 .198.04.396.099.99l1.229.16c.297.039.496.059.496.237 0 .08-.1.238-.317.337-.02.337-.02.417-.04.992l.376-.02c.159 0 1.487-.08 2.676-.298-.535 1.368-.693 2.002-.693 2.795 0 1.17.475 1.943.713 1.943.298 0 .337-1.27.337-1.526l1.249 1.07c-.12.634-.416 2.2-1.586 2.2zM277.733 42.8v6.64c0 .415.04 2.318 0 2.714-.119 1.388-1.249 1.388-3.132 1.368l-.812-2.04c.337.078 1.09.197 1.546.197.614 0 .614-.119.614-1.328V42.78h-.337c-.674 0-1.348.06-2.022.178v-1.942c.694.12 1.705.16 2.022.16h1.982c.694 0 1.368-.04 2.042-.16v1.942c-.773-.158-1.685-.158-1.903-.158zm-5.154 7.174c-.158-2.537-.673-5.292-1.209-7.115l1.705-.357c.515 1.546 1.15 3.964 1.407 6.521l-1.903.951zm4.976-11.615h-1.685c-.575 0-1.15.04-1.705.16v-.556l-1.288 1.07c-.813-1.11-1.15-1.427-1.625-1.824l1.248-1.03c.793.515 1.507 1.466 1.665 1.764v-1.368c.575.12 1.427.16 1.705.16h1.685c.594 0 1.169-.04 1.724-.16v1.943c-.733-.159-1.665-.159-1.724-.159zm-9.911 11.913l-1.823-.476c.911-1.804 1.149-4.282 1.149-6.065 0-.536-.02-.892-.02-1.19l1.745.238c.079 2.438-.159 5.65-1.051 7.493zm-1.209-12.884c-.099 0-.238-.02-.337-.06-.575.872-1.685 2.161-3.33 3.172l-1.566-1.19c1.744-.852 3.271-2.497 3.806-3.607l1.566.951c.119.08.257.218.257.397 0 .178-.158.337-.396.337zm4.539 3.528c0 .218-.02 1.09-.02 1.268v5.907c0 .952.119 4.52.159 5.51h-2.062c.04-.91.179-4.935.179-5.748V40.916c-.971 0-1.844.08-2.26.14.079.078.179.177.179.336 0 .317-.298.317-.417.317s-.178-.02-.297-.04c-.337.535-.595.912-1.07 1.506.277.12.515.22.515.476 0 .16-.079.218-.456.516-.02.733-.059 2.398-.059 3.132v2.754c0 .18.139 3.152.158 3.548h-2.061c.04-.535.218-3.052.218-3.27v-5.233c-.516.495-.813.714-1.13.951L261.024 45c2.16-1.407 3.924-3.984 4.341-5.034l1.407.951v-1.764c.733.12 1.784.158 2.438.158v-.852c0-.476-.02-2.379-.02-2.854l1.982.218c.298.04.456.14.456.317 0 .238-.139.297-.614.535 0 .456-.02 1.764-.02 2.636.812 0 1.804-.039 2.577-.158v1.942c-.833-.138-1.745-.178-2.597-.178zM300.458 37.606c.218.297.396.535.694.99.97-.455 1.348-.713 1.724-.99h-2.418zm-1.566.119c-.218.119-.337.178-.654.377.198.237.496.574.932 1.328.416-.16.535-.2.713-.278-.277-.535-.555-.951-.991-1.427zm-1.823.932c-.2.079-.397.158-.635.238l-.872-1.15v2.735c.476-.12 1.13-.257 2.3-.614-.16-.298-.318-.615-.793-1.21zm8.325 15.084c-2.993-.357-5.887-1.507-7.77-3.846-1.507 2.359-4.758 3.508-7.632 3.865l-1.248-1.625c3.072-.06 6.144-.971 7.175-2.795h-2.735c-1.17 0-3.41 0-4.46.059v-1.664c.872.059 3.449.059 4.46.059h3.33c.059-.356.079-.614.079-1.07 0-.555-.02-.892-.06-1.23l1.804.239c.436.059.634.158.634.337 0 .238-.297.297-.555.337 0 .475 0 .773-.1 1.387h2.28c-.415-.495-.713-.833-1.347-1.328l1.308-.872c.595.495 1.07.99 1.645 1.685l-.852.515h1.447c1.03 0 2.676 0 3.647-.06V49.4c-.932-.06-2.656-.06-3.647-.06h-3.35c1.725 2.003 4.718 2.638 7.255 2.737l-1.308 1.665zm-.892-11.358v.97c0 .16.019.893.019 1.052 0 1.01-.317 1.704-2.874 1.605l-.693-1.863c.257.079.852.218 1.447.218.218 0 .416-.04.416-.416v-1.566h-3.33c.436.476.773.892 1.149 1.506l-1.347.892c-.337-.674-.615-1.13-1.15-1.823l.813-.555c-.456 0-.833.019-1.23.039v-.911c-.614.178-.812.238-1.03.297l-1.13-1.288v2.12c0 1.249.04 2.32.06 3.212h-1.764c.059-.773.059-2.201.059-3.053v-.436h-1.883c-.1 1.744-.912 3.072-2.2 4.024l-1.387-1.071c.535-.336 1.902-1.15 1.98-2.953-.692.02-1.168.02-1.881.059v-1.545c.614.039 1.367.059 2.06.059h3.31V39.35h-1.743c-.773 0-1.21.02-2.577.08.06-.714.06-1.071.06-1.507v-.912c0-.178-.02-.654-.06-1.07l1.606.159c.337.039.495.039.495.218 0 .178-.238.277-.396.317-.04.238-.06.456-.06.892v.475h2.676v-.951c0-1.03 0-1.15-.02-1.507l1.725.14c.079 0 .495.039.495.237 0 .218-.317.317-.475.377-.06.277-.08.555-.08.852v.456c1.447-.396 2.854-1.05 3.727-2.28l1.427.278c.198.04.594.119.594.278 0 .198-.436.238-.594.257-.02.04-.04.08-.198.258h2.398c.614 0 1.229 0 2.06-.06l.754.873c-2.794 2.12-5.054 3.17-6.6 3.845h3.687c0-.317-.02-.793-.08-1.17l1.784.119c.575.04.575.139.575.238 0 .218-.238.298-.575.417-.02.118-.02.257-.02.396 1.19 0 1.586-.02 2.062-.06v1.447c-.674-.04-1.07-.04-2.061-.06zM11.12 43.632h3.786v-1.349H11.12v1.349zm4.282-4.956h-.297c.376.436.733.892 1.05 1.367l-2.002.418c-.337-.755-.396-.853-.932-1.785h-1.387c-.476.753-.872 1.25-1.487 1.962l-1.625-.95c.297-.219.932-.635 1.744-1.983.496-.792.654-1.288.872-2.26l1.883.516c.159.04.318.08.318.278 0 .297-.278.337-.674.416-.099.258-.159.396-.278.634h2.835c.792 0 2.457-.04 3.23-.139v1.645c-1.367-.08-2.973-.119-3.25-.119zm-6.066 6.402H4.5c-.099.614-.139.813-.277 1.407h5.113v-1.407zm8.742 6.125c-.238.614-.654 1.506-3.33 1.625l-1.051-2.06c.872.099 1.388.157 1.744.157.773 0 1.111-.276 1.19-2.893H11.12V49.3c0 .456.159 3.804.199 4.3H9.118c.119-.773.218-3.646.218-4.34-.257.377-.951 1.406-2.199 2.338-1.229.893-2.617 1.527-4.064 1.983l-1.427-1.685c2.418-.694 4.638-1.526 6.501-3.865H3.826c-.059.159-.416 1.229-.495 1.487l-1.963-.515c.456-.892 1.329-2.518 1.388-5.411.991.018 1.13.018 2.537.018 1.407.02 1.566.02 2.339.02h1.704v-1.348H7.355c-.258 0-3.231.08-4.956.279v-1.904c2.299.178 3.33.158 4.876.158h5.015c.793 0 3.806-.138 4.4-.158-.02.337-.059 1.309-.059 1.625v1.349c0 .297.079 1.209.119 1.507-.635-.04-3.945-.06-4.044-.06H11.12v1.407h3.449c1.15 0 2.557-.04 4.024-.139-.218 3.648-.238 4.142-.515 4.856zM7.513 38.676h-.376c.198.337.475.813.812 1.546l-1.923.416c-.178-.712-.237-.871-.634-1.962h-.971c-.297.337-1.011 1.011-2.022 1.724L.972 39.31c.793-.495 1.348-.852 1.943-1.526.138-.158 1.09-1.248 1.486-2.358l1.645.495c.258.08.357.14.357.337 0 .277-.198.337-.614.416-.139.218-.179.258-.397.635h2.121c.079 0 .694-.02 1.031-.04.238-.02.535-.02 1.149-.04v1.547c-.733-.06-1.447-.1-2.18-.1zM39.376 44.206H37.75v3.41l.019 2.736c0 1.03 0 2.398.06 3.072h-2.042c.079-.715.099-5.175.099-6.145v-3.073h-1.903l-2.736.02c-1.03 0-2.398 0-3.072.06v-1.824c.714.06 5.174.08 6.146.08h1.564v-1.726c0-2.517 0-2.854-.099-5.172l2.142.218c.197.02.694.078.694.356 0 .158-.02.158-.694.535-.04.398-.1.992-.12 2.161 0 .436-.058 2.438-.058 2.834v.794h1.962l2.734-.02c1.031 0 2.398 0 3.073-.06v1.823c-.714-.058-5.174-.078-6.145-.078M71.218 52.333c-1.467-1.031-3.865-2.854-5.094-6.719-.674-2.121-.793-3.965-.813-7.096-.396 0-1.308.059-1.665.099v-2.101c.377.059 1.586.099 1.745.099h.574c.298 0 1.21-.079 1.566-.099-.158 1.03-.218 2.616-.218 3.687 0 4.083 1.487 8.027 5.649 10.445l-1.744 1.685zM61.98 38.835c.02.376.04.832.04 1.289 0 6.461-3.31 10.663-5.193 12.11l-2.161-1.189c.654-.397 2.458-1.487 3.925-4.321 1.487-2.894 1.487-5.431 1.487-6.521 0-1.091-.04-1.626-.12-2.815l2.18.714c.318.099.477.158.477.297 0 .258-.397.376-.635.436zM93.705 45.257h-.317v2.24c.416 0 1.486-.02 2.319-.158v1.783c-.674-.118-1.526-.118-2.22-.118h-2.2c-.714 0-1.546 0-2.2.118v-1.783c.89.158 2.12.158 2.2.158h.396v-2.24h-.416c-.416 0-1.586.04-2.438.099V43.69c.813.06 1.923.099 2.438.099h.416c-.02-.495-.02-.654-.08-2.061l1.487.119c.714.059.793.079.793.317 0 .178-.04.198-.436.456l-.06 1.169h.318c.535 0 1.645-.04 2.438-.1v1.666c-.733-.06-1.943-.1-2.438-.1zm4.935-1.467c-.08 1.943-.08 2.16-.08 3.27v2.34c0 .93 0 1.07.14 3.944h-2.062c.02-.238.06-1.268.08-1.486h-8.424c.02.376.059 1.07.099 1.407h-2.161c.159-2.002.179-3.488.179-3.726v-2.2c0-1.884 0-2.458-.06-4.381l1.804.099c.476.02.674.059.674.317 0 .218-.14.278-.575.416-.02.357-.06 2.379-.06 2.815v3.647h8.583v-3.35c0-.991-.04-2.478-.08-3.904l1.745.099c.476.019.714.019.714.297 0 .218-.258.317-.516.396zm-12.646-4.083h10.565v-1.883H85.994v1.883zm12.428-1.665v1.308c0 .08 0 1.17.04 1.884-1.011-.06-4.618-.1-5.69-.1h-6.738c-.158 3.707-.337 7.929-3.033 11.913l-1.962-.714c.476-.594 1.447-1.843 2.14-3.984.873-2.636 1.032-5.054 1.032-7.215 0-1.09-.04-2.101-.238-4.935.218 0 1.764.079 2.08.079.417.02 2.22.04 2.578.04h5.55c.733 0 3.587-.06 4.32-.1-.04.476-.08 1.07-.08 1.824z" mask="url(#prefix__d)"/>
        <path fill="#FFE61A" fill-opacity=".5" d="M0 51.111L306.296 51.111 306.296 42.245 0 42.245z" mask="url(#prefix__d)"/>
    </g>
</svg>
