<svg xmlns="http://www.w3.org/2000/svg" xmlns:xlink="http://www.w3.org/1999/xlink" width="43" height="43" viewBox="0 0 43 43">
    <defs>
        <path id="prefix__a" d="M21.5 43C33.374 43 43 33.374 43 21.5S33.374 0 21.5 0 0 9.626 0 21.5 9.626 43 21.5 43zm-2.927-31.82c-5.034 0-9.113 3.3-9.113 7.371 0 2.347 1.364 4.43 3.48 5.777l-1.202 2.332 3.273-1.36c.702.241 1.43.44 2.21.533-.106-.45-.167-.911-.167-1.384 0-4.065 4.087-7.372 9.113-7.372.46 0 .91.037 1.353.09-.802-3.408-4.5-5.987-8.947-5.987zm-3.038 5.529c-.629 0-1.139-.496-1.139-1.106 0-.61.51-1.106 1.14-1.106.628 0 1.138.496 1.138 1.106 0 .61-.51 1.106-1.139 1.106zm6.075 0c-.628 0-1.139-.496-1.139-1.106 0-.61.51-1.106 1.14-1.106.628 0 1.138.496 1.138 1.106 0 .61-.51 1.106-1.139 1.106zm12.79 7.467c0-3.378-3.659-6.116-8.17-6.116s-8.17 2.738-8.17 6.116c0 3.377 3.659 6.115 8.17 6.115.742 0 1.448-.098 2.132-.237l4.404 1.766-1.523-2.848c1.909-1.12 3.157-2.841 3.157-4.796zm-10.75-.096c-.712 0-1.29-.578-1.29-1.29 0-.712.578-1.29 1.29-1.29.712 0 1.29.578 1.29 1.29 0 .712-.578 1.29-1.29 1.29zm5.16 0c-.712 0-1.29-.578-1.29-1.29 0-.712.578-1.29 1.29-1.29.712 0 1.29.578 1.29 1.29 0 .712-.578 1.29-1.29 1.29z"/>
    </defs>
    <g fill="none" fill-rule="evenodd">
        <mask id="prefix__b" fill="#fff">
            <use xlink:href="#prefix__a"/>
        </mask>
        <use fill="#231916" xlink:href="#prefix__a"/>
        <g fill="#D5D4D6" mask="url(#prefix__b)">
            <path d="M0 0H43V43H0z"/>
        </g>
    </g>
</svg>
