<?xml version="1.0" encoding="utf-8"?>
<!-- Generator: Adobe Illustrator 23.1.0, SVG Export Plug-In . SVG Version: 6.00 Build 0)  -->
<svg version="1.1" id="Layer_1" xmlns="http://www.w3.org/2000/svg" xmlns:xlink="http://www.w3.org/1999/xlink" x="0px" y="0px"
	 viewBox="0 0 43 43" style="enable-background:new 0 0 43 43;" xml:space="preserve">
<style type="text/css">
	.st0{display:none;}
	.st1{display:inline;fill-rule:evenodd;clip-rule:evenodd;fill:#231916;}
	.st2{filter:url(#Adobe_OpacityMaskFilter);}
	.st3{fill-rule:evenodd;clip-rule:evenodd;fill:#FFFFFF;}
	.st4{mask:url(#prefix__b_1_);}
	.st5{fill-rule:evenodd;clip-rule:evenodd;fill:#D5D4D6;}
</style>
<g>
	<g class="st0">
		<path class="st1" d="M21.5,43C33.4,43,43,33.4,43,21.5S33.4,0,21.5,0S0,9.6,0,21.5S9.6,43,21.5,43z M18.6,11.2
			c-5,0-9.1,3.3-9.1,7.4c0,2.3,1.4,4.4,3.5,5.8l-1.2,2.3l3.3-1.4c0.7,0.2,1.4,0.4,2.2,0.5c-0.1-0.5-0.2-0.9-0.2-1.4
			c0-4.1,4.1-7.4,9.1-7.4c0.5,0,0.9,0,1.4,0.1C26.7,13.8,23,11.2,18.6,11.2z M15.5,16.7c-0.6,0-1.1-0.5-1.1-1.1
			c0-0.6,0.5-1.1,1.1-1.1c0.6,0,1.1,0.5,1.1,1.1C16.7,16.2,16.2,16.7,15.5,16.7z M21.6,16.7c-0.6,0-1.1-0.5-1.1-1.1
			c0-0.6,0.5-1.1,1.1-1.1c0.6,0,1.1,0.5,1.1,1.1C22.7,16.2,22.2,16.7,21.6,16.7z M34.4,24.2c0-3.4-3.7-6.1-8.2-6.1s-8.2,2.7-8.2,6.1
			c0,3.4,3.7,6.1,8.2,6.1c0.7,0,1.4-0.1,2.1-0.2l4.4,1.8L31.2,29C33.2,27.9,34.4,26.1,34.4,24.2z M23.7,24.1c-0.7,0-1.3-0.6-1.3-1.3
			c0-0.7,0.6-1.3,1.3-1.3c0.7,0,1.3,0.6,1.3,1.3C24.9,23.5,24.4,24.1,23.7,24.1z M28.8,24.1c-0.7,0-1.3-0.6-1.3-1.3
			c0-0.7,0.6-1.3,1.3-1.3c0.7,0,1.3,0.6,1.3,1.3C30.1,23.5,29.5,24.1,28.8,24.1z"/>
	</g>
	<defs>
		<filter id="Adobe_OpacityMaskFilter" filterUnits="userSpaceOnUse" x="0" y="0" width="43" height="43">
			<feColorMatrix  type="matrix" values="1 0 0 0 0  0 1 0 0 0  0 0 1 0 0  0 0 0 1 0"/>
		</filter>
	</defs>
	<mask maskUnits="userSpaceOnUse" x="0" y="0" width="43" height="43" id="prefix__b_1_">
		<g class="st2">
			<path id="prefix__a_1_" class="st3" d="M21.5,43C33.4,43,43,33.4,43,21.5S33.4,0,21.5,0S0,9.6,0,21.5S9.6,43,21.5,43z M18.6,11.2
				c-5,0-9.1,3.3-9.1,7.4c0,2.3,1.4,4.4,3.5,5.8l-1.2,2.3l3.3-1.4c0.7,0.2,1.4,0.4,2.2,0.5c-0.1-0.5-0.2-0.9-0.2-1.4
				c0-4.1,4.1-7.4,9.1-7.4c0.5,0,0.9,0,1.4,0.1C26.7,13.8,23,11.2,18.6,11.2z M15.5,16.7c-0.6,0-1.1-0.5-1.1-1.1
				c0-0.6,0.5-1.1,1.1-1.1c0.6,0,1.1,0.5,1.1,1.1C16.7,16.2,16.2,16.7,15.5,16.7z M21.6,16.7c-0.6,0-1.1-0.5-1.1-1.1
				c0-0.6,0.5-1.1,1.1-1.1c0.6,0,1.1,0.5,1.1,1.1C22.7,16.2,22.2,16.7,21.6,16.7z M34.4,24.2c0-3.4-3.7-6.1-8.2-6.1
				s-8.2,2.7-8.2,6.1c0,3.4,3.7,6.1,8.2,6.1c0.7,0,1.4-0.1,2.1-0.2l4.4,1.8L31.2,29C33.2,27.9,34.4,26.1,34.4,24.2z M23.7,24.1
				c-0.7,0-1.3-0.6-1.3-1.3c0-0.7,0.6-1.3,1.3-1.3c0.7,0,1.3,0.6,1.3,1.3C24.9,23.5,24.4,24.1,23.7,24.1z M28.8,24.1
				c-0.7,0-1.3-0.6-1.3-1.3c0-0.7,0.6-1.3,1.3-1.3c0.7,0,1.3,0.6,1.3,1.3C30.1,23.5,29.5,24.1,28.8,24.1z"/>
		</g>
	</mask>
	<g class="st4">
		<path class="st5" d="M0,0h43v43H0V0z"/>
	</g>
</g>
</svg>
